<?xml version="1.0" standalone="no"?>
<!DOCTYPE svg PUBLIC "-//W3C//DTD SVG 20010904//EN"
 "http://www.w3.org/TR/2001/REC-SVG-20010904/DTD/svg10.dtd">
<svg version="1.0" xmlns="http://www.w3.org/2000/svg"
 width="648.000000pt" height="648.000000pt" viewBox="0 0 648.000000 648.000000"
 preserveAspectRatio="xMidYMid meet">
<metadata>
Created by potrace 1.11, written by Peter Selinger 2001-2013
</metadata>
<g transform="translate(0.000000,648.000000) scale(0.100000,-0.100000)"
fill="#000000" stroke="none">
<path d="M1245 6473 c-168 -40 -294 -162 -331 -320 -13 -56 -11 -184 4 -218
35 -83 69 -137 107 -177 47 -47 138 -101 190 -114 50 -11 160 -13 205 -3 102
23 220 107 266 189 10 19 24 38 29 42 6 4 7 8 2 8 -4 0 0 14 9 32 9 18 19 67
22 113 4 66 0 96 -18 158 -13 42 -26 77 -31 77 -4 0 -11 9 -14 20 -11 34 -110
125 -166 153 -30 14 -72 30 -94 35 -45 10 -149 13 -180 5z"/>
<path d="M4498 6460 c-85 -26 -107 -40 -181 -115 -95 -96 -136 -230 -113 -374
7 -45 57 -146 95 -192 42 -50 132 -108 201 -130 99 -31 252 -15 322 33 14 10
29 18 33 18 4 0 30 22 59 49 176 168 175 448 -3 614 -112 105 -269 142 -413
97z"/>
<path d="M2377 6264 c-2 -3 -15 -7 -28 -9 -46 -9 -130 -57 -169 -98 -171 -173
-131 -462 80 -584 137 -80 321 -57 437 54 40 39 92 118 98 150 2 10 4 18 5 18
4 0 11 43 13 80 10 164 -92 315 -248 370 -45 16 -178 29 -188 19z"/>
<path d="M3509 5935 c-172 -61 -271 -199 -264 -367 3 -82 11 -112 43 -171 61
-114 190 -190 321 -190 72 0 102 7 159 34 63 31 103 64 145 120 68 90 90 244
50 339 -3 8 -7 17 -7 20 -1 3 -13 26 -28 52 -43 72 -113 126 -213 163 -35 13
-169 13 -206 0z"/>
<path d="M2395 5409 c-69 -14 -79 -17 -130 -37 -75 -31 -105 -46 -105 -54 0
-5 -6 -8 -14 -8 -25 0 -196 -179 -196 -206 0 -27 -25 -33 -84 -19 -161 38
-348 -13 -471 -126 l-41 -38 -50 25 c-63 31 -82 35 -176 41 -127 8 -228 -34
-324 -134 -23 -24 -47 -56 -54 -73 -7 -16 -16 -30 -21 -30 -5 0 -9 -10 -9 -22
-1 -41 -20 -53 -87 -55 -73 -1 -149 -33 -165 -69 -6 -13 -15 -24 -20 -24 -5 0
-7 -4 -3 -9 3 -5 1 -12 -5 -16 -16 -10 -11 -97 9 -140 10 -22 41 -78 70 -124
28 -45 51 -84 51 -87 0 -2 20 -35 45 -74 25 -39 45 -73 45 -77 0 -3 7 -14 15
-23 14 -16 13 -24 -16 -86 -45 -100 -140 -342 -141 -361 0 -5 -6 -24 -14 -43
-12 -33 -59 -202 -70 -253 -6 -27 -31 -161 -39 -202 -27 -154 -27 -562 1 -699
2 -12 6 -32 8 -46 3 -14 8 -45 12 -70 5 -25 9 -49 10 -55 1 -5 3 -12 4 -15 1
-3 3 -12 5 -21 19 -97 102 -362 131 -418 8 -14 14 -30 14 -35 0 -4 32 -72 71
-150 74 -149 157 -285 252 -413 56 -77 71 -95 166 -203 75 -85 101 -117 101
-124 0 -3 -45 -51 -99 -105 -146 -146 -173 -198 -165 -326 9 -158 143 -287
302 -290 125 -3 171 23 339 191 l134 134 47 -26 c147 -84 418 -213 477 -228 6
-2 17 -6 25 -9 84 -34 317 -98 445 -123 22 -4 47 -9 55 -10 20 -4 152 -23 220
-31 80 -9 481 -9 580 0 425 41 886 196 1227 412 48 30 90 55 95 55 4 0 77 -69
162 -154 186 -185 228 -211 346 -210 127 0 229 64 287 178 46 91 37 228 -19
310 -12 17 -74 83 -137 147 -159 159 -149 140 -104 187 68 71 113 123 113 133
0 5 4 9 9 9 4 0 21 19 37 42 16 23 36 49 45 58 33 34 176 271 235 390 54 108
133 295 138 325 1 6 5 16 9 23 5 6 6 12 2 12 -3 0 1 13 9 29 8 15 17 39 20 52
3 13 12 49 20 79 8 30 13 56 11 59 -3 2 -1 9 4 15 5 6 11 29 14 51 3 22 8 47
11 55 4 13 8 34 21 130 15 111 19 178 20 335 0 188 -5 251 -31 375 -9 41 -18
86 -20 98 -5 25 -23 91 -49 182 -9 30 -18 62 -20 70 -21 73 -134 357 -184 459
-26 55 -27 58 -11 86 10 17 70 118 134 225 100 166 119 203 123 248 12 111
-63 189 -187 195 -77 3 -86 8 -93 46 -7 33 -46 120 -62 137 -5 6 -17 22 -25
34 -41 64 -156 147 -242 177 -68 24 -88 27 -183 27 -145 1 -271 -51 -369 -151
l-21 -22 -45 21 c-111 51 -218 61 -322 28 -74 -23 -98 -25 -98 -7 0 22 -134
141 -193 170 -31 16 -59 28 -62 28 -3 -1 -18 5 -33 13 -82 42 -258 39 -389 -8
-87 -31 -213 -128 -265 -204 -15 -23 -17 -23 -47 -8 -59 31 -149 43 -233 31
l-78 -11 -15 45 c-28 84 -107 189 -200 266 -45 38 -155 92 -221 110 -66 18
-208 25 -269 14z m195 -214 c163 -36 297 -180 324 -350 5 -29 10 -139 7 -160
-1 -7 -237 -11 -731 -11 -590 1 -730 3 -730 13 0 8 11 30 24 51 95 148 294
192 438 97 21 -14 42 -25 48 -25 5 0 10 -3 10 -7 0 -12 61 -44 71 -37 5 3 9
12 9 20 0 29 54 180 78 219 57 92 179 175 277 191 22 3 41 7 42 8 5 5 100 -2
133 -9z m1495 -239 c61 -28 116 -74 156 -133 17 -23 28 -43 25 -43 -3 0 4 -19
14 -42 11 -24 20 -48 20 -53 0 -12 -723 -15 -735 -4 -3 4 6 36 20 72 51 126
176 223 303 234 31 3 58 7 60 8 7 6 91 -18 137 -39z m1280 -89 c65 -22 136
-80 169 -139 15 -27 26 -49 24 -49 -8 -4 -584 -5 -590 -2 -15 8 31 79 77 122
91 84 201 107 320 68z m-4147 -114 c27 -17 72 -63 72 -73 0 -3 -79 -6 -175 -6
-99 0 -175 4 -175 9 0 16 74 77 105 87 42 13 140 4 173 -17z m2118 -1 c35 -18
94 -70 83 -73 -9 -3 -369 -5 -369 -2 0 2 16 18 36 36 75 66 169 80 250 39z
m1392 -5 c38 -22 73 -57 67 -67 -3 -5 -339 -6 -354 -1 -3 0 10 17 29 36 18 19
37 32 42 29 4 -3 8 -1 8 4 0 16 71 30 123 25 26 -2 64 -14 85 -26z m-3329
-2017 c17 -18 31 -41 32 -53 1 -12 2 -53 4 -92 2 -64 12 -161 21 -210 2 -11 9
-46 15 -78 5 -32 14 -68 18 -80 5 -12 17 -49 26 -82 10 -33 22 -64 27 -69 4
-6 8 -16 8 -24 0 -44 131 -279 229 -412 72 -96 246 -272 323 -325 246 -170
407 -247 633 -300 133 -32 199 -41 366 -49 36 -2 75 -9 87 -15 45 -24 63 -91
37 -141 -23 -45 -62 -58 -164 -54 -401 14 -792 158 -1116 413 -93 73 -283 265
-330 333 -132 192 -227 360 -260 458 -1 3 -5 14 -9 25 -28 74 -35 96 -49 145
-23 79 -45 179 -53 236 -3 27 -8 58 -10 69 -2 11 -7 73 -10 138 -5 102 -3 122
12 145 25 39 41 48 89 51 36 1 48 -3 74 -29z"/>
</g>
</svg>
