<?xml version="1.0" standalone="no"?>
<!DOCTYPE svg PUBLIC "-//W3C//DTD SVG 20010904//EN"
 "http://www.w3.org/TR/2001/REC-SVG-20010904/DTD/svg10.dtd">
<svg version="1.0" xmlns="http://www.w3.org/2000/svg"
 width="776.000000pt" height="776.000000pt" viewBox="0 0 776.000000 776.000000"
 preserveAspectRatio="xMidYMid meet">
<metadata>
Created by potrace 1.11, written by Peter Selinger 2001-2013
</metadata>
<g transform="translate(0.000000,776.000000) scale(0.100000,-0.100000)"
fill="#000000" stroke="none">
<path d="M2359 7365 c-3 -2 -38 -7 -79 -10 -88 -6 -131 -13 -175 -29 -217 -77
-356 -223 -415 -434 -19 -65 -19 -163 -19 -3007 -1 -2815 0 -2943 18 -3010 31
-121 75 -200 160 -285 59 -59 95 -86 161 -118 47 -23 97 -43 113 -46 15 -3 35
-7 45 -10 16 -5 97 -14 170 -19 17 -1 32 0 32 3 0 3 19 5 43 6 60 1 129 15
197 41 8 3 20 7 25 8 25 6 124 73 169 115 85 80 143 179 172 295 16 64 17 170
19 1255 1 652 5 1210 9 1240 6 48 10 78 22 142 19 112 98 294 167 388 177 239
426 367 752 386 324 20 536 -49 669 -216 21 -26 84 -156 90 -186 3 -10 11 -46
20 -79 15 -59 18 -81 32 -200 4 -33 8 -644 8 -1357 1 -714 4 -1298 8 -1298 3
0 5 -8 4 -17 -5 -28 28 -132 63 -202 53 -103 189 -228 286 -262 22 -8 42 -16
45 -20 8 -8 119 -31 170 -35 25 -2 47 -4 50 -4 8 -3 81 1 135 6 109 11 264 73
335 134 19 16 40 34 45 38 21 18 84 97 97 121 7 14 15 28 18 31 9 9 32 73 50
140 17 61 18 144 16 1455 -1 765 -5 1417 -9 1450 -4 33 -9 76 -12 95 -3 19 -8
50 -10 68 -9 64 -14 88 -30 167 -21 96 -21 96 -27 115 -3 8 -11 35 -18 60 -14
50 -14 51 -61 170 -139 354 -370 616 -691 783 -34 18 -90 43 -123 56 -33 13
-73 29 -90 36 -16 7 -77 25 -135 39 -157 38 -181 42 -375 61 -64 7 -343 6
-425 -1 -97 -8 -135 -12 -135 -14 0 -1 -11 -3 -25 -6 -135 -23 -367 -84 -395
-104 -5 -4 -28 -13 -50 -20 -22 -7 -50 -20 -62 -28 -13 -8 -23 -11 -23 -7 0 4
-6 3 -12 -3 -7 -5 -44 -27 -83 -47 -79 -43 -171 -102 -231 -151 -23 -18 -47
-34 -54 -36 -11 -2 -14 161 -15 912 -1 716 -4 927 -14 970 -24 100 -83 209
-155 283 -36 37 -66 65 -66 61 0 -4 -10 1 -22 12 -57 49 -190 97 -303 109 -32
4 -62 8 -66 10 -3 3 -8 3 -10 0z"/>
</g>
</svg>
