<?xml version="1.0" standalone="no"?>
<!DOCTYPE svg PUBLIC "-//W3C//DTD SVG 20010904//EN"
 "http://www.w3.org/TR/2001/REC-SVG-20010904/DTD/svg10.dtd">
<svg version="1.0" xmlns="http://www.w3.org/2000/svg"
 width="700.000000pt" height="700.000000pt" viewBox="0 0 700.000000 700.000000"
 preserveAspectRatio="xMidYMid meet">
<metadata>
Created by potrace 1.11, written by Peter Selinger 2001-2013
</metadata>
<g transform="translate(0.000000,700.000000) scale(0.100000,-0.100000)"
fill="#000000" stroke="none">
<path d="M1980 6530 c-191 -50 -341 -192 -397 -375 -17 -57 -18 -173 -18
-2650 0 -2490 1 -2593 18 -2655 61 -214 219 -352 452 -395 39 -7 191 -7 230 0
217 41 375 180 437 382 20 67 20 91 23 1113 1 575 5 1074 9 1109 20 174 92
359 187 478 122 154 278 244 514 299 49 12 341 13 382 3 167 -44 227 -73 290
-142 88 -96 128 -201 159 -417 4 -25 8 -567 9 -1205 2 -638 5 -1169 8 -1180
33 -132 70 -204 141 -278 49 -50 145 -117 170 -117 8 0 17 -4 20 -9 3 -5 23
-12 43 -16 21 -5 43 -9 48 -11 40 -11 71 -14 145 -14 102 1 121 3 196 25 196
57 337 209 378 406 10 51 13 304 11 1259 -1 657 -5 1222 -9 1255 -20 172 -64
410 -86 460 -5 11 -16 44 -26 74 -9 30 -36 97 -60 149 -156 335 -415 570 -759
688 -77 26 -217 60 -290 70 -22 3 -51 8 -65 11 -14 3 -122 7 -240 8 -224 4
-332 -6 -505 -45 -205 -46 -459 -168 -626 -301 -21 -17 -40 -29 -40 -27 -1 1
-3 365 -4 808 -2 443 -5 812 -7 820 -3 8 -8 31 -12 50 -16 72 -70 164 -136
230 -70 70 -154 117 -254 143 -78 21 -253 19 -336 -3z"/>
</g>
</svg>
