<?xml version="1.0" encoding="iso-8859-1"?>
<!-- Generator: Adobe Illustrator 19.0.0, SVG Export Plug-In . SVG Version: 6.00 Build 0)  -->
<svg version="1.1" id="Capa_1" xmlns="http://www.w3.org/2000/svg" xmlns:xlink="http://www.w3.org/1999/xlink" x="0px" y="0px"
	 viewBox="0 0 512.002 512.002" style="enable-background:new 0 0 512.002 512.002;" xml:space="preserve">
<g>
	<g>
		<path d="M486.401,3.197H25.6C11.52,3.197,0,14.787,0,28.957v6.035c0,14.176,11.52,25.76,25.6,25.76h0.883
			c-0.519,2.016-0.883,4.089-0.883,6.285v268.737c0,14.176,11.52,25.767,25.6,25.767h195.2v67.046l-73.44,63.212
			c-4.032,3.463-4.506,9.561-1.056,13.619c3.443,4.057,9.504,4.531,13.53,1.063l60.96-52.473v45.133c0,5.337,4.301,9.665,9.6,9.665
			c5.299,0,9.6-4.326,9.6-9.665v-45.133l60.96,52.473c4.026,3.468,10.087,2.996,13.53-1.063c3.45-4.057,2.976-10.157-1.056-13.619
			l-73.428-63.213V361.54h195.2c14.079,0,25.6-11.597,25.6-25.767V67.306c0-2.285-0.397-4.448-0.953-6.541h0.953
			c14.079,0,25.6-11.591,25.6-25.76V28.97C512,14.787,500.48,3.197,486.401,3.197z M467.201,335.773c0,3.495-2.931,6.445-6.4,6.445
			H51.2c-3.468,0-6.4-2.951-6.4-6.445V67.037c0-3.213,2.522-5.863,5.626-6.272l410.374,0.095c3.468,0,6.4,2.951,6.4,6.445V335.773z
			 M492.801,34.998c0,3.495-2.931,6.445-6.4,6.445H25.6c-3.468,0-6.4-2.951-6.4-6.445v-6.035c0-3.488,2.931-6.439,6.4-6.439h460.801
			c3.468,0,6.4,2.951,6.4,6.439V34.998z"/>
	</g>
</g>
<g>
	<g>
		<path d="M406.401,112.732c-8.845,0-16,7.213-16,16.102c0,1.766,0.359,3.443,0.876,5.037l-42.97,62.637
			c-1.876,0.057-3.66,0.429-5.312,1.082l-48.716-31.36c-0.646-8.295-7.469-14.855-15.872-14.855c-8.845,0-16,7.22-16,16.109
			c0,1.382,0.224,2.694,0.551,3.967l-35.283,44.39c-0.16-0.007-0.314-0.052-0.467-0.052c-2.809,0-5.421,0.793-7.719,2.073
			l-34.317-15.347c-1.639-7.143-7.968-12.487-15.565-12.487c-8.845,0-16,7.213-16,16.102c0,0.454,0.095,0.883,0.135,1.325
			l-45.338,40.819c-0.915-0.16-1.837-0.282-2.797-0.282c-8.845,0-16,7.213-16,16.102c-0.007,8.885,7.148,16.091,15.993,16.091
			c8.832,0,16-7.206,16-16.109c0-0.557-0.109-1.088-0.16-1.632l45.031-40.55c1.011,0.205,2.054,0.32,3.129,0.32
			c2.809,0,5.421-0.794,7.719-2.08l34.317,15.354c1.632,7.148,7.956,12.487,15.565,12.487c8.832,0,16-7.2,16-16.102
			c0-1.382-0.224-2.694-0.551-3.968l35.283-44.39c0.16,0.007,0.307,0.052,0.467,0.052c1.965,0,3.82-0.404,5.556-1.056l48.992,31.546
			c0.768,8.179,7.52,14.598,15.853,14.598c8.832,0,16-7.206,16-16.109c0-1.715-0.339-3.328-0.831-4.877l43.097-62.817
			c8.518-0.346,15.334-7.353,15.334-16.02C422.401,119.945,415.233,112.732,406.401,112.732z"/>
	</g>
</g>
<g>
</g>
<g>
</g>
<g>
</g>
<g>
</g>
<g>
</g>
<g>
</g>
<g>
</g>
<g>
</g>
<g>
</g>
<g>
</g>
<g>
</g>
<g>
</g>
<g>
</g>
<g>
</g>
<g>
</g>
</svg>
