<?xml version="1.0" standalone="no"?><!-- Generator: Gravit.io --><svg xmlns="http://www.w3.org/2000/svg" xmlns:xlink="http://www.w3.org/1999/xlink" style="isolation:isolate" viewBox="0 0 512.002 512.002" width="512.002" height="512.002"><g><g><path d=" M 486.401 3.197 L 25.6 3.197 C 11.52 3.197 0 14.787 0 28.957 L 0 34.992 C 0 49.168 11.52 60.752 25.6 60.752 L 26.483 60.752 C 25.964 62.768 25.6 64.841 25.6 67.037 L 25.6 335.774 C 25.6 349.95 37.12 361.541 51.2 361.541 L 246.4 361.541 L 246.4 428.587 L 172.96 491.799 C 168.928 495.262 168.454 501.36 171.904 505.418 C 175.347 509.475 181.408 509.949 185.434 506.481 L 246.394 454.008 L 246.394 499.141 C 246.394 504.478 250.695 508.806 255.994 508.806 C 261.293 508.806 265.594 504.48 265.594 499.141 L 265.594 454.008 L 326.554 506.481 C 330.58 509.949 336.641 509.477 340.084 505.418 C 343.534 501.361 343.06 495.261 339.028 491.799 L 265.6 428.586 L 265.6 361.54 L 460.8 361.54 C 474.879 361.54 486.4 349.943 486.4 335.773 L 486.4 67.306 C 486.4 65.021 486.003 62.858 485.447 60.765 L 486.4 60.765 C 500.479 60.765 512 49.174 512 35.005 L 512 28.97 C 512 14.787 500.48 3.197 486.401 3.197 Z  M 467.201 335.773 C 467.201 339.268 464.27 342.218 460.801 342.218 L 51.2 342.218 C 47.732 342.218 44.8 339.267 44.8 335.773 L 44.8 67.037 C 44.8 63.824 47.322 61.174 50.426 60.765 L 460.8 60.86 C 464.268 60.86 467.2 63.811 467.2 67.305 L 467.2 335.773 L 467.201 335.773 Z  M 492.801 34.998 C 492.801 38.493 489.87 41.443 486.401 41.443 L 25.6 41.443 C 22.132 41.443 19.2 38.492 19.2 34.998 L 19.2 28.963 C 19.2 25.475 22.131 22.524 25.6 22.524 L 486.401 22.524 C 489.869 22.524 492.801 25.475 492.801 28.963 L 492.801 34.998 L 492.801 34.998 Z " fill="rgb(5,82,177)"/></g></g><g><g><path d=" M 406.401 112.732 C 397.556 112.732 390.401 119.945 390.401 128.834 C 390.401 130.6 390.76 132.277 391.277 133.871 L 348.307 196.508 C 346.431 196.565 344.647 196.937 342.995 197.59 L 294.279 166.23 C 293.633 157.935 286.81 151.375 278.407 151.375 C 269.562 151.375 262.407 158.595 262.407 167.484 C 262.407 168.866 262.631 170.178 262.958 171.451 L 227.675 215.841 C 227.515 215.834 227.361 215.789 227.208 215.789 C 224.399 215.789 221.787 216.582 219.489 217.862 L 185.172 202.515 C 183.533 195.372 177.204 190.028 169.607 190.028 C 160.762 190.028 153.607 197.241 153.607 206.13 C 153.607 206.584 153.702 207.013 153.742 207.455 L 108.404 248.274 C 107.489 248.114 106.567 247.992 105.607 247.992 C 96.762 247.992 89.607 255.205 89.607 264.094 C 89.6 272.979 96.755 280.185 105.6 280.185 C 114.432 280.185 121.6 272.979 121.6 264.076 C 121.6 263.519 121.491 262.988 121.44 262.444 L 166.471 221.894 C 167.482 222.099 168.525 222.214 169.6 222.214 C 172.409 222.214 175.021 221.42 177.319 220.134 L 211.636 235.488 C 213.268 242.636 219.592 247.975 227.201 247.975 C 236.033 247.975 243.201 240.775 243.201 231.873 C 243.201 230.491 242.977 229.179 242.65 227.905 L 277.933 183.515 C 278.093 183.522 278.24 183.567 278.4 183.567 C 280.365 183.567 282.22 183.163 283.956 182.511 L 332.948 214.057 C 333.716 222.236 340.468 228.655 348.801 228.655 C 357.633 228.655 364.801 221.449 364.801 212.546 C 364.801 210.831 364.462 209.218 363.97 207.669 L 407.067 144.852 C 415.585 144.506 422.401 137.499 422.401 128.832 C 422.401 119.945 415.233 112.732 406.401 112.732 Z " fill="rgb(5,82,177)"/></g></g></svg>