<?xml version="1.0" standalone="no"?><!-- Generator: Gravit.io --><svg xmlns="http://www.w3.org/2000/svg" xmlns:xlink="http://www.w3.org/1999/xlink" style="isolation:isolate" viewBox="0 0 512.002 512.002" width="512.002" height="512.002"><g><g><path d=" M 486.405 3.197 L 25.604 3.197 C 11.524 3.197 0.004 14.787 0.004 28.957 L 0.004 34.992 C 0.004 49.168 11.524 60.752 25.604 60.752 L 26.487 60.752 C 25.968 62.768 25.604 64.841 25.604 67.037 L 25.604 335.774 C 25.604 349.95 37.124 361.541 51.204 361.541 L 246.404 361.541 L 246.404 428.587 L 172.964 491.799 C 168.932 495.262 168.458 501.359 171.908 505.418 C 175.351 509.475 181.412 509.949 185.438 506.481 L 246.398 454.008 L 246.398 499.141 C 246.398 504.477 250.699 508.806 255.998 508.806 C 261.297 508.806 265.598 504.48 265.598 499.141 L 265.598 454.008 L 326.558 506.481 C 330.584 509.949 336.645 509.477 340.088 505.418 C 343.538 501.361 343.064 495.261 339.032 491.799 L 265.604 428.585 L 265.604 361.54 L 460.804 361.54 C 474.883 361.54 486.404 349.943 486.404 335.773 L 486.404 67.306 C 486.404 65.021 486.007 62.858 485.451 60.765 L 486.404 60.765 C 500.483 60.765 512.004 49.174 512.004 35.005 L 512.004 28.97 C 512.004 14.787 500.484 3.197 486.405 3.197 Z  M 467.205 335.773 C 467.205 339.268 464.274 342.218 460.805 342.218 L 51.204 342.218 C 47.736 342.218 44.804 339.267 44.804 335.773 L 44.804 67.037 C 44.804 63.824 47.326 61.174 50.43 60.765 L 460.804 60.86 C 464.272 60.86 467.204 63.811 467.204 67.305 L 467.204 335.773 L 467.205 335.773 Z  M 492.805 34.998 C 492.805 38.493 489.874 41.443 486.405 41.443 L 25.604 41.443 C 22.136 41.443 19.204 38.492 19.204 34.998 L 19.204 28.963 C 19.204 25.475 22.135 22.524 25.604 22.524 L 486.405 22.524 C 489.873 22.524 492.805 25.475 492.805 28.963 L 492.805 34.998 Z " fill="rgb(135,187,251)"/></g></g><g><g><path d=" M 406.401 113.547 C 397.556 113.547 390.401 120.76 390.401 129.649 C 390.401 131.415 390.76 133.092 391.277 134.686 L 348.307 197.323 C 346.431 197.38 344.647 197.752 342.995 198.405 L 294.279 167.045 C 293.633 158.75 286.81 152.19 278.407 152.19 C 269.562 152.19 262.407 159.41 262.407 168.299 C 262.407 169.681 262.631 170.993 262.958 172.266 L 227.675 216.656 C 227.515 216.649 227.361 216.604 227.208 216.604 C 224.399 216.604 221.787 217.397 219.489 218.677 L 185.172 203.33 C 183.533 196.187 177.204 190.843 169.607 190.843 C 160.762 190.843 153.607 198.056 153.607 206.945 C 153.607 207.399 153.702 207.828 153.742 208.27 L 108.404 249.089 C 107.489 248.929 106.567 248.807 105.607 248.807 C 96.762 248.807 89.607 256.02 89.607 264.909 C 89.6 273.794 96.755 281 105.6 281 C 114.432 281 121.6 273.794 121.6 264.891 C 121.6 264.334 121.491 263.803 121.44 263.259 L 166.471 222.709 C 167.482 222.914 168.525 223.029 169.6 223.029 C 172.409 223.029 175.021 222.235 177.319 220.949 L 211.636 236.303 C 213.268 243.451 219.592 248.79 227.201 248.79 C 236.033 248.79 243.201 241.59 243.201 232.688 C 243.201 231.306 242.977 229.994 242.65 228.72 L 277.933 184.33 C 278.093 184.337 278.24 184.382 278.4 184.382 C 280.365 184.382 282.22 183.978 283.956 183.326 L 332.948 214.872 C 333.716 223.051 340.468 229.47 348.801 229.47 C 357.633 229.47 364.801 222.264 364.801 213.361 C 364.801 211.646 364.462 210.033 363.97 208.484 L 407.067 145.667 C 415.585 145.321 422.401 138.314 422.401 129.647 C 422.401 120.76 415.233 113.547 406.401 113.547 Z " fill="rgb(135,187,251)"/></g></g></svg>