<?xml version="1.0" standalone="no"?><!-- Generator: Gravit.io --><svg xmlns="http://www.w3.org/2000/svg" xmlns:xlink="http://www.w3.org/1999/xlink" style="isolation:isolate" viewBox="871 364 130.74 194.45" width="130.74" height="194.45"><path d=" M 946.72 427.3 L 946.72 427.3 Q 986.74 427.3 986.74 472.61 L 986.74 472.61 L 986.74 532.41 L 986.74 532.41 Q 986.74 537.47 983.52 540.46 L 983.52 540.46 L 983.52 540.46 Q 980.3 543.45 975.01 543.45 L 975.01 543.45 L 975.01 543.45 Q 969.72 543.45 966.615 540.46 L 966.615 540.46 L 966.615 540.46 Q 963.51 537.47 963.51 532.41 L 963.51 532.41 L 963.51 472.84 L 963.51 472.84 Q 963.51 459.04 957.875 452.6 L 957.875 452.6 L 957.875 452.6 Q 952.24 446.16 940.28 446.16 L 940.28 446.16 L 940.28 446.16 Q 926.25 446.16 917.74 454.9 L 917.74 454.9 L 917.74 454.9 Q 909.23 463.64 909.23 478.36 L 909.23 478.36 L 909.23 532.41 L 909.23 532.41 Q 909.23 537.47 906.125 540.46 L 906.125 540.46 L 906.125 540.46 Q 903.02 543.45 897.73 543.45 L 897.73 543.45 L 897.73 543.45 Q 892.44 543.45 889.22 540.46 L 889.22 540.46 L 889.22 540.46 Q 886 537.47 886 532.41 L 886 532.41 L 886 390.04 L 886 390.04 Q 886 384.98 889.335 381.99 L 889.335 381.99 L 889.335 381.99 Q 892.67 379 897.96 379 L 897.96 379 L 897.96 379 Q 903.02 379 906.125 381.875 L 906.125 381.875 L 906.125 381.875 Q 909.23 384.75 909.23 389.58 L 909.23 389.58 L 909.23 447.08 L 909.23 447.08 Q 914.98 437.42 924.64 432.36 L 924.64 432.36 L 924.64 432.36 Q 934.3 427.3 946.72 427.3 L 946.72 427.3 Z " fill="rgb(61,145,249)" vector-effect="non-scaling-stroke" stroke-width="10" stroke="rgb(61,145,249)" stroke-linejoin="miter" stroke-linecap="square" stroke-miterlimit="3"/></svg>