<?xml version="1.0" encoding="iso-8859-1"?>
<!-- Generator: Adobe Illustrator 19.0.0, SVG Export Plug-In . SVG Version: 6.00 Build 0)  -->
<svg version="1.1" id="Capa_1" xmlns="http://www.w3.org/2000/svg" xmlns:xlink="http://www.w3.org/1999/xlink" x="0px" y="0px"
	 viewBox="0 0 512 512" style="enable-background:new 0 0 512 512;" xml:space="preserve">
<g>
	<g>
		<path d="M487.619,41.142H24.381C10.978,41.142,0,52.114,0,65.523v323.048c0,13.409,10.978,24.381,24.381,24.381h176.762v39.619
			h-48.762c-5.047,0-9.143,4.09-9.143,9.143c0,5.047,4.096,9.143,9.143,9.143h213.334c5.047,0,9.143-4.096,9.143-9.143
			c0-5.053-4.096-9.143-9.143-9.143h-54.857v-39.619h176.762c13.416,0,24.381-10.971,24.381-24.381V65.523
			C512,52.114,501.034,41.142,487.619,41.142z M18.286,65.523c0-3.303,2.797-6.095,6.095-6.095H487.62
			c3.31,0,6.095,2.792,6.095,6.095v259.048H18.286V65.523z M292.571,452.571h-73.143v-39.619h73.143V452.571z M493.715,388.572
			c0,3.303-2.786,6.095-6.096,6.095H24.381c-3.298,0-6.095-2.792-6.095-6.095v-45.714h475.429V388.572z"/>
	</g>
</g>
<g>
	<g>
		<path d="M294.412,164.339c-3.535-3.609-9.319-3.664-12.928-0.128l-26.515,25.985l-38.985-36.535
			c-3.681-3.45-9.466-3.267-12.916,0.421c-3.45,3.681-3.274,9.472,0.414,12.922l45.387,42.527c3.584,3.358,9.143,3.298,12.653-0.14
			l32.762-32.122C297.893,173.732,297.953,167.941,294.412,164.339z"/>
	</g>
</g>
<g>
	<g>
		<path d="M256,99.047c-52.182,0.007-94.464,42.295-94.476,94.476c0.012,52.18,42.295,94.47,94.476,94.476
			c52.182-0.007,94.476-42.296,94.476-94.476S308.182,99.054,256,99.047z M309.882,247.4c-13.824,13.8-32.811,22.309-53.882,22.314
			c-21.071-0.007-40.058-8.515-53.869-22.314c-13.812-13.818-22.309-32.805-22.321-53.876c0.012-21.071,8.509-40.058,22.321-53.876
			c13.812-13.805,32.798-22.309,53.869-22.314c21.071,0.007,40.058,8.509,53.882,22.314c13.8,13.818,22.309,32.805,22.309,53.876
			S323.682,233.582,309.882,247.4z"/>
	</g>
</g>
<g>
</g>
<g>
</g>
<g>
</g>
<g>
</g>
<g>
</g>
<g>
</g>
<g>
</g>
<g>
</g>
<g>
</g>
<g>
</g>
<g>
</g>
<g>
</g>
<g>
</g>
<g>
</g>
<g>
</g>
</svg>
