<?xml version="1.0" standalone="no"?><!-- Generator: Gravit.io --><svg xmlns="http://www.w3.org/2000/svg" xmlns:xlink="http://www.w3.org/1999/xlink" style="isolation:isolate" viewBox="0 0 512 512" width="512" height="512"><g><g><path d=" M 485.052 48.842 L 400.841 48.842 L 400.841 15.158 C 400.841 9.573 396.314 5.053 390.736 5.053 C 385.158 5.053 380.631 9.573 380.631 15.158 L 380.631 48.842 L 131.369 48.842 L 131.369 15.158 C 131.369 9.573 126.842 5.053 121.264 5.053 C 115.686 5.053 111.159 9.573 111.159 15.158 L 111.159 48.842 L 26.949 48.842 C 12.126 48.842 0 60.968 0 75.79 L 0 480 C 0 494.82 12.126 506.948 26.948 506.948 L 485.053 506.948 C 499.873 506.948 512 494.822 512 480 L 512 75.79 C 512 60.968 499.873 48.842 485.052 48.842 Z  M 491.789 480 C 491.789 483.651 488.703 486.737 485.052 486.737 L 26.948 486.737 C 23.297 486.737 20.211 483.651 20.211 480 L 20.211 166.736 L 491.789 166.736 L 491.789 480 L 491.789 480 Z  M 491.789 146.526 L 20.211 146.526 L 20.211 75.79 C 20.211 72.139 23.297 69.053 26.948 69.053 L 111.158 69.053 L 111.158 102.737 C 111.158 108.315 115.685 112.842 121.263 112.842 C 126.841 112.842 131.368 108.315 131.368 102.737 L 131.368 69.052 L 380.631 69.052 L 380.631 102.737 C 380.631 108.315 385.158 112.842 390.736 112.842 C 396.314 112.842 400.841 108.315 400.841 102.737 L 400.841 69.052 L 485.051 69.052 C 488.702 69.052 491.788 72.138 491.788 75.789 L 491.788 146.526 L 491.789 146.526 Z " fill="rgb(135,187,251)"/></g></g><g><g><path d=" M 255.999 207.157 C 190.881 207.164 138.111 259.933 138.105 325.051 C 138.112 390.169 190.881 442.939 255.999 442.945 C 321.117 442.938 373.887 390.169 373.893 325.051 C 373.888 259.934 321.118 207.164 255.999 207.157 Z  M 325.072 394.125 C 307.361 411.816 283.007 422.73 255.999 422.736 C 228.991 422.729 204.63 411.816 186.926 394.125 C 169.228 376.414 158.321 352.06 158.315 325.052 C 158.322 298.044 169.229 273.683 186.926 255.979 C 204.63 238.288 228.991 227.374 255.999 227.368 C 283.007 227.375 307.36 238.288 325.072 255.979 C 342.763 273.683 353.677 298.044 353.683 325.052 C 353.677 352.061 342.764 376.414 325.072 394.125 Z " fill="rgb(135,187,251)"/></g></g><g><g><path d=" M 304.107 289.184 C 300.193 285.197 293.801 285.129 289.819 289.036 L 255.34 322.828 L 205.083 275.731 C 201.014 271.918 194.614 272.12 190.801 276.196 C 186.988 280.265 187.19 286.665 191.266 290.478 L 248.583 344.197 C 252.544 347.908 258.695 347.842 262.568 344.042 L 303.966 303.472 C 307.954 299.566 308.021 293.173 304.107 289.184 Z " fill="rgb(135,187,251)"/></g></g></svg>