<?xml version="1.0" encoding="UTF-8" standalone="no"?><!-- Generator: Gravit.io --><svg xmlns="http://www.w3.org/2000/svg" xmlns:xlink="http://www.w3.org/1999/xlink" style="isolation:isolate" viewBox="0 0 54 61" width="54pt" height="61pt"><defs><clipPath id="_clipPath_1IRGXrgrb7tZum1WmAHzsMBhYUeBrXrp"><rect width="54" height="61"/></clipPath></defs><g clip-path="url(#_clipPath_1IRGXrgrb7tZum1WmAHzsMBhYUeBrXrp)"><path d=" M 3.434 24 L 50.566 24 L 53.214 19.587 C 53.529 19.059 53.537 18.402 53.234 17.867 C 52.931 17.332 52.364 17.001 51.749 17 L 50.899 17 C 50.42 14.674 48.375 13.004 46 13 C 44.563 12.996 43.196 13.618 42.254 14.704 C 41.048 13.875 39.368 13.786 38.087 14.496 C 37.078 12.942 35.353 12.003 33.5 12 C 31.647 12.003 29.922 12.942 28.913 14.496 C 27.933 13.963 26.774 13.861 25.716 14.215 C 24.944 11.706 22.625 9.996 20 10 C 17.729 10 15.678 11.307 14.671 13.288 C 14.135 13.097 13.569 13 13 13 C 11.563 12.996 10.196 13.618 9.254 14.704 C 8.591 14.247 7.805 14.002 7 14 C 5.141 14 3.589 15.279 3.142 17 L 2.251 17 C 1.636 17.001 1.068 17.332 0.765 17.868 C 0.462 18.403 0.47 19.06 0.786 19.588 L 3.434 24 Z  M 43.32 16.685 C 43.815 15.655 44.857 15 46 15 C 47.304 15 48.416 15.836 48.829 17 L 43.166 17 L 43.32 16.685 Z  M 38.496 16.701 C 39.319 15.748 40.882 15.827 41.614 16.832 L 41.736 17 L 38.238 17 L 38.496 16.701 Z  M 30.207 16.372 C 30.685 14.959 32.008 14.006 33.5 14 C 34.983 14 36.307 14.953 36.793 16.372 L 37.009 17 L 29.991 17 L 30.207 16.372 Z  M 25.655 16.532 C 26.054 16.174 26.58 15.991 27.115 16.023 C 27.65 16.054 28.15 16.299 28.504 16.701 L 28.762 17 L 25.147 17 L 25.655 16.532 Z  M 10.32 16.685 C 10.693 15.909 11.384 15.332 12.214 15.105 C 13.045 14.877 13.933 15.02 14.65 15.498 L 15.798 16.259 L 16.166 14.934 C 16.648 13.206 18.224 12 20 12 C 22.143 12 23.902 13.695 23.981 15.837 L 24.028 17 L 10.166 17 L 10.32 16.685 Z  M 7 16 C 7.642 16 8.229 16.304 8.614 16.832 L 8.736 17 L 5.269 17 C 5.614 16.402 6.261 16 7 16 Z  M 40 8 C 42.206 8 44 6.206 44 4 C 44 1.794 42.206 0 40 0 C 37.794 0 36 1.794 36 4 C 36 6.206 37.794 8 40 8 Z  M 9 8 C 11.206 8 13 6.206 13 4 C 13 1.794 11.206 0 9 0 C 6.794 0 5 1.794 5 4 C 5 6.206 6.794 8 9 8 Z " fill-rule="evenodd" fill="rgb(255,255,255)"/><path d=" M 30.5 12 C 32.43 12 34 10.43 34 8.5 C 34 6.57 32.43 5 30.5 5 C 28.57 5 27 6.57 27 8.5 C 27 10.43 28.57 12 30.5 12 Z  M 19.5 9 C 21.43 9 23 7.43 23 5.5 C 23 3.57 21.43 2 19.5 2 C 17.57 2 16 3.57 16 5.5 C 16 7.43 17.57 9 19.5 9 Z  M 9.725 52.338 L 9.019 51.689 L 5.879 54.828 C 4.709 56.001 4.709 57.899 5.879 59.072 C 6.446 59.638 7.199 59.949 8 59.949 C 8.801 59.949 9.554 59.638 10.121 59.071 L 13.787 55.405 L 12.771 54.729 C 11.695 54.012 10.677 53.213 9.725 52.338 M 45.457 51.215 L 44.75 51.898 C 43.822 52.794 42.826 53.616 41.771 54.358 L 40.801 55.043 L 44.828 59.072 C 45.396 59.638 46.148 59.949 46.949 59.949 C 47.751 59.949 48.504 59.638 49.072 59.071 C 50.24 57.898 50.24 56.001 49.071 54.828 L 45.457 51.215 Z " fill-rule="evenodd" fill="rgb(255,255,255)"/><path d=" M 44.75 54.828 L 48.174 51.103 C 51.817 46.671 54 41.078 54 35 C 54 31.056 52.336 26.533 50.566 23 L 50 23 L 3.434 23 L 3.142 23 C 1.373 26.533 0 31.056 0 35 C 0 41.317 2.353 47.112 6.257 51.622 L 9 54.729 L 9.725 55.405 L 14.156 57.865 C 18.121 59.933 22.528 61.009 27 61 C 31.898 61 36.491 59.731 40.455 57.527 L 44.828 54.729 L 44.75 54.828 Z  M 26 54 C 16.075 54 8 45.925 8 36 C 8 35.448 8.448 35 9 35 C 9.552 35 10 35.448 10 36 C 10 44.822 17.178 52 26 52 C 26.552 52 27 52.448 27 53 C 27 53.552 26.552 54 26 54 Z " fill-rule="evenodd" fill="rgb(255,255,255)"/></g></svg>