<?xml version="1.0" standalone="no"?><!-- Generator: Gravit.io --><svg xmlns="http://www.w3.org/2000/svg" xmlns:xlink="http://www.w3.org/1999/xlink" style="isolation:isolate" viewBox="0 0 511 511" width="511" height="511"><defs><clipPath id="_clipPath_S5Jmzbbutt7uKf9GQge2wwxErYxOO7Uv"><rect width="511" height="511"/></clipPath></defs><g clip-path="url(#_clipPath_S5Jmzbbutt7uKf9GQge2wwxErYxOO7Uv)"><path d=" M 432.154 251.152 C 432.154 370.489 335.414 467.229 216.077 467.229 C 96.74 467.229 0 370.489 0 251.152 C 0 131.815 96.74 35.075 216.077 35.075 C 335.414 35.075 432.154 131.815 432.154 251.152 Z " fill="rgb(99,128,210)"/><path d=" M 216.077 417.701 C 124.241 417.701 49.532 342.988 49.532 251.152 C 49.532 159.32 124.241 84.607 216.077 84.607 C 307.913 84.607 382.626 159.32 382.626 251.152 C 382.626 342.988 307.913 417.701 216.077 417.701 Z " fill="rgb(127,154,226)"/><path d=" M 211.145 329.401 C 184.627 328.742 164.682 314.497 164.682 302.224 C 164.682 296.084 170.159 286.879 176.955 286.879 C 185.282 286.879 191.859 301.125 211.145 303.316 L 211.145 259.702 C 191.2 252.251 168.627 243.702 168.627 215.647 C 168.627 187.811 189.231 175.757 211.145 172.907 L 211.145 166.77 C 211.145 163.92 214.436 161.289 218.6 161.289 C 222.323 161.289 226.05 163.92 226.05 166.77 L 226.05 172.47 C 240.295 172.907 263.527 177.07 263.527 189.784 C 263.527 194.825 260.023 204.907 251.913 204.907 C 245.773 204.907 240.732 197.893 226.05 196.797 L 226.05 235.37 C 245.555 242.606 267.473 252.466 267.473 282.275 C 267.473 309.234 250.596 324.797 226.05 328.739 L 226.05 335.534 C 226.05 338.384 222.323 341.015 218.596 341.015 C 214.432 341.015 211.145 338.384 211.145 335.534 L 211.145 329.401 Z  M 212.9 230.552 L 212.9 197.452 C 201.941 199.207 195.364 204.466 195.364 212.797 C 195.364 222.443 202.818 226.606 212.9 230.552 Z  M 224.296 264.961 L 224.296 303.097 C 233.941 301.125 240.736 295.429 240.736 285.125 C 240.736 274.384 233.719 269.125 224.296 264.961 Z " fill="rgb(255,255,255)"/><g><path d=" M 382.156 251.154 C 382.156 342.876 307.802 417.231 216.079 417.231 C 124.353 417.231 49.999 342.876 49.999 251.154 C 49.999 159.428 124.353 85.074 216.079 85.074 C 307.802 85.074 382.156 159.428 382.156 251.154 Z " fill="rgb(127,154,226)"/><path d=" M 76.084 251.154 C 76.084 163.819 143.495 92.232 229.122 85.582 C 224.816 85.245 220.467 85.074 216.079 85.074 C 124.353 85.074 49.999 159.428 49.999 251.154 C 49.999 342.876 124.353 417.231 216.079 417.231 C 220.467 417.231 224.816 417.059 229.122 416.725 C 143.495 410.072 76.084 338.485 76.084 251.154 L 76.084 251.154 Z " fill="rgb(99,128,210)"/><path d=" M 432.798 251.893 C 432.029 371.224 334.667 467.345 215.333 466.576 L 201.877 440.837 L 215.663 415.537 C 306.804 416.121 381.172 342.708 381.76 251.566 L 408.407 236.374 L 432.798 251.893 Z " fill="rgb(232,115,139)"/><path d=" M 216.079 35.075 C 96.745 35.075 0 131.82 0 251.154 L 26.231 265.933 L 51.042 251.154 C 51.042 160.009 124.934 86.117 216.079 86.117 L 232.163 64.205 L 216.079 35.075 Z " fill="rgb(245,226,119)"/><path d=" M 432.154 251.154 L 381.112 251.154 C 381.112 160.009 307.22 86.117 216.079 86.117 L 216.079 35.075 C 335.413 35.075 432.154 131.82 432.154 251.154 Z " fill="rgb(177,226,253)"/><path d=" M 216.079 416.187 L 216.079 467.229 C 96.745 467.229 0 370.488 0 251.154 L 51.042 251.154 C 51.042 342.295 124.934 416.187 216.079 416.187 Z " fill="rgb(0,204,172)"/></g><path d=" M 294.011 366.54 L 370.183 484.465 C 376.966 494.968 388.615 501.311 401.118 501.311 C 413.621 501.311 425.274 494.968 432.058 484.465 L 508.229 366.54 C 515.597 355.132 507.406 340.091 493.824 340.091 L 455.028 340.091 L 455.028 27.933 C 455.028 19.683 448.342 12.997 440.093 12.997 L 362.144 12.997 C 353.894 12.997 347.208 19.683 347.208 27.933 L 347.208 340.091 L 308.413 340.091 C 294.83 340.091 286.643 355.132 294.011 366.54 L 294.011 366.54 Z " fill="rgb(118,230,213)"/><path d=" M 231.129 213.414 L 231.129 213.414 Q 268.749 213.414 268.749 258.954 L 268.749 258.954 L 268.749 309.774 L 268.749 309.774 Q 268.749 317.034 264.239 321.214 L 264.239 321.214 L 264.239 321.214 Q 259.729 325.394 252.029 325.394 L 252.029 325.394 L 252.029 325.394 Q 244.329 325.394 239.929 321.214 L 239.929 321.214 L 239.929 321.214 Q 235.529 317.034 235.529 309.774 L 235.529 309.774 L 235.529 258.514 L 235.529 258.514 Q 235.529 248.834 231.459 244.104 L 231.459 244.104 L 231.459 244.104 Q 227.389 239.374 218.809 239.374 L 218.809 239.374 L 218.809 239.374 Q 208.469 239.374 202.199 245.974 L 202.199 245.974 L 202.199 245.974 Q 195.929 252.574 195.929 263.574 L 195.929 263.574 L 195.929 309.774 L 195.929 309.774 Q 195.929 317.034 191.529 321.214 L 191.529 321.214 L 191.529 321.214 Q 187.129 325.394 179.429 325.394 L 179.429 325.394 L 179.429 325.394 Q 171.729 325.394 167.219 321.214 L 167.219 321.214 L 167.219 321.214 Q 162.709 317.034 162.709 309.774 L 162.709 309.774 L 162.709 183.054 L 162.709 183.054 Q 162.709 176.234 167.439 172.054 L 167.439 172.054 L 167.439 172.054 Q 172.169 167.874 179.869 167.874 L 179.869 167.874 L 179.869 167.874 Q 187.129 167.874 191.529 171.834 L 191.529 171.834 L 191.529 171.834 Q 195.929 175.794 195.929 182.394 L 195.929 182.394 L 195.929 230.354 L 195.929 230.354 Q 201.649 221.994 210.669 217.704 L 210.669 217.704 L 210.669 217.704 Q 219.689 213.414 231.129 213.414 L 231.129 213.414 L 231.129 213.414 Z " fill="rgb(255,255,255)"/></g></svg>