<?xml version="1.0" encoding="UTF-8" standalone="no"?>
<!DOCTYPE svg PUBLIC "-//W3C//DTD SVG 1.1//EN" "http://www.w3.org/Graphics/SVG/1.1/DTD/svg11.dtd">
<svg version="1.1" xmlns="http://www.w3.org/2000/svg" xmlns:xlink="http://www.w3.org/1999/xlink" preserveAspectRatio="xMidYMid meet" viewBox="29.252100840336254 23.050420168067717 644.0012500024413 637.560634120855" width="640" height="631.56"><defs><path d="M139.85 378.82L141 378.94L142.14 379.1L143.26 379.31L144.37 379.56L145.46 379.86L146.53 380.19L147.58 380.57L148.62 380.98L149.63 381.44L150.63 381.93L151.6 382.46L152.55 383.03L153.48 383.63L154.38 384.26L155.25 384.93L156.1 385.63L156.92 386.37L157.71 387.13L158.48 387.92L159.21 388.74L159.91 389.59L160.58 390.47L161.21 391.37L161.82 392.29L162.38 393.24L162.91 394.21L163.4 395.21L163.86 396.22L164.28 397.26L164.65 398.31L164.99 399.39L165.28 400.48L165.53 401.58L165.74 402.71L165.9 403.84L166.02 404.99L166.09 406.16L166.12 407.33L166.12 430L167.14 429.72L168.2 429.43L169.31 429.13L170.44 428.82L171.62 428.51L172.82 428.18L174.06 427.85L175.33 427.51L176.62 427.16L177.94 426.81L179.29 426.45L180.66 426.08L182.06 425.71L183.48 425.33L184.91 424.95L186.36 424.57L187.84 424.18L189.32 423.79L190.82 423.4L192.33 423L193.85 422.61L195.38 422.21L196.92 421.81L198.46 421.42L200.01 421.02L201.56 420.62L203.11 420.22L204.67 419.83L206.22 419.44L207.77 419.05L209.31 418.66L210.85 418.28L212.38 417.9L213.9 417.53L215.41 417.16L216.9 416.79L218.39 416.43L219.86 416.08L221.31 415.74L222.74 415.4L223.44 415.24L224.13 415.07L224.81 414.92L225.49 414.76L226.16 414.6L226.83 414.45L227.49 414.3L228.14 414.15L228.79 414.01L229.43 413.86L230.07 413.72L230.7 413.58L231.33 413.44L231.94 413.31L232.56 413.18L233.16 413.05L233.76 412.92L234.35 412.8L234.93 412.67L235.51 412.56L236.08 412.44L236.64 412.33L237.2 412.21L237.75 412.11L238.29 412L238.82 411.9L239.35 411.8L239.87 411.7L240.38 411.61L240.88 411.52L241.38 411.43L241.86 411.35L242.34 411.27L242.81 411.19L243.28 411.12L243.73 411.05L244.18 410.98L244.61 410.92L245.04 410.86L245.46 410.8L245.58 410.79L245.69 410.77L245.8 410.76L245.91 410.75L246.02 410.73L246.14 410.72L246.25 410.71L246.36 410.7L246.47 410.68L246.57 410.67L246.68 410.66L246.79 410.65L246.9 410.64L247.01 410.63L247.12 410.62L247.22 410.61L247.33 410.6L247.44 410.59L247.55 410.58L247.66 410.57L247.76 410.56L247.87 410.55L247.98 410.54L248.09 410.54L248.19 410.53L248.3 410.52L248.41 410.52L248.52 410.51L248.63 410.51L248.74 410.5L248.85 410.5L248.96 410.49L249.07 410.49L249.18 410.48L249.3 410.48L249.41 410.48L249.52 410.48L249.64 410.47L249.75 410.47L249.87 410.47L250.02 410.47L250.16 410.47L250.31 410.48L250.46 410.48L250.61 410.48L250.75 410.49L250.9 410.49L251.04 410.5L251.19 410.51L251.33 410.52L251.48 410.52L251.62 410.53L251.77 410.54L251.91 410.55L252.05 410.56L252.2 410.58L252.34 410.59L252.48 410.6L252.63 410.61L252.77 410.63L252.91 410.64L253.06 410.66L253.2 410.67L253.35 410.69L253.49 410.71L253.64 410.72L253.79 410.74L253.93 410.76L254.08 410.78L254.23 410.8L254.38 410.82L254.53 410.84L254.68 410.86L254.83 410.88L254.98 410.9L255.14 410.92L255.29 410.95L255.45 410.97L255.61 410.99L255.77 411.02L255.92 411.04L256.08 411.06L256.24 411.09L256.4 411.12L256.56 411.14L256.73 411.17L256.89 411.19L257.05 411.22L257.22 411.25L257.39 411.28L257.55 411.31L257.72 411.34L257.89 411.36L258.06 411.39L258.24 411.43L258.41 411.46L258.58 411.49L258.76 411.52L258.93 411.55L259.11 411.58L259.29 411.62L259.47 411.65L259.65 411.68L259.83 411.72L260.01 411.75L260.2 411.79L260.38 411.82L260.57 411.86L260.75 411.89L260.94 411.93L261.13 411.97L261.32 412.01L261.51 412.04L261.7 412.08L261.9 412.12L262.09 412.16L262.29 412.2L262.48 412.24L262.68 412.28L262.88 412.32L263.28 412.41L263.68 412.49L264.09 412.58L264.51 412.66L264.93 412.75L265.35 412.84L265.77 412.94L266.2 413.03L266.64 413.13L267.08 413.22L267.52 413.32L267.97 413.42L268.42 413.53L268.88 413.63L269.34 413.74L269.8 413.84L270.27 413.95L270.74 414.06L271.22 414.17L271.7 414.28L272.18 414.4L272.67 414.51L273.16 414.63L273.66 414.75L274.16 414.87L274.66 414.99L275.17 415.11L275.68 415.24L276.19 415.36L276.71 415.49L277.24 415.62L277.76 415.75L278.29 415.88L278.82 416.01L279.36 416.14L279.9 416.28L280.45 416.41L280.99 416.55L281.55 416.69L282.1 416.83L283.22 417.11L284.35 417.4L285.5 417.69L286.66 417.99L287.83 418.29L289.01 418.6L290.2 418.91L291.41 419.22L292.63 419.54L293.86 419.87L295.1 420.2L296.35 420.53L297.62 420.86L298.89 421.2L300.17 421.55L301.46 421.89L302.76 422.24L304.07 422.6L305.39 422.96L306.72 423.32L308.06 423.68L309.4 424.05L310.75 424.42L312.11 424.79L313.48 425.17L314.85 425.55L316.23 425.93L317.62 426.31L319.01 426.7L320.41 427.09L321.81 427.48L323.22 427.87L324.63 428.27L326.05 428.67L327.47 429.07L328.9 429.47L330.33 429.87L331.77 430.28L333.2 430.69L334.65 431.09L336.01 431.48L337.38 431.87L338.76 432.26L340.13 432.65L341.51 433.05L342.88 433.44L344.26 433.84L345.64 434.23L347.02 434.63L348.4 435.02L349.78 435.42L351.15 435.82L352.53 436.21L353.91 436.61L355.29 437.01L356.66 437.41L358.04 437.81L359.41 438.2L360.78 438.6L362.15 439L363.52 439.4L364.88 439.79L366.24 440.19L367.6 440.59L368.95 440.98L370.31 441.38L371.65 441.77L373 442.16L374.34 442.56L375.67 442.95L377 443.34L378.33 443.73L379.65 444.11L380.96 444.5L382.27 444.89L383.58 445.27L384.87 445.65L386.16 446.03L387.45 446.41L388.73 446.79L463.96 400.71L464.75 400.27L465.22 400.03L465.7 399.8L466.18 399.57L466.66 399.35L467.15 399.13L467.64 398.92L468.14 398.71L468.64 398.51L469.14 398.31L469.65 398.11L470.16 397.92L470.67 397.74L471.19 397.56L471.71 397.38L472.23 397.21L472.76 397.05L473.29 396.89L473.82 396.74L474.36 396.59L474.9 396.45L475.44 396.31L475.99 396.18L476.54 396.06L477.09 395.94L477.64 395.83L478.2 395.73L478.76 395.63L479.32 395.54L479.89 395.45L480.46 395.38L481.03 395.31L481.61 395.24L482.18 395.18L482.76 395.14L483.35 395.09L483.93 395.06L484.52 395.03L485.11 395.01L485.7 395L486.3 395L487.41 395.01L488.51 395.05L489.6 395.11L490.69 395.2L491.77 395.31L492.84 395.45L493.91 395.6L494.97 395.79L496.01 395.99L497.06 396.22L498.09 396.47L499.11 396.74L500.13 397.04L501.13 397.36L502.13 397.69L503.11 398.05L504.09 398.43L505.05 398.83L506.01 399.25L506.95 399.7L507.88 400.16L508.8 400.64L509.71 401.13L510.61 401.65L511.49 402.19L512.36 402.75L513.22 403.32L514.07 403.91L514.9 404.52L515.72 405.14L516.52 405.79L517.32 406.45L518.09 407.12L518.85 407.81L519.6 408.52L520.33 409.24L521.05 409.98L521.75 410.74L522.44 411.51L523.1 412.29L542.75 400.63L543.41 400.27L543.89 400.03L544.36 399.8L544.84 399.57L545.33 399.35L545.82 399.13L546.31 398.92L546.8 398.71L547.3 398.51L547.81 398.31L548.31 398.11L548.82 397.92L549.34 397.74L549.85 397.56L550.37 397.38L550.9 397.21L551.42 397.05L551.95 396.89L552.49 396.74L553.02 396.59L553.56 396.45L554.11 396.31L554.65 396.18L555.2 396.06L555.75 395.94L556.31 395.83L556.87 395.73L557.43 395.63L557.99 395.54L558.56 395.45L559.13 395.38L559.7 395.31L560.27 395.24L560.85 395.18L561.43 395.14L562.01 395.09L562.6 395.06L563.19 395.03L563.78 395.01L564.37 395L564.96 395L566.12 395.01L567.26 395.05L568.4 395.12L569.53 395.22L570.65 395.34L571.76 395.48L572.87 395.65L573.96 395.85L575.05 396.07L576.13 396.32L577.2 396.59L578.26 396.88L579.31 397.2L580.35 397.54L581.38 397.9L582.4 398.29L583.4 398.7L584.4 399.13L585.38 399.58L586.35 400.06L587.31 400.55L588.26 401.07L589.19 401.6L590.11 402.16L591.02 402.73L591.91 403.33L592.79 403.94L593.66 404.58L594.51 405.23L595.34 405.9L596.16 406.59L596.96 407.29L597.75 408.02L598.52 408.76L599.28 409.51L600.02 410.29L600.74 411.08L601.44 411.88L602.13 412.7L602.8 413.54L603.23 413.35L603.67 413.16L604.11 412.97L604.56 412.79L605 412.61L605.45 412.43L605.9 412.26L606.36 412.09L606.81 411.93L607.27 411.77L607.74 411.61L608.2 411.46L608.67 411.31L609.14 411.17L609.61 411.03L610.08 410.9L610.56 410.77L611.04 410.64L611.52 410.52L612.01 410.41L612.49 410.3L612.98 410.19L613.47 410.09L613.97 409.99L614.46 409.9L614.96 409.82L615.46 409.74L615.96 409.66L616.47 409.59L616.98 409.53L617.49 409.47L618 409.42L618.51 409.37L619.03 409.33L619.55 409.3L620.07 409.27L620.59 409.25L621.12 409.23L621.64 409.22L622.17 409.22L624.15 409.26L626.11 409.38L628.05 409.58L629.97 409.85L631.86 410.2L633.73 410.62L635.56 411.12L637.37 411.68L639.14 412.31L640.88 413.01L642.59 413.77L644.26 414.6L645.9 415.48L647.49 416.43L649.05 417.44L650.56 418.51L652.03 419.63L653.46 420.8L654.83 422.03L656.16 423.31L657.44 424.64L658.67 426.02L659.85 427.45L660.97 428.92L662.03 430.43L663.04 431.99L663.99 433.58L664.88 435.22L665.7 436.89L666.47 438.6L667.16 440.34L667.79 442.11L668.36 443.92L668.85 445.76L669.27 447.62L669.62 449.51L669.89 451.43L670.09 453.37L670.21 455.33L670.25 457.31L670.24 458.47L670.2 459.62L670.14 460.77L670.04 461.92L669.93 463.06L669.78 464.19L669.61 465.32L669.42 466.44L669.2 467.56L668.96 468.67L668.69 469.77L668.39 470.86L668.07 471.94L667.73 473.01L667.36 474.07L666.97 475.13L666.55 476.17L666.11 477.2L665.65 478.22L665.16 479.22L664.65 480.22L664.11 481.2L663.56 482.16L662.97 483.12L662.37 484.05L661.74 484.97L661.09 485.88L660.42 486.77L659.73 487.65L659.01 488.5L658.27 489.34L657.51 490.16L656.73 490.97L655.93 491.75L655.1 492.51L654.26 493.26L653.39 493.98L652.5 494.68L651.59 495.37L650.66 496.02L649.12 497.09L647.5 498.21L645.81 499.38L644.04 500.6L642.2 501.88L640.3 503.2L638.32 504.57L636.28 505.99L634.17 507.45L632 508.96L629.77 510.51L627.48 512.1L625.13 513.74L622.73 515.41L620.27 517.11L617.76 518.86L615.19 520.63L612.58 522.44L609.92 524.28L607.22 526.16L604.46 528.06L601.67 529.99L598.84 531.94L595.96 533.92L593.05 535.92L590.1 537.95L587.12 539.99L584.11 542.05L581.06 544.14L577.99 546.24L574.88 548.35L571.76 550.48L568.6 552.62L565.43 554.77L562.24 556.93L559.02 559.1L555.79 561.27L552.54 563.45L549.28 565.64L546.01 567.82L542.72 570.02L539.42 572.21L536.12 574.4L532.81 576.59L529.49 578.77L526.18 580.95L522.86 583.12L519.55 585.28L516.23 587.43L512.93 589.58L509.63 591.71L506.33 593.82L503.04 595.93L499.77 598.01L496.51 600.08L493.26 602.13L490.02 604.16L486.81 606.17L483.61 608.16L480.43 610.12L477.27 612.06L474.14 613.97L471.03 615.86L467.94 617.71L464.89 619.53L461.86 621.32L458.87 623.08L455.9 624.81L452.97 626.5L450.08 628.15L447.22 629.76L444.41 631.33L441.63 632.87L438.89 634.35L436.2 635.8L433.56 637.2L430.96 638.56L428.4 639.86L425.9 641.12L423.45 642.33L422.76 642.66L422.07 643L421.38 643.33L420.7 643.65L420.02 643.97L419.35 644.28L418.68 644.59L418.02 644.9L417.36 645.2L416.7 645.5L416.05 645.8L415.4 646.08L414.76 646.37L414.12 646.65L413.49 646.92L412.86 647.2L412.23 647.46L411.61 647.72L410.99 647.98L410.38 648.23L409.77 648.48L409.16 648.72L408.56 648.96L407.96 649.2L407.36 649.42L406.77 649.65L406.19 649.87L405.61 650.08L405.03 650.29L404.45 650.5L403.88 650.7L403.32 650.89L402.75 651.08L402.19 651.26L401.64 651.44L401.09 651.62L400.54 651.79L399.99 651.95L399.45 652.11L398.92 652.26L398.63 652.34L398.35 652.42L398.06 652.49L397.78 652.57L397.49 652.64L397.21 652.71L396.93 652.78L396.65 652.85L396.37 652.92L396.09 652.98L395.81 653.05L395.53 653.11L395.25 653.17L394.98 653.23L394.7 653.29L394.42 653.34L394.15 653.39L393.87 653.45L393.6 653.5L393.32 653.54L393.05 653.59L392.77 653.63L392.5 653.67L392.22 653.71L391.95 653.75L391.67 653.79L391.4 653.82L391.12 653.85L390.85 653.88L390.57 653.91L390.3 653.93L390.02 653.95L389.74 653.97L389.47 653.99L389.19 654.01L388.91 654.02L388.63 654.03L388.35 654.04L388.07 654.04L387.79 654.04L387.43 654.04L387.06 654.03L386.68 654.02L386.3 654.01L385.92 654L385.52 653.98L385.12 653.96L384.72 653.94L384.31 653.92L383.89 653.89L383.47 653.86L383.04 653.83L382.6 653.79L382.16 653.76L381.71 653.72L381.25 653.67L380.79 653.63L380.32 653.58L379.85 653.54L379.36 653.49L378.88 653.43L378.38 653.38L377.88 653.32L377.37 653.26L376.85 653.2L376.32 653.13L375.79 653.07L375.25 653L374.71 652.93L374.15 652.86L373.59 652.78L373.02 652.71L372.45 652.63L371.86 652.55L371.27 652.47L370.67 652.39L370.06 652.3L369.45 652.21L368.82 652.12L368.19 652.03L367.56 651.94L366.92 651.84L366.27 651.75L365.62 651.65L364.95 651.55L364.29 651.45L363.61 651.34L362.93 651.23L362.24 651.13L361.55 651.02L360.85 650.91L360.14 650.79L359.43 650.68L358.71 650.56L357.99 650.44L357.26 650.32L356.52 650.2L355.78 650.08L355.03 649.95L354.27 649.83L353.51 649.7L352.75 649.57L351.98 649.44L351.2 649.31L350.42 649.17L349.63 649.04L348.84 648.9L348.04 648.76L347.23 648.62L346.42 648.48L345.61 648.33L344.79 648.19L343.96 648.04L343.14 647.9L342.3 647.75L341.46 647.6L340.62 647.45L339.77 647.29L338.92 647.14L338.06 646.98L336.33 646.67L334.58 646.35L332.82 646.02L331.04 645.7L329.24 645.36L327.43 645.02L325.6 644.68L323.76 644.33L321.91 643.98L320.04 643.63L318.16 643.27L316.27 642.91L314.36 642.54L312.45 642.17L310.52 641.8L308.59 641.43L306.64 641.05L304.69 640.66L302.72 640.28L300.75 639.89L298.77 639.5L296.79 639.11L294.8 638.72L292.8 638.32L290.8 637.92L288.79 637.52L286.78 637.12L284.76 636.72L282.74 636.31L280.72 635.9L278.7 635.5L276.68 635.09L274.65 634.68L272.62 634.27L270.6 633.85L268.57 633.44L266.55 633.03L264.53 632.62L262.51 632.2L260.49 631.79L257.52 631.18L254.55 630.57L251.6 629.96L248.66 629.35L245.73 628.74L242.82 628.13L239.93 627.53L237.05 626.93L234.2 626.33L231.38 625.74L228.57 625.15L225.8 624.57L223.05 623.99L220.34 623.42L217.65 622.85L215 622.29L212.39 621.74L209.81 621.19L207.27 620.65L204.78 620.12L202.32 619.6L199.91 619.08L197.55 618.58L195.23 618.08L192.97 617.59L190.75 617.12L188.59 616.66L186.48 616.2L184.43 615.76L182.44 615.33L180.51 614.92L178.64 614.51L176.83 614.12L175.09 613.74L173.42 613.38L171.81 613.03L170.28 612.7L168.82 612.38L167.43 612.08L166.12 611.8L166.12 629.01L166.09 630.18L166.02 631.34L165.9 632.49L165.74 633.63L165.53 634.75L165.28 635.86L164.99 636.95L164.65 638.02L164.28 639.08L163.86 640.11L163.41 641.13L162.91 642.12L162.38 643.1L161.82 644.05L161.21 644.97L160.58 645.87L159.91 646.75L159.21 647.6L158.48 648.42L157.71 649.21L156.92 649.97L156.1 650.7L155.25 651.4L154.38 652.07L153.48 652.71L152.55 653.31L151.6 653.88L150.63 654.41L149.64 654.9L148.62 655.35L147.58 655.77L146.53 656.15L145.46 656.48L144.37 656.78L143.26 657.03L142.14 657.23L141 657.4L139.85 657.52L138.69 657.59L137.51 657.61L58.86 657.61L57.68 657.59L56.52 657.52L55.37 657.4L54.23 657.23L53.11 657.03L52 656.78L50.91 656.48L49.84 656.15L48.79 655.77L47.75 655.35L46.73 654.9L45.74 654.41L44.77 653.88L43.82 653.31L42.89 652.71L41.99 652.07L41.12 651.4L40.27 650.7L39.45 649.97L38.65 649.21L37.89 648.42L37.16 647.6L36.46 646.75L35.79 645.87L35.15 644.97L34.55 644.05L33.99 643.1L33.46 642.12L32.96 641.13L32.51 640.11L32.09 639.08L31.72 638.02L31.38 636.95L31.09 635.86L30.84 634.75L30.63 633.63L30.47 632.49L30.35 631.34L30.28 630.18L30.25 629.01L30.25 407.33L30.28 406.16L30.35 405L30.47 403.85L30.63 402.71L30.84 401.59L31.09 400.48L31.38 399.39L31.72 398.32L32.09 397.26L32.51 396.23L32.96 395.21L33.46 394.22L33.99 393.24L34.55 392.29L35.15 391.37L35.79 390.47L36.46 389.59L37.16 388.74L37.89 387.92L38.65 387.13L39.45 386.37L40.27 385.64L41.12 384.93L41.99 384.27L42.89 383.63L43.82 383.03L44.77 382.46L45.74 381.93L46.73 381.44L47.75 380.99L48.79 380.57L49.84 380.19L50.91 379.86L52 379.56L53.11 379.31L54.23 379.1L55.37 378.94L56.52 378.82L57.68 378.75L58.86 378.73L137.51 378.73L138.69 378.75L139.85 378.82ZM58.57 400.19L58.28 400.21L58 400.24L57.71 400.28L57.44 400.33L57.16 400.4L56.89 400.47L56.62 400.55L56.36 400.65L56.1 400.76L55.85 400.87L55.6 401L55.36 401.13L55.12 401.27L54.89 401.42L54.67 401.58L54.45 401.75L54.23 401.93L54.03 402.11L53.83 402.3L53.64 402.5L53.45 402.71L53.28 402.92L53.11 403.14L52.95 403.37L52.79 403.6L52.65 403.84L52.52 404.08L52.39 404.33L52.28 404.58L52.17 404.84L52.08 405.1L51.99 405.37L51.92 405.64L51.85 405.91L51.8 406.19L51.76 406.47L51.73 406.76L51.71 407.04L51.71 407.33L51.71 629L51.71 629.29L51.73 629.58L51.76 629.87L51.8 630.15L51.85 630.42L51.92 630.7L51.99 630.97L52.08 631.24L52.17 631.5L52.28 631.76L52.39 632.01L52.52 632.26L52.65 632.5L52.79 632.74L52.95 632.97L53.11 633.2L53.28 633.41L53.45 633.63L53.64 633.83L53.83 634.03L54.03 634.22L54.23 634.41L54.45 634.59L54.67 634.75L54.89 634.91L55.12 635.07L55.36 635.21L55.6 635.34L55.85 635.47L56.1 635.58L56.36 635.69L56.62 635.78L56.89 635.87L57.16 635.94L57.44 636.01L57.71 636.06L58 636.1L58.28 636.13L58.57 636.15L58.86 636.15L137.51 636.15L137.71 636.15L137.9 636.14L138.09 636.11L138.28 636.08L138.47 636.04L138.66 635.99L138.85 635.94L139.04 635.87L139.23 635.79L139.41 635.71L139.6 635.61L139.78 635.51L139.97 635.4L140.15 635.28L140.34 635.15L140.52 635.01L140.7 634.86L140.88 634.71L141.06 634.54L141.24 634.37L141.42 634.18L141.59 633.99L141.77 633.79L141.95 633.58L142.12 633.36L142.3 633.13L142.47 632.9L142.64 632.65L142.82 632.4L142.99 632.13L143.16 631.86L143.33 631.58L143.5 631.29L143.67 630.99L143.84 630.68L144 630.36L144.17 630.04L144.33 629.7L144.5 629.36L144.66 629L144.66 407.33L144.66 407.04L144.64 406.76L144.61 406.47L144.57 406.19L144.52 405.91L144.45 405.64L144.38 405.37L144.29 405.1L144.2 404.84L144.09 404.58L143.98 404.33L143.85 404.08L143.72 403.84L143.57 403.6L143.42 403.37L143.26 403.14L143.09 402.92L142.92 402.71L142.73 402.5L142.54 402.3L142.34 402.11L142.14 401.93L141.92 401.75L141.7 401.58L141.48 401.42L141.25 401.27L141.01 401.13L140.77 401L140.52 400.87L140.27 400.76L140.01 400.65L139.75 400.55L139.48 400.47L139.21 400.4L138.93 400.33L138.66 400.28L138.37 400.24L138.09 400.21L137.8 400.19L137.51 400.18L58.86 400.18L58.57 400.19ZM485.71 416.45L485.4 416.46L485.1 416.48L484.79 416.5L484.49 416.52L484.19 416.54L483.89 416.57L483.59 416.61L483.29 416.64L482.99 416.68L482.69 416.73L482.4 416.78L482.1 416.83L481.81 416.88L481.51 416.94L481.22 417L480.92 417.07L480.63 417.14L480.34 417.21L480.04 417.29L479.75 417.37L479.46 417.45L479.17 417.54L478.88 417.63L478.59 417.72L478.3 417.81L478.02 417.91L477.73 418.02L477.44 418.12L477.15 418.23L476.87 418.35L476.58 418.46L476.3 418.58L476.01 418.7L475.73 418.83L475.44 418.96L475.16 419.09L474.87 419.23L474.59 419.36L416.38 455.02L416.91 455.19L417.44 455.35L417.97 455.5L418.5 455.66L419.02 455.82L419.54 455.98L420.05 456.13L420.57 456.28L421.07 456.44L421.58 456.59L422.08 456.74L422.57 456.89L423.07 457.04L423.55 457.19L424.04 457.33L424.52 457.48L425 457.62L425.47 457.77L425.94 457.91L426.4 458.05L426.86 458.19L427.32 458.33L427.77 458.46L428.22 458.6L428.67 458.73L429.11 458.87L429.54 459L429.97 459.13L430.4 459.26L430.82 459.39L431.24 459.51L431.65 459.64L432.06 459.76L432.46 459.88L432.86 460L433.26 460.12L433.65 460.24L434.41 460.47L434.79 460.59L435.46 460.79L436.13 461L436.79 461.22L437.46 461.44L438.13 461.66L438.79 461.88L439.46 462.11L440.12 462.35L440.78 462.59L441.44 462.83L442.1 463.08L442.76 463.33L443.41 463.58L444.07 463.85L444.72 464.11L445.37 464.38L446.02 464.65L446.66 464.93L447.31 465.22L447.95 465.51L448.59 465.8L449.23 466.1L449.87 466.4L450.5 466.71L451.13 467.02L451.76 467.34L452.39 467.66L453.01 467.99L453.63 468.32L454.25 468.66L454.86 469.01L455.47 469.35L456.08 469.71L456.69 470.07L457.29 470.43L457.89 470.8L458.48 471.18L459.07 471.56L459.66 471.95L460.25 472.34L460.82 472.74L461.4 473.15L461.97 473.56L462.54 473.97L463.1 474.4L463.66 474.82L464.22 475.26L464.77 475.7L465.31 476.15L465.85 476.61L466.39 477.07L466.92 477.54L467.45 478.01L467.97 478.49L468.48 478.98L468.99 479.48L469.5 479.98L469.99 480.49L470.48 481L470.97 481.52L471.45 482.05L471.92 482.59L472.38 483.13L472.84 483.68L473.29 484.24L473.73 484.8L474.17 485.37L474.6 485.95L475.02 486.53L475.43 487.13L475.84 487.73L476.23 488.33L476.62 488.95L477 489.57L477.37 490.2L477.73 490.83L478.08 491.48L478.42 492.13L478.76 492.79L479.08 493.45L479.29 493.9L479.49 494.35L479.7 494.8L479.89 495.26L480.08 495.71L480.27 496.18L480.45 496.64L480.62 497.11L480.8 497.58L480.96 498.05L481.12 498.53L481.28 499L481.43 499.49L481.58 499.97L481.72 500.46L481.86 500.95L481.99 501.44L482.11 501.93L482.23 502.43L482.35 502.93L482.46 503.43L482.56 503.93L482.66 504.44L482.75 504.95L482.84 505.46L482.93 505.97L483 506.48L483.07 507L483.14 507.52L483.2 508.04L483.25 508.56L483.3 509.09L483.35 509.61L483.38 510.14L483.42 510.67L483.44 511.21L483.46 511.74L483.48 512.28L483.48 512.81L483.49 513.35L483.44 515.49L483.31 517.6L483.1 519.69L482.8 521.76L482.43 523.8L481.97 525.8L481.44 527.78L480.84 529.73L480.16 531.64L479.41 533.52L478.58 535.36L477.69 537.16L476.74 538.93L475.71 540.65L474.63 542.32L473.48 543.95L472.27 545.54L471 547.07L469.68 548.56L468.3 549.99L466.87 551.37L465.38 552.69L463.85 553.96L462.26 555.17L460.63 556.32L458.96 557.4L457.24 558.42L455.48 559.38L453.67 560.27L451.83 561.09L449.96 561.84L448.04 562.52L446.1 563.13L444.12 563.66L442.11 564.11L440.07 564.49L438.01 564.78L435.92 565L433.81 565.12L431.67 565.17L431.14 565.17L401.81 562.29L307.03 550.13L306.6 550.07L306.17 549.98L305.74 549.89L305.33 549.77L304.92 549.64L304.52 549.49L304.13 549.33L303.74 549.16L303.37 548.97L303 548.76L302.65 548.55L302.3 548.32L301.96 548.07L301.64 547.82L301.32 547.55L301.02 547.27L300.72 546.98L300.44 546.68L300.17 546.37L299.91 546.05L299.67 545.72L299.43 545.38L299.21 545.03L299.01 544.67L298.81 544.31L298.63 543.94L298.47 543.56L298.32 543.17L298.18 542.77L298.06 542.38L297.96 541.97L297.87 541.56L297.8 541.14L297.74 540.72L297.7 540.3L297.68 539.87L297.67 539.44L297.68 539L297.71 538.57L297.76 538.13L297.83 537.69L297.91 537.26L298.01 536.83L298.12 536.42L298.25 536.01L298.4 535.61L298.56 535.22L298.74 534.83L298.93 534.46L299.13 534.09L299.35 533.74L299.58 533.39L299.82 533.05L300.08 532.73L300.34 532.41L300.62 532.11L300.91 531.81L301.21 531.53L301.53 531.26L301.85 531L302.18 530.76L302.52 530.53L302.87 530.31L303.22 530.1L303.59 529.91L303.96 529.73L304.34 529.56L304.73 529.41L305.12 529.28L305.52 529.16L305.93 529.05L306.34 528.96L306.76 528.89L307.18 528.83L307.6 528.79L308.03 528.77L308.46 528.76L308.9 528.78L309.33 528.8L309.77 528.85L404.24 540.98L431.92 543.69L432.55 543.68L433.16 543.65L433.78 543.62L434.39 543.57L434.99 543.51L435.6 543.44L436.2 543.36L436.79 543.26L437.38 543.16L437.97 543.04L438.55 542.91L439.13 542.77L439.71 542.62L440.28 542.46L440.84 542.29L441.4 542.1L441.96 541.91L442.51 541.71L443.05 541.49L443.59 541.27L444.13 541.04L444.65 540.79L445.18 540.54L445.7 540.28L446.21 540L446.72 539.72L447.22 539.43L447.71 539.13L448.2 538.81L448.68 538.49L449.16 538.17L449.63 537.83L450.09 537.48L450.55 537.13L451 536.76L451.44 536.39L451.88 536.01L452.3 535.62L452.73 535.22L453.14 534.82L453.55 534.4L453.95 533.97L454.34 533.54L454.73 533.1L455.11 532.65L455.47 532.2L455.83 531.74L456.18 531.27L456.52 530.79L456.85 530.31L457.18 529.83L457.49 529.33L457.8 528.83L458.09 528.33L458.38 527.81L458.65 527.3L458.92 526.77L459.17 526.24L459.42 525.71L459.65 525.17L459.88 524.62L460.09 524.07L460.3 523.51L460.49 522.95L460.67 522.38L460.84 521.81L461 521.23L461.15 520.65L461.29 520.07L461.42 519.48L461.53 518.88L461.64 518.28L461.73 517.68L461.81 517.07L461.88 516.46L461.93 515.85L461.98 515.23L462.01 514.61L462.03 513.98L462.04 513.35L462.03 513.04L462.03 512.73L462.02 512.43L462.01 512.13L461.99 511.83L461.97 511.53L461.95 511.24L461.93 510.94L461.9 510.65L461.87 510.37L461.84 510.08L461.8 509.8L461.77 509.52L461.73 509.24L461.68 508.97L461.63 508.7L461.58 508.43L461.53 508.16L461.48 507.89L461.42 507.62L461.36 507.36L461.29 507.1L461.23 506.84L461.16 506.58L461.09 506.33L461.01 506.07L460.94 505.82L460.86 505.57L460.78 505.32L460.69 505.07L460.6 504.82L460.51 504.58L460.42 504.33L460.33 504.09L460.23 503.85L460.13 503.61L460.03 503.37L459.92 503.13L459.81 502.9L459.7 502.66L459.59 502.43L459.48 502.19L459.36 501.96L459.24 501.73L459.12 501.5L458.99 501.27L458.86 501.04L458.73 500.81L458.6 500.59L458.46 500.36L458.32 500.13L458.18 499.91L458.03 499.69L457.88 499.46L457.73 499.24L457.58 499.02L457.43 498.8L457.27 498.58L457.11 498.36L456.94 498.14L456.77 497.93L456.61 497.71L456.43 497.49L456.26 497.28L456.08 497.07L455.9 496.85L455.72 496.64L455.53 496.43L455.34 496.22L455.15 496.01L454.96 495.8L454.76 495.59L454.56 495.38L454.36 495.17L454.15 494.97L453.95 494.76L453.74 494.55L453.52 494.35L453.31 494.15L453.09 493.94L452.65 493.54L452.19 493.14L451.73 492.74L451.25 492.35L450.76 491.96L450.26 491.57L449.76 491.19L449.24 490.81L448.71 490.44L448.17 490.07L447.63 489.7L447.07 489.34L446.51 488.99L445.93 488.63L445.35 488.28L444.76 487.94L444.16 487.6L443.55 487.26L442.94 486.93L442.31 486.6L441.68 486.28L441.04 485.97L440.4 485.65L439.75 485.34L439.09 485.04L438.42 484.74L437.75 484.45L437.08 484.16L436.39 483.88L435.7 483.6L435.01 483.33L434.31 483.06L433.61 482.8L432.9 482.54L432.18 482.29L431.46 482.04L430.74 481.8L430.01 481.56L429.28 481.33L428.55 481.11L426.34 480.44L423.99 479.72L421.49 478.97L418.85 478.17L416.08 477.34L413.18 476.47L410.17 475.56L407.04 474.62L403.81 473.65L400.47 472.66L397.05 471.64L393.53 470.59L389.94 469.52L386.27 468.43L382.53 467.33L378.73 466.2L374.87 465.07L370.97 463.92L367.02 462.76L363.03 461.6L359.02 460.43L354.98 459.25L350.92 458.08L346.86 456.9L342.78 455.73L338.71 454.56L334.65 453.4L330.6 452.24L326.57 451.1L322.56 449.97L318.6 448.86L314.66 447.76L310.78 446.68L306.95 445.62L303.17 444.59L299.46 443.58L295.82 442.59L292.26 441.64L288.78 440.72L285.4 439.83L284.29 439.54L283.2 439.25L282.12 438.97L281.05 438.7L279.98 438.42L278.94 438.16L277.9 437.89L276.87 437.64L275.86 437.38L274.86 437.13L273.88 436.89L272.91 436.65L271.95 436.41L271 436.18L270.07 435.96L269.16 435.74L268.26 435.52L267.38 435.31L266.51 435.11L265.66 434.91L264.82 434.72L264 434.53L263.2 434.35L262.42 434.17L261.66 434L260.91 433.84L260.18 433.68L259.47 433.53L258.78 433.39L258.11 433.25L257.46 433.12L256.83 432.99L256.22 432.87L255.63 432.76L255.07 432.65L254.52 432.56L254 432.46L253.5 432.38L253.02 432.3L252.56 432.23L252.45 432.21L252.33 432.2L252.22 432.18L252.12 432.17L252.01 432.15L251.9 432.14L251.8 432.12L251.7 432.11L251.6 432.1L251.5 432.08L251.41 432.07L251.31 432.06L251.22 432.05L251.13 432.04L251.05 432.03L250.96 432.02L250.88 432.01L250.81 432L250.73 432L250.66 431.99L250.59 431.98L250.52 431.98L250.46 431.97L250.39 431.97L250.34 431.96L250.28 431.96L250.23 431.95L250.18 431.95L250.13 431.94L250.09 431.94L250.05 431.94L250.02 431.94L249.99 431.93L249.96 431.93L249.94 431.93L249.92 431.93L249.9 431.93L249.89 431.93L249.88 431.93L249.87 431.93L249.87 431.93L249.86 431.93L249.84 431.93L249.83 431.93L249.8 431.93L249.77 431.93L249.74 431.93L249.7 431.93L249.65 431.94L249.6 431.94L249.55 431.95L249.49 431.95L249.43 431.95L249.36 431.96L249.29 431.97L249.22 431.97L249.14 431.98L249.06 431.99L248.97 432L248.88 432.01L248.79 432.02L248.69 432.03L248.59 432.04L248.49 432.05L248.38 432.07L248.27 432.08L248.16 432.09L248.05 432.11L247.93 432.12L247.81 432.14L247.68 432.16L247.56 432.17L247.43 432.19L247.3 432.21L247.17 432.23L247.03 432.25L246.9 432.27L246.76 432.29L246.62 432.31L246.48 432.34L246.33 432.36L246.18 432.39L246.03 432.41L245.88 432.44L245.72 432.46L245.57 432.49L245.41 432.52L245.25 432.54L245.08 432.57L244.92 432.6L244.75 432.63L244.58 432.66L244.41 432.69L244.24 432.72L244.06 432.75L243.88 432.79L243.7 432.82L243.52 432.85L243.34 432.89L243.16 432.92L242.97 432.96L242.78 432.99L242.59 433.03L242.4 433.07L242.21 433.1L242.01 433.14L241.82 433.18L241.62 433.22L241.42 433.26L241.22 433.3L241.02 433.34L240.81 433.38L240.61 433.42L240.4 433.46L240.19 433.51L239.98 433.55L239.77 433.59L239.56 433.64L239.34 433.68L239.13 433.73L238.69 433.82L238.24 433.91L237.8 434.01L237.34 434.1L236.88 434.2L236.42 434.3L235.95 434.4L235.47 434.51L234.99 434.61L234.51 434.72L234.02 434.83L233.53 434.94L233.03 435.05L232.53 435.16L232.02 435.28L231.51 435.39L231 435.51L230.48 435.63L229.96 435.75L229.43 435.87L228.9 436L228.37 436.12L227.84 436.25L227.3 436.37L226.75 436.5L226.21 436.63L225.66 436.76L225.11 436.89L224.55 437.02L224 437.16L223.44 437.29L222.87 437.43L222.31 437.56L221.74 437.7L221.17 437.84L220.6 437.98L220.03 438.12L219.45 438.26L218.87 438.4L218.29 438.55L217.13 438.83L215.96 439.12L214.79 439.42L213.61 439.71L212.42 440.01L211.24 440.31L210.05 440.61L208.86 440.91L207.67 441.21L206.48 441.51L205.29 441.82L204.1 442.12L202.91 442.43L201.72 442.74L200.54 443.04L199.37 443.35L198.19 443.65L197.03 443.96L195.87 444.26L194.71 444.56L193.57 444.86L192.43 445.16L191.31 445.46L190.19 445.75L189.08 446.05L187.99 446.34L186.9 446.63L185.83 446.91L184.78 447.19L183.73 447.47L182.71 447.75L181.7 448.02L180.7 448.28L179.72 448.55L178.76 448.8L177.82 449.06L176.9 449.31L176 449.55L175.12 449.79L174.26 450.02L174.01 450.09L173.77 450.15L173.53 450.22L173.29 450.29L173.05 450.35L172.81 450.41L172.58 450.48L172.35 450.54L172.12 450.6L171.89 450.66L171.67 450.73L171.44 450.79L171.22 450.85L171.01 450.91L170.79 450.97L170.58 451.02L170.36 451.08L170.15 451.14L169.95 451.2L169.74 451.25L169.54 451.31L169.34 451.36L169.14 451.42L168.94 451.47L168.75 451.52L168.56 451.58L168.37 451.63L168.18 451.68L168 451.73L167.81 451.78L167.63 451.83L167.46 451.88L167.28 451.93L167.11 451.97L166.94 452.02L166.77 452.07L166.6 452.11L166.44 452.16L166.28 452.2L166.12 452.25L166.12 589.84L166.45 589.91L166.78 589.98L167.12 590.06L167.48 590.13L167.84 590.21L168.21 590.29L168.59 590.37L168.98 590.46L169.38 590.55L169.79 590.64L170.21 590.73L170.64 590.82L171.07 590.91L171.52 591.01L171.97 591.11L172.44 591.21L172.91 591.31L173.39 591.42L173.88 591.52L174.38 591.63L174.88 591.74L175.4 591.85L175.92 591.97L176.46 592.08L177 592.2L177.55 592.32L178.1 592.44L178.67 592.56L179.24 592.69L179.82 592.81L180.41 592.94L181.01 593.07L181.62 593.2L182.23 593.33L182.85 593.47L183.48 593.6L184.12 593.74L184.77 593.88L185.42 594.02L186.08 594.16L187.24 594.41L188.41 594.67L189.61 594.92L190.82 595.19L192.06 595.45L193.31 595.72L194.59 596L195.88 596.27L197.19 596.56L198.52 596.84L199.87 597.13L201.24 597.42L202.62 597.72L204.02 598.02L205.43 598.32L206.86 598.62L208.31 598.93L209.77 599.24L211.24 599.56L212.73 599.87L214.24 600.19L215.75 600.52L217.28 600.84L218.83 601.17L220.38 601.5L221.95 601.83L223.53 602.17L225.13 602.5L226.73 602.84L228.34 603.18L229.97 603.52L231.6 603.87L233.24 604.21L234.9 604.56L236.56 604.91L238.23 605.26L239.91 605.61L241.59 605.96L243.29 606.32L244.99 606.67L248.41 607.38L251.85 608.1L255.32 608.82L258.8 609.54L262.3 610.26L265.81 610.98L269.33 611.7L272.86 612.42L276.39 613.14L279.92 613.86L283.45 614.57L286.97 615.28L290.49 615.99L293.99 616.69L297.48 617.38L300.96 618.07L304.41 618.75L307.84 619.43L311.24 620.09L314.61 620.74L317.95 621.39L321.26 622.02L324.52 622.65L327.75 623.26L330.93 623.85L334.07 624.44L337.15 625.01L340.18 625.56L343.15 626.1L346.07 626.63L348.92 627.13L351.71 627.62L354.43 628.09L357.08 628.54L359.65 628.97L362.15 629.38L364.57 629.77L366.9 630.14L369.15 630.48L371.31 630.81L371.9 630.89L372.49 630.98L373.07 631.06L373.64 631.15L374.21 631.22L374.76 631.3L375.31 631.38L375.85 631.45L376.39 631.52L376.91 631.59L377.43 631.65L377.94 631.72L378.44 631.78L378.93 631.84L379.41 631.9L379.88 631.95L380.34 632L380.79 632.06L381.23 632.1L381.66 632.15L382.08 632.19L382.49 632.24L382.89 632.27L383.27 632.31L383.65 632.35L384.01 632.38L384.37 632.41L384.71 632.44L385.04 632.46L385.35 632.48L385.66 632.51L385.95 632.52L386.23 632.54L386.49 632.55L386.74 632.57L386.98 632.57L387.21 632.58L387.42 632.59L387.61 632.59L387.8 632.59L387.85 632.59L387.91 632.59L387.98 632.59L388.05 632.58L388.13 632.58L388.2 632.58L388.29 632.57L388.38 632.56L388.47 632.55L388.57 632.54L388.67 632.53L388.77 632.52L388.88 632.51L388.99 632.5L389.11 632.48L389.23 632.46L389.36 632.44L389.48 632.42L389.62 632.4L389.75 632.38L389.89 632.36L390.03 632.33L390.18 632.3L390.33 632.28L390.48 632.25L390.64 632.22L390.8 632.18L390.96 632.15L391.13 632.11L391.3 632.07L391.47 632.03L391.64 631.99L391.82 631.95L392 631.91L392.19 631.86L392.37 631.81L392.56 631.76L392.75 631.71L392.95 631.66L393.15 631.6L393.35 631.54L393.55 631.49L393.75 631.43L393.96 631.37L394.17 631.3L394.39 631.24L394.6 631.17L394.82 631.1L395.04 631.04L395.26 630.96L395.49 630.89L395.72 630.82L395.95 630.74L396.18 630.66L396.41 630.58L396.65 630.5L396.89 630.42L397.13 630.33L397.37 630.25L397.62 630.16L397.87 630.07L398.12 629.98L398.37 629.89L398.62 629.79L398.88 629.7L399.14 629.6L399.4 629.5L399.66 629.4L399.93 629.3L400.2 629.2L400.46 629.09L400.74 628.99L401.01 628.88L401.28 628.77L401.56 628.66L401.84 628.55L402.12 628.43L402.4 628.32L402.69 628.2L402.97 628.08L403.55 627.84L404.13 627.59L404.73 627.34L405.33 627.08L405.93 626.82L406.55 626.55L407.17 626.27L407.79 625.99L408.42 625.7L409.06 625.41L409.71 625.11L410.36 624.81L411.02 624.5L411.69 624.18L412.36 623.86L413.04 623.54L413.72 623.21L414.41 622.87L415.11 622.53L415.81 622.19L416.51 621.83L417.23 621.48L417.95 621.12L418.67 620.75L419.4 620.38L420.13 620.01L420.87 619.63L421.62 619.24L422.37 618.85L423.13 618.46L423.89 618.06L424.65 617.65L425.42 617.24L426.2 616.83L426.98 616.41L427.77 615.99L428.56 615.57L429.35 615.14L430.15 614.7L430.95 614.26L432.57 613.37L434.21 612.46L435.87 611.54L437.54 610.6L439.23 609.64L440.93 608.67L442.65 607.69L444.39 606.69L446.14 605.68L447.9 604.65L449.67 603.61L451.46 602.55L453.27 601.49L455.08 600.41L456.91 599.31L458.75 598.21L460.6 597.09L462.46 595.96L464.33 594.83L466.21 593.68L468.1 592.52L470 591.35L471.91 590.17L473.83 588.98L475.76 587.78L477.69 586.58L479.63 585.36L481.58 584.14L483.53 582.9L485.49 581.67L487.46 580.42L489.43 579.17L491.41 577.91L493.39 576.64L495.37 575.37L497.36 574.09L499.35 572.81L501.35 571.52L503.34 570.23L505.34 568.93L509.35 566.32L513.36 563.7L517.37 561.07L521.37 558.43L525.38 555.78L529.37 553.13L533.35 550.48L537.32 547.83L541.27 545.18L545.2 542.54L549.1 539.91L552.98 537.29L556.83 534.68L560.65 532.09L564.43 529.51L568.17 526.96L571.87 524.43L575.53 521.93L579.14 519.45L582.69 517.01L586.2 514.6L589.64 512.22L593.03 509.88L596.35 507.59L599.61 505.33L602.8 503.12L605.91 500.96L608.96 498.85L611.92 496.8L614.8 494.79L617.6 492.85L620.31 490.96L622.93 489.14L625.46 487.39L627.89 485.7L630.22 484.08L632.45 482.53L634.57 481.06L636.59 479.67L638.5 478.35L638.96 478.03L639.41 477.7L639.85 477.35L640.29 476.98L640.71 476.61L641.13 476.22L641.54 475.82L641.94 475.41L642.33 474.99L642.71 474.55L643.08 474.11L643.45 473.65L643.8 473.18L644.14 472.71L644.47 472.22L644.79 471.72L645.1 471.21L645.4 470.69L645.69 470.16L645.97 469.62L646.23 469.08L646.48 468.52L646.73 467.96L646.96 467.39L647.17 466.81L647.38 466.22L647.57 465.63L647.75 465.02L647.92 464.41L648.07 463.8L648.21 463.17L648.33 462.54L648.45 461.91L648.54 461.27L648.63 460.62L648.7 459.97L648.75 459.31L648.79 458.65L648.82 457.98L648.83 457.31L648.82 456.75L648.81 456.21L648.78 455.66L648.74 455.12L648.69 454.58L648.63 454.04L648.56 453.51L648.48 452.98L648.39 452.46L648.29 451.93L648.18 451.42L648.05 450.9L647.92 450.39L647.78 449.89L647.63 449.38L647.47 448.89L647.3 448.39L647.12 447.91L646.93 447.42L646.74 446.94L646.53 446.47L646.32 446L646.09 445.53L645.86 445.07L645.62 444.62L645.37 444.17L645.11 443.73L644.84 443.29L644.57 442.85L644.28 442.43L643.99 442L643.69 441.59L643.39 441.18L643.07 440.77L642.75 440.37L642.42 439.98L642.08 439.59L641.74 439.21L641.39 438.84L641.03 438.47L640.66 438.11L640.29 437.76L639.91 437.42L639.52 437.08L639.13 436.75L638.73 436.43L638.32 436.11L637.91 435.8L637.5 435.51L637.07 435.21L636.65 434.93L636.21 434.66L635.77 434.39L635.33 434.13L634.88 433.88L634.43 433.64L633.97 433.41L633.5 433.18L633.03 432.97L632.56 432.76L632.08 432.56L631.6 432.38L631.11 432.2L630.62 432.03L630.12 431.87L629.62 431.72L629.11 431.58L628.6 431.44L628.09 431.32L627.57 431.21L627.05 431.11L626.53 431.02L626 430.94L625.47 430.87L624.93 430.81L624.39 430.76L623.85 430.72L623.31 430.69L622.76 430.68L622.21 430.67L621.9 430.67L621.59 430.68L621.29 430.69L620.98 430.7L620.68 430.72L620.37 430.74L620.07 430.77L619.77 430.79L619.47 430.83L619.17 430.86L618.87 430.9L618.57 430.95L618.27 431L617.97 431.05L617.67 431.1L617.38 431.16L617.08 431.22L616.79 431.29L616.49 431.36L616.2 431.43L615.91 431.51L615.61 431.59L615.32 431.67L615.03 431.76L614.74 431.85L614.45 431.95L614.16 432.04L613.87 432.14L613.58 432.25L613.29 432.36L613 432.47L612.71 432.58L612.42 432.7L612.14 432.82L611.85 432.94L611.56 433.07L611.28 433.2L610.99 433.33L610.71 433.47L610.42 433.61L607.8 435.17L607.72 435.27L607.63 435.37L607.55 435.47L607.46 435.57L607.38 435.67L607.29 435.77L607.2 435.87L607.11 435.96L607.02 436.06L606.93 436.15L606.83 436.25L606.74 436.34L606.64 436.43L606.55 436.52L606.45 436.61L606.35 436.7L606.25 436.79L606.15 436.87L606.04 436.96L605.94 437.04L605.83 437.12L605.73 437.2L605.62 437.28L605.51 437.36L605.4 437.44L605.29 437.51L605.17 437.59L605.06 437.66L604.94 437.73L604.83 437.8L604.71 437.87L604.59 437.94L604.47 438.01L604.35 438.07L604.23 438.13L604.1 438.2L603.98 438.26L603.85 438.32L603.72 438.37L603.59 438.43L603.53 438.45L603.47 438.48L603.41 438.5L603.35 438.53L603.29 438.55L603.23 438.57L603.17 438.6L603.11 438.62L603.05 438.64L602.99 438.66L602.93 438.68L602.87 438.7L602.81 438.72L602.75 438.74L602.69 438.76L602.62 438.78L602.56 438.79L602.5 438.81L602.44 438.83L602.38 438.85L602.32 438.86L602.26 438.88L602.2 438.89L602.14 438.91L602.07 438.92L602.01 438.94L601.95 438.95L601.89 438.97L601.83 438.98L601.77 438.99L601.71 439.01L601.65 439.02L601.58 439.03L601.52 439.04L601.46 439.05L601.4 439.07L601.34 439.08L601.28 439.09L601.22 439.1L601.16 439.11L517.1 488.96L516.71 489.18L516.32 489.38L515.93 489.56L515.53 489.73L515.13 489.88L514.72 490.01L514.31 490.13L513.9 490.22L513.49 490.31L513.08 490.37L512.66 490.42L512.25 490.45L511.83 490.47L511.42 490.47L511 490.45L510.59 490.42L510.18 490.37L509.78 490.31L509.37 490.23L508.97 490.13L508.57 490.02L508.18 489.9L507.79 489.76L507.41 489.61L507.03 489.44L506.66 489.25L506.3 489.06L505.94 488.84L505.59 488.62L505.25 488.38L504.92 488.12L504.6 487.85L504.28 487.57L503.98 487.27L503.69 486.96L503.41 486.64L503.14 486.3L502.88 485.95L502.63 485.59L502.4 485.22L502.18 484.83L501.98 484.44L501.79 484.05L501.63 483.65L501.48 483.25L501.35 482.84L501.23 482.43L501.14 482.02L501.05 481.61L500.99 481.19L500.94 480.78L500.91 480.36L500.89 479.95L500.89 479.53L500.91 479.12L500.94 478.71L500.99 478.3L501.05 477.89L501.13 477.49L501.22 477.09L501.33 476.69L501.46 476.3L501.6 475.91L501.75 475.53L501.92 475.15L502.1 474.78L502.3 474.42L502.51 474.06L502.74 473.71L502.98 473.37L503.24 473.04L503.51 472.71L503.79 472.4L504.08 472.1L504.39 471.81L504.72 471.52L505.05 471.25L505.4 470.99L505.77 470.75L506.14 470.52L583.88 424.41L583.51 424.05L583.14 423.69L582.76 423.34L582.38 423L581.98 422.67L581.59 422.34L581.18 422.02L580.77 421.71L580.35 421.4L579.93 421.11L579.5 420.82L579.07 420.54L578.63 420.26L578.18 420L577.73 419.74L577.28 419.5L576.82 419.26L576.35 419.03L575.88 418.81L575.4 418.59L574.92 418.39L574.43 418.2L573.94 418.01L573.45 417.84L572.95 417.68L572.44 417.52L571.94 417.38L571.42 417.24L570.91 417.12L570.39 417L569.86 416.9L569.34 416.8L568.8 416.72L568.27 416.65L567.73 416.59L567.19 416.54L566.65 416.5L566.1 416.47L565.55 416.45L564.99 416.45L564.69 416.45L564.38 416.46L564.07 416.47L563.77 416.48L563.46 416.5L563.16 416.52L562.86 416.54L562.56 416.57L562.25 416.61L561.95 416.64L561.65 416.68L561.35 416.73L561.06 416.78L560.76 416.83L560.46 416.88L560.16 416.94L559.87 417L559.57 417.07L559.28 417.14L558.98 417.21L558.69 417.29L558.4 417.37L558.11 417.45L557.81 417.54L557.52 417.63L557.23 417.72L556.94 417.82L556.65 417.92L556.36 418.03L556.07 418.13L555.79 418.24L555.5 418.36L555.21 418.48L554.92 418.6L554.64 418.72L554.35 418.85L554.06 418.98L553.78 419.11L553.49 419.25L553.21 419.39L486.45 458.98L486.06 459.2L485.67 459.4L485.28 459.58L484.88 459.75L484.48 459.9L484.07 460.03L483.66 460.14L483.25 460.24L482.84 460.32L482.43 460.39L482.01 460.43L481.6 460.47L481.18 460.48L480.77 460.48L480.35 460.46L479.94 460.43L479.53 460.38L479.13 460.32L478.72 460.24L478.32 460.15L477.92 460.04L477.53 459.91L477.14 459.77L476.76 459.62L476.38 459.45L476.01 459.26L475.65 459.07L475.29 458.85L474.94 458.63L474.6 458.39L474.27 458.13L473.95 457.86L473.63 457.58L473.33 457.28L473.04 456.97L472.76 456.65L472.49 456.31L472.23 455.96L471.98 455.6L471.75 455.23L471.53 454.84L471.33 454.45L471.14 454.06L470.98 453.66L470.83 453.26L470.7 452.85L470.58 452.44L470.49 452.03L470.4 451.62L470.34 451.21L470.29 450.79L470.26 450.38L470.24 449.96L470.24 449.55L470.26 449.13L470.29 448.72L470.34 448.31L470.4 447.91L470.48 447.5L470.58 447.1L470.69 446.7L470.81 446.31L470.95 445.92L471.1 445.54L471.27 445.16L471.46 444.79L471.65 444.43L471.87 444.07L472.09 443.72L472.33 443.38L472.59 443.05L472.86 442.73L473.14 442.42L473.44 442.11L473.75 441.82L474.07 441.54L474.41 441.27L474.76 441.01L475.12 440.76L475.49 440.53L504.25 423.48L503.9 423.15L503.53 422.84L503.16 422.53L502.79 422.22L502.41 421.92L502.02 421.63L501.63 421.35L501.24 421.07L500.83 420.8L500.43 420.54L500.02 420.29L499.6 420.04L499.18 419.8L498.76 419.56L498.33 419.34L497.89 419.12L497.45 418.91L497.01 418.71L496.56 418.51L496.11 418.33L495.66 418.15L495.2 417.98L494.73 417.82L494.26 417.66L493.79 417.52L493.32 417.38L492.84 417.26L492.36 417.14L491.87 417.03L491.38 416.93L490.89 416.84L490.39 416.76L489.89 416.68L489.39 416.62L488.89 416.57L488.38 416.52L487.87 416.49L487.35 416.46L486.84 416.45L486.32 416.45L486.01 416.45L485.71 416.45Z" id="c27kGrtFUo"></path><path d="M351.21 133L351.49 133.03L351.76 133.07L352.03 133.12L352.3 133.18L352.56 133.25L352.82 133.33L353.07 133.42L353.32 133.52L353.57 133.63L353.8 133.74L354.04 133.87L354.27 134.01L354.49 134.15L354.7 134.3L354.91 134.46L355.12 134.63L355.31 134.81L355.5 134.99L355.69 135.18L355.86 135.38L356.03 135.58L356.19 135.79L356.34 136L356.49 136.23L356.62 136.46L356.75 136.69L356.87 136.93L356.98 137.17L357.08 137.42L357.17 137.67L357.25 137.93L357.32 138.19L357.38 138.46L357.43 138.73L357.47 139L357.49 139.28L357.51 139.56L357.52 139.84L357.52 146.59L368.03 146.59L369.48 146.62L370.92 146.71L372.34 146.85L373.74 147.05L375.13 147.31L376.49 147.62L377.84 147.98L379.16 148.39L380.46 148.85L381.74 149.36L382.99 149.92L384.22 150.52L385.41 151.17L386.58 151.87L387.72 152.61L388.83 153.39L389.91 154.21L390.95 155.07L391.96 155.97L392.93 156.91L393.87 157.88L394.77 158.89L395.63 159.93L396.46 161.01L397.24 162.12L397.97 163.26L398.67 164.43L399.32 165.63L399.92 166.85L400.48 168.1L400.99 169.38L401.46 170.68L401.87 172L402.23 173.35L402.54 174.72L402.79 176.1L402.99 177.5L403.14 178.93L403.22 180.36L403.25 181.82L403.24 182.61L403.22 183.39L403.17 184.17L403.11 184.95L403.04 185.72L402.94 186.49L402.83 187.25L402.71 188.01L402.56 188.76L402.4 189.5L402.23 190.24L402.04 190.97L401.84 191.7L401.62 192.42L401.38 193.14L401.13 193.84L400.87 194.54L400.59 195.23L400.3 195.92L399.99 196.6L399.67 197.27L399.33 197.93L398.99 198.58L398.62 199.23L398.25 199.87L397.86 200.5L397.46 201.12L397.05 201.73L396.63 202.33L396.19 202.92L395.74 203.51L395.28 204.08L394.81 204.64L394.33 205.2L393.83 205.74L393.33 206.27L392.81 206.79L392.28 207.31L391.75 207.81L391.2 208.3L392.03 208.79L392.86 209.31L393.67 209.85L394.46 210.4L395.24 210.98L396 211.58L396.75 212.19L397.48 212.83L398.19 213.48L398.89 214.15L399.57 214.83L400.23 215.54L400.88 216.26L401.5 217L402.11 217.75L402.7 218.52L403.26 219.31L403.81 220.11L404.34 220.92L404.84 221.75L405.33 222.6L405.79 223.45L406.23 224.32L406.65 225.21L407.05 226.1L407.42 227.01L407.78 227.93L408.1 228.86L408.41 229.8L408.68 230.76L408.94 231.72L409.17 232.69L409.37 233.67L409.55 234.67L409.7 235.67L409.82 236.68L409.92 237.7L409.99 238.72L410.03 239.75L410.05 240.79L410.01 242.34L409.92 243.87L409.77 245.38L409.55 246.88L409.28 248.35L408.96 249.8L408.57 251.24L408.13 252.65L407.64 254.03L407.1 255.39L406.5 256.72L405.86 258.02L405.17 259.3L404.43 260.54L403.64 261.76L402.81 262.94L401.94 264.08L401.02 265.19L400.06 266.27L399.06 267.3L398.03 268.3L396.95 269.26L395.84 270.18L394.69 271.05L393.51 271.88L392.3 272.67L391.06 273.41L389.78 274.1L388.48 274.74L387.15 275.34L385.79 275.88L384.4 276.37L382.99 276.81L381.56 277.19L380.11 277.52L378.63 277.79L377.14 278L375.62 278.16L374.09 278.25L372.55 278.28L357.51 278.28L357.51 285.03L357.5 285.31L357.49 285.59L357.46 285.87L357.42 286.14L357.37 286.41L357.31 286.68L357.24 286.94L357.16 287.2L357.07 287.45L356.97 287.7L356.86 287.94L356.74 288.18L356.62 288.42L356.48 288.64L356.34 288.87L356.19 289.08L356.03 289.29L355.86 289.5L355.68 289.69L355.5 289.88L355.31 290.07L355.11 290.24L354.91 290.41L354.7 290.57L354.48 290.72L354.26 290.86L354.03 291L353.8 291.13L353.56 291.25L353.32 291.35L353.07 291.45L352.81 291.54L352.56 291.62L352.29 291.69L352.03 291.75L351.76 291.8L351.48 291.84L351.21 291.87L350.93 291.89L350.64 291.89L350.36 291.89L350.08 291.87L349.8 291.84L349.53 291.8L349.26 291.75L348.99 291.69L348.73 291.62L348.47 291.54L348.22 291.45L347.97 291.35L347.73 291.25L347.49 291.13L347.26 291L347.03 290.86L346.81 290.72L346.59 290.57L346.38 290.41L346.18 290.24L345.98 290.07L345.79 289.88L345.61 289.69L345.43 289.5L345.26 289.29L345.1 289.08L344.95 288.87L344.81 288.64L344.67 288.42L344.54 288.18L344.43 287.94L344.32 287.7L344.22 287.45L344.13 287.2L344.05 286.94L343.98 286.68L343.92 286.41L343.87 286.14L343.83 285.87L343.8 285.59L343.78 285.31L343.78 285.03L343.78 278.28L332.92 278.28L332.92 285.03L332.92 285.31L332.9 285.59L332.87 285.87L332.83 286.14L332.78 286.41L332.72 286.68L332.65 286.94L332.57 287.2L332.48 287.45L332.38 287.7L332.27 287.94L332.16 288.18L332.03 288.42L331.89 288.64L331.75 288.87L331.6 289.08L331.44 289.29L331.27 289.5L331.09 289.69L330.91 289.88L330.72 290.07L330.52 290.24L330.32 290.41L330.11 290.57L329.89 290.72L329.67 290.86L329.44 291L329.21 291.13L328.97 291.25L328.73 291.35L328.48 291.45L328.23 291.54L327.97 291.62L327.71 291.69L327.44 291.75L327.17 291.8L326.9 291.84L326.62 291.87L326.34 291.89L326.06 291.89L325.77 291.89L325.49 291.87L325.22 291.84L324.94 291.8L324.67 291.75L324.41 291.69L324.14 291.62L323.89 291.54L323.63 291.45L323.38 291.35L323.14 291.25L322.9 291.13L322.67 291L322.44 290.86L322.22 290.72L322 290.57L321.79 290.41L321.59 290.24L321.39 290.07L321.2 289.88L321.02 289.69L320.84 289.5L320.67 289.29L320.51 289.08L320.36 288.87L320.22 288.64L320.08 288.42L319.96 288.18L319.84 287.94L319.73 287.7L319.63 287.45L319.54 287.2L319.46 286.94L319.39 286.68L319.33 286.41L319.28 286.14L319.24 285.87L319.21 285.59L319.2 285.31L319.19 285.03L319.19 278.28L312.45 278.28L312.16 278.28L311.88 278.26L311.61 278.23L311.33 278.19L311.06 278.14L310.8 278.08L310.53 278.01L310.28 277.93L310.02 277.84L309.77 277.74L309.53 277.63L309.29 277.52L309.06 277.39L308.83 277.25L308.61 277.11L308.39 276.96L308.18 276.8L307.98 276.63L307.78 276.45L307.59 276.27L307.41 276.08L307.23 275.89L307.06 275.68L306.9 275.47L306.75 275.26L306.61 275.03L306.47 274.81L306.35 274.57L306.23 274.33L306.12 274.09L306.02 273.84L305.93 273.59L305.85 273.33L305.78 273.07L305.72 272.8L305.67 272.53L305.63 272.26L305.6 271.98L305.58 271.7L305.58 271.42L305.58 271.13L305.6 270.85L305.63 270.58L305.67 270.3L305.72 270.03L305.78 269.77L305.85 269.5L305.93 269.24L306.02 268.99L306.12 268.74L306.23 268.5L306.35 268.26L306.47 268.03L306.61 267.8L306.75 267.58L306.9 267.36L307.06 267.15L307.23 266.95L307.41 266.75L307.59 266.56L307.78 266.38L307.98 266.2L308.18 266.03L308.39 265.87L308.61 265.72L308.83 265.58L309.06 265.44L309.29 265.32L309.53 265.2L309.77 265.09L310.02 264.99L310.28 264.9L310.53 264.82L310.8 264.75L311.06 264.69L311.33 264.64L311.61 264.6L311.88 264.57L312.16 264.56L312.45 264.55L319.19 264.55L319.19 160.32L312.45 160.32L312.16 160.32L311.88 160.3L311.61 160.27L311.33 160.23L311.06 160.18L310.8 160.12L310.53 160.05L310.28 159.97L310.02 159.88L309.77 159.78L309.53 159.67L309.29 159.55L309.06 159.43L308.83 159.29L308.61 159.15L308.39 159L308.18 158.84L307.98 158.67L307.78 158.49L307.59 158.31L307.41 158.12L307.23 157.92L307.06 157.72L306.9 157.51L306.75 157.29L306.61 157.07L306.47 156.84L306.35 156.61L306.23 156.37L306.12 156.13L306.02 155.88L305.93 155.62L305.85 155.37L305.78 155.1L305.72 154.84L305.67 154.57L305.63 154.29L305.6 154.02L305.58 153.74L305.58 153.45L305.58 153.17L305.6 152.89L305.63 152.61L305.67 152.34L305.72 152.07L305.78 151.8L305.85 151.54L305.93 151.28L306.02 151.03L306.12 150.78L306.23 150.54L306.35 150.3L306.47 150.06L306.61 149.84L306.75 149.61L306.9 149.4L307.06 149.19L307.23 148.98L307.41 148.79L307.59 148.6L307.78 148.41L307.98 148.24L308.18 148.07L308.39 147.91L308.61 147.76L308.83 147.62L309.06 147.48L309.29 147.35L309.53 147.24L309.77 147.13L310.02 147.03L310.28 146.94L310.53 146.86L310.8 146.79L311.06 146.73L311.33 146.68L311.61 146.64L311.88 146.61L312.16 146.59L312.45 146.59L319.19 146.59L319.19 139.84L319.2 139.56L319.22 139.28L319.25 139L319.28 138.73L319.33 138.46L319.39 138.19L319.46 137.93L319.54 137.67L319.63 137.42L319.73 137.17L319.84 136.93L319.96 136.69L320.09 136.45L320.22 136.23L320.37 136L320.52 135.79L320.68 135.58L320.85 135.37L321.02 135.18L321.21 134.99L321.4 134.8L321.59 134.63L321.8 134.46L322.01 134.3L322.22 134.15L322.44 134.01L322.67 133.87L322.91 133.74L323.14 133.63L323.39 133.52L323.64 133.42L323.89 133.33L324.15 133.25L324.41 133.18L324.68 133.12L324.95 133.07L325.22 133.03L325.5 133L325.78 132.98L326.06 132.98L326.34 132.98L326.62 133L326.9 133.03L327.17 133.07L327.44 133.12L327.71 133.18L327.97 133.25L328.23 133.33L328.48 133.42L328.73 133.52L328.98 133.63L329.22 133.74L329.45 133.87L329.68 134.01L329.9 134.15L330.12 134.3L330.33 134.46L330.53 134.63L330.73 134.81L330.92 134.99L331.1 135.18L331.27 135.38L331.44 135.58L331.6 135.79L331.75 136L331.9 136.23L332.03 136.46L332.16 136.69L332.28 136.93L332.39 137.17L332.49 137.42L332.58 137.67L332.66 137.93L332.73 138.19L332.79 138.46L332.84 138.73L332.88 139L332.9 139.28L332.92 139.56L332.93 139.84L332.93 146.59L343.78 146.59L343.78 139.84L343.79 139.56L343.81 139.28L343.83 139L343.87 138.73L343.92 138.46L343.98 138.19L344.05 137.93L344.13 137.67L344.22 137.42L344.32 137.17L344.43 136.93L344.55 136.69L344.68 136.45L344.81 136.23L344.96 136L345.11 135.79L345.27 135.58L345.44 135.37L345.61 135.18L345.79 134.99L345.98 134.8L346.18 134.63L346.38 134.46L346.59 134.3L346.81 134.15L347.03 134.01L347.26 133.87L347.49 133.74L347.73 133.63L347.98 133.52L348.23 133.42L348.48 133.33L348.74 133.25L349 133.18L349.27 133.12L349.54 133.07L349.81 133.03L350.09 133L350.37 132.98L350.65 132.98L350.93 132.98L351.21 133ZM332.93 264.55L372.56 264.55L373.05 264.55L373.54 264.53L374.03 264.51L374.51 264.47L375 264.43L375.47 264.37L375.95 264.31L376.42 264.24L376.89 264.16L377.36 264.07L377.82 263.97L378.28 263.86L378.73 263.74L379.18 263.62L379.63 263.48L380.08 263.34L380.52 263.19L380.95 263.03L381.38 262.86L381.81 262.69L382.23 262.5L382.65 262.31L383.07 262.11L383.48 261.9L383.88 261.69L384.29 261.46L384.68 261.23L385.07 261L385.46 260.75L385.84 260.5L386.22 260.24L386.59 259.97L386.95 259.7L387.32 259.42L387.67 259.13L388.02 258.83L388.36 258.53L388.7 258.23L389.04 257.91L389.36 257.59L389.68 257.26L390 256.93L390.3 256.59L390.61 256.25L390.9 255.9L391.19 255.55L391.47 255.18L391.74 254.82L392.01 254.45L392.27 254.07L392.52 253.69L392.77 253.3L393.01 252.91L393.24 252.52L393.46 252.12L393.67 251.71L393.88 251.3L394.08 250.89L394.27 250.47L394.46 250.04L394.63 249.62L394.8 249.18L394.96 248.75L395.11 248.31L395.25 247.86L395.39 247.42L395.51 246.97L395.63 246.51L395.74 246.05L395.84 245.59L395.93 245.12L396.01 244.65L396.08 244.18L396.14 243.71L396.2 243.23L396.24 242.75L396.27 242.26L396.3 241.78L396.31 241.29L396.32 240.79L396.31 240.3L396.3 239.81L396.27 239.32L396.24 238.84L396.2 238.36L396.14 237.88L396.08 237.4L396.01 236.93L395.93 236.46L395.84 236L395.74 235.54L395.63 235.08L395.51 234.62L395.39 234.17L395.25 233.72L395.11 233.28L394.96 232.84L394.8 232.4L394.63 231.97L394.46 231.54L394.27 231.12L394.08 230.7L393.88 230.29L393.67 229.88L393.46 229.47L393.23 229.07L393 228.67L392.77 228.28L392.52 227.9L392.27 227.52L392.01 227.14L391.74 226.77L391.47 226.4L391.19 226.04L390.9 225.69L390.61 225.34L390.3 224.99L390 224.65L389.68 224.32L389.36 223.99L389.04 223.67L388.7 223.36L388.36 223.05L388.02 222.75L387.67 222.46L387.31 222.17L386.95 221.89L386.59 221.62L386.22 221.35L385.84 221.09L385.46 220.84L385.07 220.59L384.68 220.35L384.28 220.12L383.88 219.9L383.48 219.68L383.07 219.48L382.65 219.28L382.23 219.09L381.81 218.9L381.38 218.73L380.95 218.56L380.51 218.4L380.07 218.25L379.63 218.1L379.18 217.97L378.73 217.84L378.28 217.73L377.82 217.62L377.36 217.52L376.89 217.43L376.42 217.35L375.95 217.28L375.47 217.21L374.99 217.16L374.51 217.12L374.03 217.08L373.54 217.06L373.05 217.04L372.56 217.04L332.93 217.04L332.93 264.55ZM368.05 203.3L368.54 203.29L369.03 203.28L369.52 203.25L370.01 203.21L370.49 203.16L370.97 203.1L371.44 203.03L371.91 202.95L372.38 202.86L372.84 202.76L373.3 202.65L373.76 202.53L374.21 202.4L374.66 202.26L375.1 202.11L375.54 201.95L375.97 201.79L376.4 201.61L376.83 201.42L377.25 201.23L377.66 201.03L378.07 200.82L378.48 200.6L378.88 200.37L379.27 200.13L379.66 199.88L380.04 199.63L380.42 199.37L380.79 199.1L381.16 198.82L381.52 198.54L381.87 198.25L382.22 197.95L382.56 197.64L382.89 197.33L383.22 197.01L383.54 196.68L383.86 196.34L384.17 196L384.47 195.65L384.76 195.3L385.04 194.94L385.32 194.57L385.59 194.2L385.85 193.82L386.1 193.44L386.35 193.05L386.59 192.65L386.82 192.25L387.04 191.85L387.25 191.44L387.45 191.02L387.65 190.6L387.83 190.18L388.01 189.75L388.17 189.31L388.33 188.87L388.48 188.43L388.62 187.98L388.75 187.53L388.87 187.07L388.98 186.61L389.08 186.15L389.17 185.68L389.25 185.21L389.32 184.73L389.38 184.25L389.43 183.77L389.47 183.29L389.49 182.8L389.51 182.31L389.52 181.81L389.51 181.32L389.49 180.82L389.47 180.33L389.43 179.85L389.38 179.37L389.32 178.89L389.25 178.41L389.17 177.94L389.08 177.47L388.98 177.01L388.87 176.55L388.75 176.09L388.62 175.64L388.48 175.19L388.33 174.75L388.17 174.31L388.01 173.87L387.83 173.44L387.65 173.02L387.45 172.6L387.25 172.18L387.04 171.77L386.82 171.37L386.59 170.97L386.35 170.57L386.1 170.18L385.85 169.8L385.59 169.42L385.32 169.05L385.04 168.68L384.76 168.32L384.47 167.97L384.17 167.62L383.86 167.28L383.54 166.94L383.22 166.62L382.89 166.29L382.56 165.98L382.22 165.67L381.87 165.37L381.51 165.08L381.15 164.8L380.79 164.52L380.42 164.25L380.04 163.99L379.65 163.73L379.26 163.49L378.87 163.25L378.47 163.02L378.07 162.8L377.65 162.59L377.24 162.39L376.82 162.19L376.39 162.01L375.96 161.83L375.53 161.67L375.09 161.51L374.65 161.36L374.2 161.22L373.75 161.09L373.29 160.97L372.83 160.86L372.37 160.76L371.9 160.67L371.43 160.59L370.95 160.52L370.47 160.46L369.99 160.41L369.5 160.37L369.01 160.35L368.52 160.33L368.03 160.32L332.93 160.32L332.93 203.3L368.05 203.3Z" id="g1CdqUYJnK"></path><path d="M373.1 26.67L380.62 27.43L388.05 28.49L395.38 29.84L402.61 31.47L409.73 33.37L416.73 35.55L423.62 38L430.37 40.7L436.99 43.65L443.48 46.86L449.81 50.3L456 53.98L462.03 57.88L467.9 62.01L473.6 66.36L479.12 70.92L484.46 75.68L489.62 80.64L494.58 85.8L499.34 91.14L503.9 96.66L508.24 102.36L512.37 108.23L516.28 114.26L519.96 120.45L523.4 126.78L526.6 133.27L529.56 139.89L532.26 146.64L534.7 153.53L536.88 160.53L538.78 167.65L540.41 174.87L541.76 182.2L542.82 189.63L543.58 197.15L544.04 204.75L544.2 212.44L544.04 220.12L543.58 227.72L542.82 235.24L541.76 242.67L540.41 250L538.78 257.23L536.88 264.34L534.7 271.35L532.26 278.23L529.56 284.98L526.6 291.61L523.4 298.09L519.96 304.43L516.28 310.61L512.37 316.64L508.24 322.51L503.9 328.21L499.34 333.73L494.58 339.07L489.62 344.23L484.46 349.19L479.12 353.95L473.6 358.51L467.9 362.86L462.03 366.99L456 370.9L449.81 374.57L443.48 378.02L436.99 381.22L430.37 384.17L423.62 386.88L416.73 389.32L409.73 391.5L402.61 393.41L395.38 395.04L388.05 396.38L380.62 397.44L373.1 398.2L365.5 398.67L357.81 398.82L350.13 398.67L342.53 398.2L335.01 397.44L327.58 396.38L320.25 395.04L313.02 393.41L305.9 391.5L298.9 389.32L292.01 386.88L285.26 384.17L278.64 381.22L272.15 378.02L265.81 374.57L259.63 370.9L253.6 366.99L247.73 362.86L242.03 358.51L236.51 353.95L231.17 349.19L226.01 344.23L221.05 339.07L216.29 333.73L211.73 328.21L207.39 322.51L203.26 316.64L199.35 310.61L195.67 304.43L192.23 298.09L189.03 291.61L186.07 284.98L183.37 278.23L180.93 271.35L178.75 264.34L176.84 257.23L175.21 250L173.87 242.67L172.81 235.24L172.05 227.72L171.58 220.12L171.43 212.44L171.58 204.75L172.05 197.15L172.81 189.63L173.87 182.2L175.21 174.87L176.84 167.65L178.75 160.53L180.93 153.53L183.37 146.64L186.07 139.89L189.03 133.27L192.23 126.78L195.67 120.45L199.35 114.26L203.26 108.23L207.39 102.36L211.73 96.66L216.29 91.14L221.05 85.8L226.01 80.64L231.17 75.68L236.51 70.92L242.03 66.36L247.73 62.01L253.6 57.88L259.63 53.98L265.81 50.3L272.15 46.86L278.64 43.65L285.26 40.7L292.01 38L298.9 35.55L305.9 33.37L313.02 31.47L320.25 29.84L327.58 28.49L335.01 27.43L342.53 26.67L350.13 26.21L357.81 26.05L365.5 26.21L373.1 26.67ZM343.76 41.34L336.84 42.04L330.01 43.02L323.26 44.26L316.61 45.76L310.06 47.52L303.61 49.53L297.28 51.79L291.06 54.28L284.96 57L278.99 59.96L273.15 63.13L267.45 66.52L261.9 70.12L256.49 73.93L251.24 77.94L246.15 82.14L241.23 86.53L236.48 91.1L231.91 95.85L227.52 100.78L223.32 105.86L219.31 111.11L215.5 116.52L211.9 122.07L208.51 127.77L205.33 133.61L202.38 139.58L199.65 145.68L197.16 151.9L194.91 158.23L192.9 164.68L191.14 171.23L189.64 177.88L188.39 184.63L187.42 191.46L186.71 198.38L186.29 205.37L186.14 212.44L186.29 219.5L186.71 226.5L187.42 233.41L188.39 240.25L189.64 246.99L191.14 253.64L192.9 260.19L194.91 266.64L197.16 272.98L199.65 279.2L202.38 285.29L205.33 291.26L208.51 297.1L211.9 302.8L215.5 308.35L219.31 313.76L223.32 319.01L227.52 324.1L231.91 329.02L236.48 333.77L241.23 338.34L246.15 342.73L251.24 346.94L256.49 350.94L261.9 354.75L267.45 358.35L273.15 361.74L278.99 364.92L284.96 367.87L291.06 370.6L297.28 373.09L303.61 375.34L310.06 377.35L316.61 379.11L323.26 380.61L330.01 381.86L336.84 382.83L343.76 383.54L350.75 383.97L357.81 384.11L364.88 383.97L371.87 383.54L378.79 382.83L385.62 381.86L392.37 380.61L399.02 379.11L405.57 377.35L412.02 375.34L418.35 373.09L424.57 370.6L430.67 367.87L436.64 364.92L442.48 361.74L448.18 358.35L453.73 354.75L459.14 350.94L464.39 346.94L469.47 342.73L474.4 338.34L479.15 333.77L483.72 329.02L488.11 324.1L492.31 319.01L496.32 313.76L500.13 308.35L503.73 302.8L507.12 297.1L510.3 291.26L513.25 285.29L515.97 279.2L518.47 272.98L520.72 266.64L522.73 260.2L524.49 253.64L525.99 246.99L527.24 240.25L528.21 233.41L528.92 226.5L529.34 219.5L529.49 212.44L529.34 205.37L528.92 198.38L528.21 191.46L527.24 184.63L525.99 177.88L524.49 171.23L522.73 164.68L520.72 158.23L518.47 151.9L515.97 145.68L513.25 139.58L510.3 133.61L507.12 127.77L503.73 122.08L500.13 116.52L496.32 111.12L492.31 105.87L488.11 100.78L483.72 95.85L479.15 91.1L474.4 86.53L469.47 82.14L464.39 77.94L459.14 73.93L453.73 70.12L448.18 66.52L442.48 63.13L436.64 59.96L430.67 57L424.57 54.28L418.35 51.79L412.02 49.53L405.57 47.52L399.02 45.76L392.37 44.26L385.62 43.02L378.79 42.04L371.87 41.34L364.88 40.91L357.81 40.77L350.75 40.91L343.76 41.34Z" id="c23iZUAjZO"></path><path d="M369.89 65.78L375.82 66.38L381.69 67.22L387.47 68.28L393.18 69.57L398.8 71.07L404.33 72.79L409.76 74.72L415.1 76.85L420.33 79.19L425.44 81.72L430.45 84.43L435.33 87.34L440.09 90.42L444.73 93.68L449.22 97.11L453.58 100.71L457.8 104.47L461.87 108.39L465.79 112.46L469.55 116.68L473.14 121.04L476.58 125.54L479.84 130.17L482.92 134.93L485.82 139.81L488.54 144.82L491.07 149.94L493.4 155.16L495.53 160.5L497.46 165.93L499.18 171.46L500.69 177.08L501.97 182.78L503.04 188.57L503.87 194.43L504.47 200.37L504.84 206.37L504.96 212.44L504.84 218.5L504.47 224.51L503.87 230.44L503.04 236.3L501.97 242.09L500.69 247.8L499.18 253.42L497.46 258.95L495.53 264.38L493.4 269.71L491.07 274.94L488.54 280.06L485.82 285.06L482.92 289.95L479.84 294.71L476.58 299.34L473.14 303.84L469.55 308.2L465.79 312.41L461.87 316.48L457.8 320.4L453.58 324.16L449.22 327.76L444.73 331.19L440.09 334.45L435.33 337.54L430.45 340.44L425.44 343.16L420.33 345.69L415.1 348.02L409.76 350.15L404.33 352.08L398.8 353.8L393.18 355.31L387.47 356.6L381.69 357.66L375.82 358.5L369.89 359.1L363.88 359.46L357.81 359.59L351.75 359.46L345.75 359.1L339.81 358.5L333.94 357.66L328.16 356.6L322.45 355.31L316.83 353.8L311.3 352.08L305.87 350.15L300.53 348.02L295.31 345.69L290.19 343.16L285.18 340.44L280.3 337.54L275.54 334.45L270.91 331.19L266.41 327.76L262.05 324.16L257.83 320.4L253.76 316.48L249.85 312.41L246.09 308.2L242.49 303.84L239.06 299.34L235.8 294.71L232.71 289.95L229.81 285.06L227.09 280.06L224.56 274.94L222.23 269.71L220.1 264.38L218.17 258.95L216.45 253.42L214.94 247.8L213.66 242.09L212.59 236.3L211.76 230.44L211.15 224.51L210.79 218.5L210.67 212.44L210.79 206.37L211.15 200.37L211.76 194.43L212.59 188.57L213.66 182.78L214.94 177.08L216.45 171.46L218.17 165.93L220.1 160.5L222.23 155.16L224.56 149.94L227.09 144.82L229.81 139.81L232.71 134.93L235.8 130.17L239.06 125.54L242.49 121.04L246.09 116.68L249.85 112.46L253.76 108.39L257.83 104.47L262.05 100.71L266.41 97.11L270.91 93.68L275.54 90.42L280.3 87.34L285.18 84.43L290.19 81.72L295.31 79.19L300.53 76.85L305.87 74.72L311.3 72.79L316.83 71.07L322.45 69.57L328.16 68.28L333.94 67.22L339.81 66.38L345.75 65.78L351.75 65.41L357.81 65.29L363.88 65.41L369.89 65.78ZM346.97 80.44L341.63 80.99L336.36 81.74L331.16 82.7L326.03 83.86L320.97 85.22L316 86.77L311.11 88.51L306.31 90.43L301.61 92.53L297.01 94.81L292.5 97.26L288.11 99.87L283.82 102.65L279.65 105.59L275.6 108.68L271.68 111.92L267.88 115.31L264.21 118.84L260.69 122.5L257.3 126.3L254.06 130.22L250.97 134.27L248.03 138.44L245.25 142.73L242.63 147.12L240.19 151.63L237.91 156.23L235.81 160.94L233.88 165.73L232.14 170.62L230.59 175.6L229.24 180.65L228.08 185.78L227.12 190.98L226.36 196.25L225.82 201.59L225.49 206.99L225.38 212.44L225.49 217.89L225.82 223.28L226.36 228.62L227.12 233.89L228.08 239.09L229.24 244.22L230.59 249.28L232.14 254.25L233.88 259.14L235.81 263.94L237.91 268.64L240.19 273.25L242.63 277.75L245.25 282.14L248.03 286.43L250.97 290.6L254.06 294.65L257.3 298.57L260.69 302.37L264.21 306.04L267.88 309.56L271.68 312.95L275.6 316.19L279.65 319.28L283.82 322.22L288.11 325L292.5 327.62L297.01 330.07L301.61 332.34L306.31 334.45L311.11 336.37L316 338.11L320.97 339.66L326.03 341.01L331.16 342.17L336.36 343.13L341.63 343.89L346.97 344.43L352.36 344.76L357.81 344.87L363.27 344.76L368.66 344.43L374 343.89L379.27 343.13L384.47 342.17L389.6 341.01L394.66 339.66L399.63 338.11L404.52 336.37L409.31 334.45L414.02 332.34L418.62 330.07L423.13 327.62L427.52 325L431.81 322.22L435.98 319.28L440.03 316.19L443.95 312.95L447.75 309.57L451.42 306.04L454.94 302.37L458.33 298.58L461.57 294.65L464.66 290.6L467.6 286.43L470.38 282.15L472.99 277.75L475.44 273.25L477.72 268.64L479.82 263.94L481.75 259.14L483.48 254.25L485.03 249.28L486.39 244.22L487.55 239.09L488.51 233.89L489.26 228.62L489.81 223.28L490.14 217.89L490.25 212.44L490.14 206.99L489.81 201.59L489.26 196.26L488.51 190.98L487.55 185.78L486.39 180.65L485.03 175.6L483.48 170.62L481.75 165.74L479.82 160.94L477.72 156.23L475.44 151.63L472.99 147.12L470.38 142.73L467.6 138.44L464.66 134.27L461.57 130.22L458.33 126.3L454.94 122.5L451.42 118.84L447.75 115.31L443.95 111.92L440.03 108.68L435.98 105.59L431.81 102.65L427.52 99.87L423.13 97.26L418.62 94.81L414.02 92.53L409.31 90.43L404.52 88.51L399.63 86.77L394.66 85.22L389.6 83.86L384.47 82.7L379.27 81.74L374 80.99L368.66 80.44L363.27 80.11L357.81 80L352.36 80.11L346.97 80.44Z" id="a2s7fxVgZy"></path></defs><g><g><use xlink:href="#c27kGrtFUo" opacity="1" fill="#ffffff" fill-opacity="1"></use><g><use xlink:href="#c27kGrtFUo" opacity="1" fill-opacity="0" stroke="#ffffff" stroke-width="1" stroke-opacity="1"></use></g></g><g><use xlink:href="#g1CdqUYJnK" opacity="1" fill="#ffffff" fill-opacity="1"></use><g><use xlink:href="#g1CdqUYJnK" opacity="1" fill-opacity="0" stroke="#ffffff" stroke-width="6" stroke-opacity="1"></use></g></g><g><use xlink:href="#c23iZUAjZO" opacity="1" fill="#ffffff" fill-opacity="1"></use><g><use xlink:href="#c23iZUAjZO" opacity="1" fill-opacity="0" stroke="#ffffff" stroke-width="6" stroke-opacity="1"></use></g></g><g><use xlink:href="#a2s7fxVgZy" opacity="1" fill="#ffffff" fill-opacity="1"></use><g><use xlink:href="#a2s7fxVgZy" opacity="1" fill-opacity="0" stroke="#ffffff" stroke-width="6" stroke-opacity="1"></use></g></g></g></svg>