<?xml version="1.0" encoding="UTF-8" standalone="no"?>
<!DOCTYPE svg PUBLIC "-//W3C//DTD SVG 1.1//EN" "http://www.w3.org/Graphics/SVG/1.1/DTD/svg11.dtd">
<svg version="1.1" xmlns="http://www.w3.org/2000/svg" xmlns:xlink="http://www.w3.org/1999/xlink" preserveAspectRatio="xMidYMid meet" viewBox="1.0152052061561632 -0.24844195325859753 637.4148568623726 631.0612705047819" width="633.41" height="625.06"><defs><path d="M342.12 3.37L349.56 4.12L356.92 5.17L364.17 6.5L371.33 8.12L378.37 10L385.3 12.15L392.12 14.58L398.8 17.25L405.35 20.17L411.78 23.35L418.04 26.75L424.17 30.4L430.14 34.25L435.95 38.34L441.59 42.65L447.05 47.16L452.34 51.87L457.44 56.78L462.35 61.89L467.06 67.17L471.58 72.64L475.87 78.28L479.96 84.09L483.83 90.05L487.47 96.18L490.88 102.45L494.04 108.87L496.97 115.42L499.64 122.1L502.06 128.92L504.22 135.85L506.1 142.9L507.71 150.04L509.05 157.3L510.1 164.65L510.85 172.09L511.3 179.61L511.46 187.22L511.3 194.83L510.85 202.35L510.1 209.79L509.05 217.14L507.71 224.4L506.1 231.55L504.22 238.59L502.06 245.53L499.64 252.34L496.97 259.02L494.04 265.58L490.88 271.99L487.47 278.27L483.83 284.38L479.96 290.35L475.87 296.16L471.58 301.8L467.06 307.27L462.35 312.55L457.44 317.66L452.34 322.57L447.05 327.28L441.59 331.79L435.95 336.1L430.14 340.18L424.17 344.05L418.04 347.69L411.78 351.1L405.35 354.27L398.8 357.19L392.12 359.87L385.3 362.28L378.37 364.44L371.33 366.33L364.17 367.95L356.92 369.27L349.56 370.32L342.12 371.07L334.6 371.54L326.99 371.69L319.39 371.54L311.87 371.07L304.42 370.32L297.07 369.27L289.82 367.95L282.66 366.33L275.61 364.44L268.68 362.28L261.87 359.87L255.19 357.19L248.63 354.27L242.21 351.1L235.94 347.69L229.82 344.05L223.85 340.18L218.04 336.1L212.4 331.79L206.94 327.28L201.65 322.57L196.55 317.66L191.64 312.55L186.93 307.27L182.41 301.8L178.12 296.16L174.03 290.35L170.16 284.38L166.52 278.27L163.11 271.99L159.95 265.58L157.02 259.02L154.34 252.34L151.93 245.53L149.77 238.59L147.88 231.55L146.27 224.4L144.94 217.14L143.89 209.79L143.14 202.35L142.68 194.83L142.53 187.22L142.68 179.61L143.14 172.09L143.89 164.65L144.94 157.3L146.27 150.04L147.88 142.9L149.77 135.85L151.93 128.92L154.34 122.1L157.02 115.42L159.95 108.87L163.11 102.45L166.52 96.18L170.16 90.05L174.03 84.09L178.12 78.28L182.41 72.64L186.93 67.17L191.64 61.89L196.55 56.78L201.65 51.87L206.94 47.16L212.4 42.65L218.04 38.34L223.85 34.25L229.82 30.4L235.94 26.75L242.21 23.35L248.63 20.17L255.19 17.25L261.87 14.58L268.68 12.15L275.61 10L282.66 8.12L289.82 6.5L297.07 5.17L304.42 4.12L311.87 3.37L319.39 2.91L326.99 2.75L334.6 2.91L342.12 3.37ZM313.08 17.88L306.23 18.58L299.48 19.55L292.79 20.77L286.21 22.26L279.73 24L273.35 25.99L267.08 28.23L260.93 30.69L254.89 33.38L248.98 36.31L243.2 39.45L237.56 42.81L232.07 46.37L226.71 50.14L221.52 54.11L216.48 58.26L211.61 62.61L206.91 67.13L202.38 71.83L198.04 76.71L193.88 81.74L189.91 86.94L186.14 92.29L182.58 97.78L179.22 103.43L176.08 109.21L173.16 115.11L170.46 121.15L167.99 127.31L165.76 133.57L163.78 139.96L162.03 146.44L160.55 153.02L159.31 159.7L158.35 166.46L157.65 173.31L157.23 180.23L157.09 187.22L157.23 194.21L157.65 201.14L158.35 207.98L159.31 214.75L160.55 221.42L162.03 228L163.78 234.48L165.76 240.87L167.99 247.14L170.46 253.3L173.16 259.32L176.08 265.23L179.22 271.01L182.58 276.65L186.14 282.15L189.91 287.5L193.88 292.7L198.04 297.73L202.38 302.6L206.91 307.31L211.61 311.83L216.48 316.17L221.52 320.34L226.71 324.3L232.07 328.07L237.56 331.63L243.2 334.99L248.98 338.13L254.89 341.05L260.93 343.76L267.08 346.22L273.35 348.45L279.73 350.44L286.21 352.18L292.79 353.66L299.48 354.9L306.23 355.86L313.08 356.56L320 356.99L326.99 357.13L333.99 356.99L340.9 356.56L347.75 355.86L354.51 354.9L361.19 353.66L367.77 352.18L374.26 350.44L380.64 348.45L386.91 346.22L393.06 343.76L399.1 341.05L405.01 338.13L410.79 334.99L416.43 331.63L421.92 328.07L427.28 324.3L432.47 320.34L437.5 316.17L442.38 311.83L447.08 307.31L451.6 302.6L455.95 297.73L460.1 292.7L464.07 287.5L467.84 282.15L471.41 276.65L474.76 271.01L477.91 265.23L480.83 259.32L483.52 253.3L486 247.14L488.22 240.87L490.21 234.49L491.95 228L493.44 221.42L494.67 214.75L495.64 207.98L496.34 201.14L496.75 194.21L496.9 187.22L496.75 180.23L496.34 173.31L495.64 166.46L494.67 159.7L493.44 153.02L491.95 146.44L490.21 139.96L488.22 133.57L486 127.31L483.52 121.15L480.83 115.11L477.91 109.21L474.76 103.43L471.41 97.79L467.84 92.29L464.07 86.95L460.1 81.75L455.95 76.71L451.6 71.83L447.08 67.13L442.38 62.61L437.5 58.26L432.47 54.11L427.28 50.14L421.92 46.37L416.43 42.81L410.79 39.45L405.01 36.31L399.1 33.38L393.06 30.69L386.91 28.23L380.64 25.99L374.26 24L367.77 22.26L361.19 20.77L354.51 19.55L347.75 18.58L340.9 17.88L333.99 17.46L326.99 17.32L320 17.46L313.08 17.88Z" id="ac4xyh7wr"></path><path d="M342.12 3.37L349.56 4.12L356.92 5.17L364.17 6.5L371.33 8.12L378.37 10L385.3 12.15L392.12 14.58L398.8 17.25L405.35 20.17L411.78 23.35L418.04 26.75L424.17 30.4L430.14 34.25L435.95 38.34L441.59 42.65L447.05 47.16L452.34 51.87L457.44 56.78L462.35 61.89L467.06 67.17L471.58 72.64L475.87 78.28L479.96 84.09L483.83 90.05L487.47 96.18L490.88 102.45L494.04 108.87L496.97 115.42L499.64 122.1L502.06 128.92L504.22 135.85L506.1 142.9L507.71 150.04L509.05 157.3L510.1 164.65L510.85 172.09L511.3 179.61L511.46 187.22L511.3 194.83L510.85 202.35L510.1 209.79L509.05 217.14L507.71 224.4L506.1 231.55L504.22 238.59L502.06 245.53L499.64 252.34L496.97 259.02L494.04 265.58L490.88 271.99L487.47 278.27L483.83 284.38L479.96 290.35L475.87 296.16L471.58 301.8L467.06 307.27L462.35 312.55L457.44 317.66L452.34 322.57L447.05 327.28L441.59 331.79L435.95 336.1L430.14 340.18L424.17 344.05L418.04 347.69L411.78 351.1L405.35 354.27L398.8 357.19L392.12 359.87L385.3 362.28L378.37 364.44L371.33 366.33L364.17 367.95L356.92 369.27L349.56 370.32L342.12 371.07L334.6 371.54L326.99 371.69L319.39 371.54L311.87 371.07L304.42 370.32L297.07 369.27L289.82 367.95L282.66 366.33L275.61 364.44L268.68 362.28L261.87 359.87L255.19 357.19L248.63 354.27L242.21 351.1L235.94 347.69L229.82 344.05L223.85 340.18L218.04 336.1L212.4 331.79L206.94 327.28L201.65 322.57L196.55 317.66L191.64 312.55L186.93 307.27L182.41 301.8L178.12 296.16L174.03 290.35L170.16 284.38L166.52 278.27L163.11 271.99L159.95 265.58L157.02 259.02L154.34 252.34L151.93 245.53L149.77 238.59L147.88 231.55L146.27 224.4L144.94 217.14L143.89 209.79L143.14 202.35L142.68 194.83L142.53 187.22L142.68 179.61L143.14 172.09L143.89 164.65L144.94 157.3L146.27 150.04L147.88 142.9L149.77 135.85L151.93 128.92L154.34 122.1L157.02 115.42L159.95 108.87L163.11 102.45L166.52 96.18L170.16 90.05L174.03 84.09L178.12 78.28L182.41 72.64L186.93 67.17L191.64 61.89L196.55 56.78L201.65 51.87L206.94 47.16L212.4 42.65L218.04 38.34L223.85 34.25L229.82 30.4L235.94 26.75L242.21 23.35L248.63 20.17L255.19 17.25L261.87 14.58L268.68 12.15L275.61 10L282.66 8.12L289.82 6.5L297.07 5.17L304.42 4.12L311.87 3.37L319.39 2.91L326.99 2.75L334.6 2.91L342.12 3.37ZM313.08 17.88L306.23 18.58L299.48 19.55L292.79 20.77L286.21 22.26L279.73 24L273.35 25.99L267.08 28.23L260.93 30.69L254.89 33.38L248.98 36.31L243.2 39.45L237.56 42.81L232.07 46.37L226.71 50.14L221.52 54.11L216.48 58.26L211.61 62.61L206.91 67.13L202.38 71.83L198.04 76.71L193.88 81.74L189.91 86.94L186.14 92.29L182.58 97.78L179.22 103.43L176.08 109.21L173.16 115.11L170.46 121.15L167.99 127.31L165.76 133.57L163.78 139.96L162.03 146.44L160.55 153.02L159.31 159.7L158.35 166.46L157.65 173.31L157.23 180.23L157.09 187.22L157.23 194.21L157.65 201.14L158.35 207.98L159.31 214.75L160.55 221.42L162.03 228L163.78 234.48L165.76 240.87L167.99 247.14L170.46 253.3L173.16 259.32L176.08 265.23L179.22 271.01L182.58 276.65L186.14 282.15L189.91 287.5L193.88 292.7L198.04 297.73L202.38 302.6L206.91 307.31L211.61 311.83L216.48 316.17L221.52 320.34L226.71 324.3L232.07 328.07L237.56 331.63L243.2 334.99L248.98 338.13L254.89 341.05L260.93 343.76L267.08 346.22L273.35 348.45L279.73 350.44L286.21 352.18L292.79 353.66L299.48 354.9L306.23 355.86L313.08 356.56L320 356.99L326.99 357.13L333.99 356.99L340.9 356.56L347.75 355.86L354.51 354.9L361.19 353.66L367.77 352.18L374.26 350.44L380.64 348.45L386.91 346.22L393.06 343.76L399.1 341.05L405.01 338.13L410.79 334.99L416.43 331.63L421.92 328.07L427.28 324.3L432.47 320.34L437.5 316.17L442.38 311.83L447.08 307.31L451.6 302.6L455.95 297.73L460.1 292.7L464.07 287.5L467.84 282.15L471.41 276.65L474.76 271.01L477.91 265.23L480.83 259.32L483.52 253.3L486 247.14L488.22 240.87L490.21 234.49L491.95 228L493.44 221.42L494.67 214.75L495.64 207.98L496.34 201.14L496.75 194.21L496.9 187.22L496.75 180.23L496.34 173.31L495.64 166.46L494.67 159.7L493.44 153.02L491.95 146.44L490.21 139.96L488.22 133.57L486 127.31L483.52 121.15L480.83 115.11L477.91 109.21L474.76 103.43L471.41 97.79L467.84 92.29L464.07 86.95L460.1 81.75L455.95 76.71L451.6 71.83L447.08 67.13L442.38 62.61L437.5 58.26L432.47 54.11L427.28 50.14L421.92 46.37L416.43 42.81L410.79 39.45L405.01 36.31L399.1 33.38L393.06 30.69L386.91 28.23L380.64 25.99L374.26 24L367.77 22.26L361.19 20.77L354.51 19.55L347.75 18.58L340.9 17.88L333.99 17.46L326.99 17.32L320 17.46L313.08 17.88Z" id="akiIyuFUd"></path><path d="M338.94 42.07L344.81 42.66L350.62 43.49L356.34 44.54L361.99 45.82L367.56 47.3L373.03 49.01L378.4 50.92L383.69 53.02L388.87 55.34L393.92 57.84L398.88 60.53L403.71 63.41L408.42 66.46L413.01 69.68L417.46 73.08L421.77 76.64L425.95 80.36L429.98 84.24L433.86 88.27L437.58 92.44L441.13 96.76L444.54 101.21L447.76 105.8L450.81 110.51L453.68 115.34L456.37 120.3L458.88 125.36L461.18 130.53L463.29 135.81L465.2 141.19L466.9 146.66L468.4 152.22L469.67 157.86L470.72 163.59L471.55 169.39L472.14 175.27L472.51 181.21L472.62 187.22L472.51 193.22L472.14 199.17L471.55 205.03L470.72 210.83L469.67 216.56L468.4 222.21L466.9 227.78L465.2 233.25L463.29 238.62L461.18 243.9L458.88 249.08L456.37 254.14L453.68 259.09L450.81 263.93L447.76 268.64L444.54 273.22L441.13 277.68L437.58 281.99L433.86 286.16L429.98 290.19L425.95 294.07L421.77 297.79L417.46 301.35L413.01 304.75L408.42 307.97L403.71 311.03L398.88 313.9L393.92 316.59L388.87 319.1L383.69 321.4L378.4 323.51L373.03 325.42L367.56 327.12L361.99 328.62L356.34 329.9L350.62 330.94L344.81 331.78L338.94 332.37L333 332.73L326.99 332.85L320.99 332.73L315.05 332.37L309.17 331.78L303.36 330.94L297.64 329.9L291.99 328.62L286.43 327.12L280.96 325.42L275.58 323.51L270.3 321.4L265.13 319.1L260.06 316.59L255.11 313.9L250.28 311.03L245.57 307.97L240.98 304.75L236.53 301.35L232.21 297.79L228.04 294.07L224.01 290.19L220.14 286.16L216.42 281.99L212.86 277.68L209.46 273.22L206.23 268.64L203.18 263.93L200.31 259.09L197.61 254.14L195.11 249.08L192.8 243.9L190.7 238.62L188.79 233.25L187.08 227.78L185.59 222.21L184.32 216.56L183.26 210.83L182.44 205.03L181.84 199.17L181.48 193.22L181.36 187.22L181.48 181.21L181.84 175.27L182.44 169.39L183.26 163.59L184.32 157.86L185.59 152.22L187.08 146.66L188.79 141.19L190.7 135.81L192.8 130.53L195.11 125.36L197.61 120.3L200.31 115.34L203.18 110.51L206.23 105.8L209.46 101.21L212.86 96.76L216.42 92.44L220.14 88.27L224.01 84.24L228.04 80.36L232.21 76.64L236.53 73.08L240.98 69.68L245.57 66.46L250.28 63.41L255.11 60.53L260.06 57.84L265.13 55.34L270.3 53.02L275.58 50.92L280.96 49.01L286.43 47.3L291.99 45.82L297.64 44.54L303.36 43.49L309.17 42.66L315.05 42.07L320.99 41.7L326.99 41.58L333 41.7L338.94 42.07ZM316.26 56.58L310.98 57.12L305.76 57.86L300.61 58.81L295.54 59.96L290.53 61.31L285.61 62.84L280.77 64.56L276.02 66.47L271.37 68.54L266.81 70.8L262.35 73.22L258.01 75.81L253.76 78.56L249.63 81.47L245.63 84.53L241.75 87.73L237.98 91.09L234.35 94.58L230.87 98.2L227.51 101.97L224.31 105.85L221.25 109.85L218.34 113.98L215.59 118.23L212.99 122.57L210.58 127.04L208.32 131.59L206.24 136.25L204.33 140.99L202.61 145.83L201.08 150.76L199.74 155.76L198.59 160.83L197.64 165.98L196.89 171.2L196.36 176.48L196.03 181.82L195.92 187.22L196.03 192.61L196.36 197.95L196.89 203.23L197.64 208.45L198.59 213.59L199.74 218.67L201.08 223.68L202.61 228.6L204.33 233.44L206.24 238.19L208.32 242.84L210.58 247.4L212.99 251.86L215.59 256.2L218.34 260.45L221.25 264.58L224.31 268.58L227.51 272.46L230.87 276.22L234.35 279.86L237.98 283.34L241.75 286.69L245.63 289.9L249.63 292.96L253.76 295.87L258.01 298.62L262.35 301.21L266.81 303.64L271.37 305.89L276.02 307.97L280.77 309.87L285.61 311.6L290.53 313.13L295.54 314.47L300.61 315.61L305.76 316.56L310.98 317.32L316.26 317.85L321.59 318.18L326.99 318.29L332.39 318.18L337.73 317.85L343.01 317.32L348.23 316.56L353.37 315.61L358.45 314.47L363.46 313.13L368.38 311.6L373.22 309.87L377.96 307.97L382.62 305.89L387.17 303.64L391.64 301.21L395.98 298.62L400.23 295.87L404.35 292.96L408.36 289.9L412.24 286.69L416 283.35L419.64 279.86L423.12 276.22L426.47 272.47L429.68 268.58L432.74 264.58L435.65 260.45L438.4 256.21L440.98 251.86L443.41 247.4L445.66 242.84L447.74 238.19L449.65 233.44L451.37 228.6L452.9 223.68L454.25 218.67L455.39 213.59L456.34 208.45L457.09 203.23L457.63 197.95L457.96 192.61L458.07 187.22L457.96 181.82L457.63 176.48L457.09 171.21L456.34 165.98L455.39 160.83L454.25 155.76L452.9 150.76L451.37 145.83L449.65 141L447.74 136.25L445.66 131.59L443.41 127.04L440.98 122.57L438.4 118.23L435.65 113.98L432.74 109.85L429.68 105.85L426.47 101.97L423.12 98.2L419.64 94.58L416 91.09L412.24 87.73L408.36 84.53L404.35 81.47L400.23 78.56L395.98 75.81L391.64 73.22L387.17 70.8L382.62 68.54L377.96 66.47L373.22 64.56L368.38 62.84L363.46 61.31L358.45 59.96L353.37 58.81L348.23 57.86L343.01 57.12L337.73 56.58L332.39 56.25L326.99 56.14L321.59 56.25L316.26 56.58Z" id="b1bepOKvfz"></path><path d="M338.94 42.07L344.81 42.66L350.62 43.49L356.34 44.54L361.99 45.82L367.56 47.3L373.03 49.01L378.4 50.92L383.69 53.02L388.87 55.34L393.92 57.84L398.88 60.53L403.71 63.41L408.42 66.46L413.01 69.68L417.46 73.08L421.77 76.64L425.95 80.36L429.98 84.24L433.86 88.27L437.58 92.44L441.13 96.76L444.54 101.21L447.76 105.8L450.81 110.51L453.68 115.34L456.37 120.3L458.88 125.36L461.18 130.53L463.29 135.81L465.2 141.19L466.9 146.66L468.4 152.22L469.67 157.86L470.72 163.59L471.55 169.39L472.14 175.27L472.51 181.21L472.62 187.22L472.51 193.22L472.14 199.17L471.55 205.03L470.72 210.83L469.67 216.56L468.4 222.21L466.9 227.78L465.2 233.25L463.29 238.62L461.18 243.9L458.88 249.08L456.37 254.14L453.68 259.09L450.81 263.93L447.76 268.64L444.54 273.22L441.13 277.68L437.58 281.99L433.86 286.16L429.98 290.19L425.95 294.07L421.77 297.79L417.46 301.35L413.01 304.75L408.42 307.97L403.71 311.03L398.88 313.9L393.92 316.59L388.87 319.1L383.69 321.4L378.4 323.51L373.03 325.42L367.56 327.12L361.99 328.62L356.34 329.9L350.62 330.94L344.81 331.78L338.94 332.37L333 332.73L326.99 332.85L320.99 332.73L315.05 332.37L309.17 331.78L303.36 330.94L297.64 329.9L291.99 328.62L286.43 327.12L280.96 325.42L275.58 323.51L270.3 321.4L265.13 319.1L260.06 316.59L255.11 313.9L250.28 311.03L245.57 307.97L240.98 304.75L236.53 301.35L232.21 297.79L228.04 294.07L224.01 290.19L220.14 286.16L216.42 281.99L212.86 277.68L209.46 273.22L206.23 268.64L203.18 263.93L200.31 259.09L197.61 254.14L195.11 249.08L192.8 243.9L190.7 238.62L188.79 233.25L187.08 227.78L185.59 222.21L184.32 216.56L183.26 210.83L182.44 205.03L181.84 199.17L181.48 193.22L181.36 187.22L181.48 181.21L181.84 175.27L182.44 169.39L183.26 163.59L184.32 157.86L185.59 152.22L187.08 146.66L188.79 141.19L190.7 135.81L192.8 130.53L195.11 125.36L197.61 120.3L200.31 115.34L203.18 110.51L206.23 105.8L209.46 101.21L212.86 96.76L216.42 92.44L220.14 88.27L224.01 84.24L228.04 80.36L232.21 76.64L236.53 73.08L240.98 69.68L245.57 66.46L250.28 63.41L255.11 60.53L260.06 57.84L265.13 55.34L270.3 53.02L275.58 50.92L280.96 49.01L286.43 47.3L291.99 45.82L297.64 44.54L303.36 43.49L309.17 42.66L315.05 42.07L320.99 41.7L326.99 41.58L333 41.7L338.94 42.07ZM316.26 56.58L310.98 57.12L305.76 57.86L300.61 58.81L295.54 59.96L290.53 61.31L285.61 62.84L280.77 64.56L276.02 66.47L271.37 68.54L266.81 70.8L262.35 73.22L258.01 75.81L253.76 78.56L249.63 81.47L245.63 84.53L241.75 87.73L237.98 91.09L234.35 94.58L230.87 98.2L227.51 101.97L224.31 105.85L221.25 109.85L218.34 113.98L215.59 118.23L212.99 122.57L210.58 127.04L208.32 131.59L206.24 136.25L204.33 140.99L202.61 145.83L201.08 150.76L199.74 155.76L198.59 160.83L197.64 165.98L196.89 171.2L196.36 176.48L196.03 181.82L195.92 187.22L196.03 192.61L196.36 197.95L196.89 203.23L197.64 208.45L198.59 213.59L199.74 218.67L201.08 223.68L202.61 228.6L204.33 233.44L206.24 238.19L208.32 242.84L210.58 247.4L212.99 251.86L215.59 256.2L218.34 260.45L221.25 264.58L224.31 268.58L227.51 272.46L230.87 276.22L234.35 279.86L237.98 283.34L241.75 286.69L245.63 289.9L249.63 292.96L253.76 295.87L258.01 298.62L262.35 301.21L266.81 303.64L271.37 305.89L276.02 307.97L280.77 309.87L285.61 311.6L290.53 313.13L295.54 314.47L300.61 315.61L305.76 316.56L310.98 317.32L316.26 317.85L321.59 318.18L326.99 318.29L332.39 318.18L337.73 317.85L343.01 317.32L348.23 316.56L353.37 315.61L358.45 314.47L363.46 313.13L368.38 311.6L373.22 309.87L377.96 307.97L382.62 305.89L387.17 303.64L391.64 301.21L395.98 298.62L400.23 295.87L404.35 292.96L408.36 289.9L412.24 286.69L416 283.35L419.64 279.86L423.12 276.22L426.47 272.47L429.68 268.58L432.74 264.58L435.65 260.45L438.4 256.21L440.98 251.86L443.41 247.4L445.66 242.84L447.74 238.19L449.65 233.44L451.37 228.6L452.9 223.68L454.25 218.67L455.39 213.59L456.34 208.45L457.09 203.23L457.63 197.95L457.96 192.61L458.07 187.22L457.96 181.82L457.63 176.48L457.09 171.21L456.34 165.98L455.39 160.83L454.25 155.76L452.9 150.76L451.37 145.83L449.65 141L447.74 136.25L445.66 131.59L443.41 127.04L440.98 122.57L438.4 118.23L435.65 113.98L432.74 109.85L429.68 105.85L426.47 101.97L423.12 98.2L419.64 94.58L416 91.09L412.24 87.73L408.36 84.53L404.35 81.47L400.23 78.56L395.98 75.81L391.64 73.22L387.17 70.8L382.62 68.54L377.96 66.47L373.22 64.56L368.38 62.84L363.46 61.31L358.45 59.96L353.37 58.81L348.23 57.86L343.01 57.12L337.73 56.58L332.39 56.25L326.99 56.14L321.59 56.25L316.26 56.58Z" id="bMdgXbbe6"></path><path d="M110.49 351.89L111.63 352.01L112.75 352.17L113.86 352.38L114.96 352.62L116.04 352.92L117.1 353.25L118.14 353.62L119.17 354.03L120.17 354.49L121.16 354.97L122.12 355.49L123.06 356.06L123.98 356.65L124.87 357.28L125.73 357.94L126.57 358.63L127.38 359.36L128.16 360.12L128.93 360.9L129.65 361.71L130.34 362.55L131 363.42L131.63 364.31L132.23 365.22L132.79 366.16L133.31 367.12L133.8 368.11L134.25 369.11L134.67 370.14L135.03 371.18L135.37 372.25L135.66 373.33L135.9 374.42L136.11 375.54L136.27 376.65L136.39 377.79L136.46 378.95L136.49 380.11L136.49 402.54L137.5 402.27L138.55 401.98L139.65 401.68L140.76 401.38L141.93 401.07L143.12 400.74L144.35 400.42L145.6 400.08L146.88 399.73L148.19 399.39L149.52 399.03L150.88 398.67L152.26 398.3L153.67 397.92L155.08 397.55L156.52 397.17L157.98 396.78L159.45 396.4L160.93 396.01L162.43 395.62L163.93 395.23L165.45 394.84L166.97 394.44L168.49 394.05L170.03 393.66L171.56 393.26L173.1 392.87L174.64 392.48L176.17 392.09L177.71 391.71L179.23 391.32L180.76 390.95L182.27 390.57L183.78 390.2L185.27 389.84L186.75 389.47L188.22 389.11L189.67 388.77L191.11 388.43L192.53 388.1L193.22 387.94L193.9 387.77L194.57 387.62L195.25 387.46L195.91 387.3L196.57 387.16L197.23 387.01L197.87 386.86L198.51 386.72L199.15 386.57L199.78 386.43L201.03 386.16L201.63 386.03L202.24 385.9L202.84 385.77L203.43 385.64L204.02 385.52L204.59 385.39L205.16 385.29L205.73 385.17L206.28 385.06L206.84 384.94L207.38 384.84L207.91 384.73L208.96 384.53L209.48 384.43L209.98 384.34L210.48 384.25L210.97 384.17L211.45 384.09L211.92 384.01L212.39 383.93L212.85 383.86L213.3 383.79L213.74 383.72L214.6 383.6L215.01 383.54L215.13 383.53L215.24 383.51L215.35 383.5L215.46 383.49L215.57 383.47L215.68 383.46L215.79 383.45L215.9 383.44L216.01 383.42L216.11 383.41L216.22 383.4L216.65 383.36L216.75 383.35L217.19 383.31L217.29 383.3L217.4 383.3L217.5 383.29L217.61 383.29L217.71 383.28L217.82 383.27L217.93 383.27L218.04 383.26L218.15 383.26L218.26 383.25L218.37 383.25L218.48 383.24L218.58 383.24L218.69 383.23L219.03 383.23L219.15 383.22L219.66 383.22L219.81 383.23L220.11 383.23L220.25 383.24L220.4 383.24L220.53 383.25L220.68 383.26L220.82 383.27L220.97 383.27L221.11 383.28L221.26 383.29L221.39 383.3L221.53 383.3L221.68 383.32L221.82 383.33L221.96 383.34L222.11 383.35L222.25 383.37L222.38 383.38L222.53 383.4L222.67 383.41L222.82 383.43L222.96 383.45L223.11 383.46L223.26 383.48L223.39 383.5L223.54 383.52L223.69 383.54L223.99 383.58L224.14 383.6L224.28 383.62L224.43 383.64L224.59 383.66L224.74 383.69L224.9 383.71L225.06 383.73L225.22 383.76L225.36 383.78L225.52 383.8L225.68 383.83L225.84 383.86L226 383.88L226.17 383.91L226.32 383.93L226.48 383.96L226.65 383.99L226.82 384.02L226.98 384.05L227.15 384.08L227.31 384.1L227.48 384.13L227.66 384.17L228 384.23L228.17 384.25L228.34 384.28L228.52 384.31L228.7 384.35L229.05 384.41L229.23 384.45L229.41 384.48L229.6 384.52L229.78 384.55L229.97 384.59L230.14 384.62L230.33 384.66L230.52 384.7L230.71 384.74L230.9 384.77L231.08 384.81L231.28 384.85L231.47 384.89L231.67 384.93L231.86 384.97L232.05 385.01L232.25 385.05L232.65 385.14L233.04 385.22L233.45 385.3L233.87 385.38L234.7 385.56L235.11 385.66L235.54 385.75L235.97 385.85L236.41 385.94L236.84 386.04L237.29 386.14L237.74 386.24L238.19 386.34L238.65 386.45L239.1 386.55L239.57 386.66L240.03 386.77L240.51 386.88L240.98 386.99L241.46 387.11L241.94 387.21L242.43 387.33L242.92 387.45L243.91 387.69L244.42 387.81L244.92 387.94L245.43 388.06L245.94 388.18L246.46 388.31L246.98 388.44L247.5 388.57L248.03 388.7L248.56 388.83L249.1 388.97L249.64 389.09L250.18 389.23L250.73 389.37L251.27 389.51L252.38 389.79L253.5 390.07L254.64 390.36L255.79 390.66L256.94 390.96L258.11 391.26L259.29 391.57L260.49 391.88L261.7 392.19L262.91 392.52L264.14 392.85L265.38 393.17L266.63 393.5L267.89 393.84L269.16 394.18L270.43 394.52L271.72 394.87L273.02 395.22L274.32 395.58L275.64 395.93L276.97 396.29L278.29 396.66L279.63 397.02L280.98 397.39L283.69 398.14L285.05 398.52L286.43 398.89L287.8 399.28L289.19 399.67L290.58 400.05L291.97 400.44L293.37 400.83L294.77 401.23L296.18 401.62L297.59 402.02L299.01 402.42L300.43 402.82L301.85 403.23L303.28 403.62L304.63 404.01L305.99 404.4L307.35 404.78L308.71 405.17L310.07 405.56L311.43 405.95L312.79 406.35L314.16 406.73L315.53 407.13L316.89 407.51L318.26 407.91L319.61 408.31L320.98 408.69L322.34 409.09L323.71 409.48L325.07 409.88L326.43 410.27L327.79 410.66L329.14 411.06L331.86 411.85L333.2 412.23L334.55 412.63L335.89 413.03L337.23 413.41L338.58 413.81L339.9 414.19L341.24 414.58L342.56 414.98L343.88 415.36L345.2 415.75L346.51 416.13L347.82 416.51L349.12 416.9L350.41 417.28L351.71 417.66L352.99 418.03L354.26 418.41L355.54 418.79L356.81 419.16L431.26 373.56L432.04 373.12L432.51 372.88L432.98 372.66L433.46 372.43L433.93 372.21L434.42 371.99L434.91 371.79L435.4 371.58L435.89 371.38L436.39 371.18L436.89 370.98L437.4 370.79L437.9 370.62L438.42 370.44L438.93 370.26L439.45 370.09L439.97 369.93L440.5 369.78L441.02 369.63L441.56 369.48L442.09 369.34L442.62 369.2L443.17 369.07L444.26 368.84L444.8 368.73L445.36 368.63L445.91 368.53L446.46 368.44L447.03 368.35L447.59 368.28L448.16 368.21L448.73 368.14L449.3 368.08L449.87 368.04L450.45 367.99L451.03 367.96L451.61 367.94L452.19 367.92L452.78 367.91L453.37 367.91L454.47 367.92L455.56 367.95L456.64 368.01L457.72 368.1L458.79 368.21L459.85 368.35L460.9 368.5L461.95 368.69L462.98 368.89L464.02 369.11L465.04 369.36L466.05 369.63L467.06 369.92L468.05 370.24L469.04 370.57L470.01 370.92L470.98 371.3L471.93 371.7L472.88 372.11L473.81 372.56L474.73 373.01L475.64 373.49L476.54 373.97L477.43 374.49L478.3 375.02L479.16 375.58L480.02 376.14L480.86 376.72L481.68 377.33L482.49 377.94L483.28 378.58L484.07 379.24L484.84 379.9L485.59 380.58L486.33 381.29L487.05 382L487.77 382.73L488.46 383.48L489.14 384.25L489.79 385.02L509.24 373.48L509.9 373.12L510.37 372.88L510.84 372.66L511.31 372.43L511.8 372.21L512.28 371.99L512.76 371.79L513.25 371.58L513.75 371.38L514.25 371.18L514.75 370.98L515.25 370.79L515.76 370.62L516.27 370.44L516.78 370.26L517.31 370.09L517.82 369.93L518.35 369.78L518.88 369.63L519.41 369.48L519.94 369.34L520.49 369.2L521.02 369.07L522.11 368.84L522.66 368.73L523.77 368.53L524.32 368.44L524.89 368.35L525.45 368.28L526.02 368.21L526.58 368.14L527.16 368.08L527.73 368.04L528.3 367.99L528.89 367.96L529.47 367.94L530.06 367.92L530.64 367.91L531.22 367.91L532.37 367.92L533.5 367.95L534.63 368.02L535.75 368.12L536.85 368.24L537.95 368.38L539.05 368.55L540.13 368.75L541.21 368.96L542.28 369.21L543.34 369.48L544.39 369.77L545.43 370.08L546.46 370.42L547.47 370.78L548.48 371.16L549.47 371.57L550.46 371.99L551.43 372.44L552.39 372.91L553.34 373.4L554.28 373.91L555.2 374.44L556.11 374.99L557.02 375.56L557.9 376.15L558.77 376.75L559.63 377.39L560.47 378.03L561.29 378.69L562.1 379.38L562.89 380.07L563.68 380.79L564.44 381.52L565.19 382.27L565.92 383.04L566.64 383.82L567.33 384.61L568.01 385.42L568.67 386.25L569.1 386.07L569.54 385.88L569.97 385.69L570.42 385.51L570.85 385.33L571.3 385.16L571.74 384.99L572.2 384.82L572.64 384.66L573.1 384.5L573.56 384.34L574.02 384.2L574.48 384.05L574.95 383.91L575.41 383.77L575.88 383.64L576.35 383.51L576.83 383.38L577.3 383.27L577.79 383.16L578.26 383.05L578.75 382.94L579.23 382.84L579.73 382.74L580.21 382.65L580.71 382.57L581.2 382.49L581.7 382.41L582.2 382.35L582.71 382.29L583.21 382.23L583.72 382.18L584.22 382.13L584.74 382.09L585.25 382.06L585.77 382.03L586.28 382.01L586.81 381.99L587.32 381.98L587.84 381.98L589.8 382.02L591.74 382.14L593.66 382.34L595.56 382.6L597.43 382.95L599.29 383.36L601.1 383.86L602.89 384.41L604.64 385.04L606.36 385.73L608.05 386.48L609.71 387.3L611.33 388.17L612.9 389.11L614.45 390.11L615.94 391.17L617.4 392.28L618.81 393.44L620.17 394.66L621.49 395.92L622.75 397.24L623.97 398.61L625.14 400.02L626.25 401.48L627.29 402.97L628.29 404.52L629.23 406.09L630.11 407.71L630.93 409.36L631.69 411.06L632.37 412.78L633 414.53L633.56 416.32L634.04 418.14L634.46 419.98L634.81 421.85L635.07 423.75L635.27 425.68L635.39 427.61L635.43 429.57L635.42 430.72L635.38 431.86L635.32 433L635.22 434.14L635.11 435.26L634.96 436.38L634.8 437.5L634.61 438.61L634.39 439.72L634.15 440.82L633.89 441.91L633.59 442.98L633.27 444.05L632.94 445.11L632.57 446.16L632.18 447.21L631.77 448.24L631.33 449.26L630.88 450.27L630.39 451.26L629.89 452.25L629.35 453.22L628.81 454.17L628.22 455.12L627.63 456.04L627.01 456.95L626.36 457.85L625.7 458.73L625.02 459.6L624.31 460.44L623.57 461.27L622.82 462.09L622.05 462.89L621.26 463.66L620.44 464.41L619.6 465.15L618.74 465.87L617.86 466.56L616.96 467.24L616.04 467.89L614.52 468.94L612.91 470.05L611.24 471.21L609.49 472.42L607.67 473.69L605.79 474.99L603.83 476.35L601.81 477.75L599.72 479.2L597.57 480.69L595.37 482.23L593.1 483.8L590.77 485.42L588.4 487.08L585.96 488.76L583.48 490.49L580.94 492.24L578.35 494.03L575.72 495.85L573.05 497.72L570.32 499.6L567.56 501.51L564.75 503.44L561.9 505.4L559.02 507.38L556.1 509.38L553.16 511.4L550.18 513.44L547.16 515.51L544.12 517.59L541.04 519.68L537.95 521.79L534.83 523.9L531.69 526.03L528.53 528.17L525.34 530.32L522.15 532.46L518.93 534.62L515.7 536.79L512.47 538.95L509.21 541.12L502.68 545.46L499.4 547.63L496.12 549.78L492.84 551.94L489.56 554.09L486.28 556.23L483 558.36L479.73 560.48L476.46 562.59L473.2 564.68L469.94 566.77L466.7 568.83L463.48 570.88L460.26 572.9L457.05 574.91L453.88 576.9L450.71 578.87L447.56 580.81L444.44 582.73L441.34 584.62L438.26 586.49L435.2 588.32L432.18 590.13L429.18 591.9L426.22 593.64L423.29 595.35L420.39 597.02L417.53 598.66L414.69 600.25L411.91 601.8L409.16 603.33L406.45 604.79L403.79 606.23L401.18 607.61L398.6 608.96L396.07 610.25L393.59 611.49L391.17 612.69L390.49 613.02L389.8 613.35L389.12 613.68L388.45 614L387.77 614.31L387.11 614.62L386.45 614.93L385.8 615.23L384.49 615.83L383.85 616.12L383.2 616.4L382.57 616.69L381.94 616.97L381.31 617.23L380.69 617.51L380.06 617.77L379.45 618.02L378.84 618.28L378.23 618.53L377.63 618.78L377.03 619.01L376.43 619.25L375.84 619.49L375.24 619.71L374.66 619.93L374.09 620.15L373.51 620.36L372.94 620.57L372.37 620.78L371.8 620.97L371.25 621.16L370.68 621.35L370.13 621.53L369.58 621.71L369.04 621.89L368.49 622.05L367.95 622.21L367.42 622.37L366.89 622.52L366.6 622.6L366.33 622.68L366.04 622.75L365.76 622.83L365.48 622.89L365.2 622.96L364.92 623.03L364.37 623.17L364.09 623.23L363.81 623.3L363.54 623.36L363.26 623.42L362.99 623.48L362.72 623.54L362.44 623.59L362.17 623.64L361.89 623.7L361.63 623.75L361.35 623.79L361.08 623.83L360.81 623.87L360.54 623.91L360.26 623.95L359.99 623.99L359.72 624.03L359.45 624.06L359.17 624.09L358.91 624.12L358.63 624.15L358.36 624.17L358.08 624.19L357.81 624.21L357.54 624.23L357.26 624.25L356.99 624.26L356.71 624.27L356.43 624.28L355.52 624.28L355.15 624.27L354.78 624.26L354.4 624.25L354.03 624.24L353.63 624.22L353.23 624.2L352.84 624.18L352.43 624.16L352.02 624.13L351.6 624.1L351.18 624.07L350.74 624.03L350.3 624L349.86 623.96L349.4 623.91L348.95 623.87L348.48 623.82L348.02 623.79L347.53 623.74L347.06 623.68L346.56 623.63L346.07 623.57L345.56 623.51L345.05 623.45L344.52 623.38L344 623.32L343.47 623.25L342.93 623.18L342.38 623.11L341.82 623.03L341.26 622.96L340.69 622.88L340.11 622.81L339.53 622.73L338.93 622.65L338.33 622.56L337.73 622.47L335.85 622.2L335.22 622.1L334.58 622.01L333.93 621.91L333.27 621.82L332.62 621.72L331.27 621.5L330.59 621.4L329.91 621.29L329.21 621.18L328.51 621.06L327.81 620.95L327.1 620.84L326.38 620.72L325.66 620.6L324.2 620.36L323.45 620.23L322.7 620.11L321.95 619.98L321.2 619.86L320.43 619.73L319.66 619.6L318.89 619.46L318.11 619.33L317.33 619.19L316.54 619.05L315.73 618.92L314.93 618.78L314.13 618.63L313.32 618.49L312.5 618.34L311.69 618.2L310.86 618.05L310.02 617.91L309.19 617.76L308.35 617.6L307.51 617.45L306.66 617.29L304.95 616.99L303.21 616.67L301.47 616.34L299.71 616.03L297.93 615.69L296.14 615.35L294.33 615.02L292.51 614.67L290.67 614.32L288.82 613.98L286.96 613.62L285.09 613.26L283.2 612.9L281.31 612.53L279.4 612.17L277.49 611.8L275.56 611.42L273.63 611.04L271.68 610.66L269.73 610.28L267.77 609.89L265.81 609.5L263.84 609.12L261.86 608.72L259.88 608.33L257.9 607.93L255.91 607.53L253.91 607.14L249.91 606.33L247.91 605.93L245.91 605.52L241.89 604.71L239.89 604.3L237.88 603.89L235.88 603.49L233.88 603.08L231.89 602.66L229.89 602.26L226.95 601.66L224.01 601.05L221.09 600.45L218.18 599.84L215.28 599.24L212.4 598.64L209.54 598.04L206.69 597.45L203.87 596.86L201.08 596.27L198.3 595.69L195.55 595.11L192.83 594.54L190.15 593.97L187.49 593.41L184.86 592.86L182.28 592.31L179.73 591.77L177.21 591.23L174.75 590.71L172.32 590.19L169.93 589.68L167.59 589.19L165.3 588.69L163.06 588.2L160.86 587.74L158.73 587.28L156.64 586.83L154.61 586.39L152.64 585.97L150.73 585.56L148.88 585.16L147.09 584.77L145.36 584.39L143.71 584.04L142.12 583.69L140.61 583.37L139.16 583.05L137.78 582.75L136.49 582.47L136.49 599.51L136.46 600.66L136.39 601.81L136.27 602.95L136.11 604.08L135.9 605.19L135.66 606.29L135.37 607.37L135.03 608.43L134.67 609.47L134.25 610.49L133.81 611.5L133.31 612.48L132.79 613.45L132.23 614.39L131.63 615.3L131 616.19L130.34 617.06L129.65 617.91L128.93 618.72L128.16 619.5L127.38 620.25L126.57 620.97L125.73 621.67L124.87 622.33L123.98 622.96L123.06 623.56L122.12 624.12L121.16 624.65L120.18 625.13L119.17 625.58L118.14 625.99L117.1 626.37L116.04 626.69L114.96 626.99L113.86 627.24L112.75 627.44L111.63 627.61L110.49 627.72L109.34 627.79L108.17 627.81L30.33 627.81L29.16 627.79L28.02 627.72L26.88 627.61L25.75 627.44L24.64 627.24L23.54 626.99L22.46 626.69L21.4 626.37L20.36 625.99L19.34 625.58L18.33 625.13L17.35 624.65L16.39 624.12L15.45 623.56L14.53 622.96L13.63 622.33L12.77 621.67L11.93 620.97L11.12 620.25L10.33 619.5L9.58 618.72L8.85 617.91L8.16 617.06L7.5 616.19L6.86 615.3L6.27 614.39L5.72 613.45L5.19 612.48L4.7 611.5L4.25 610.49L3.84 609.47L3.47 608.43L3.13 607.37L2.85 606.29L2.6 605.19L2.39 604.08L2.23 602.95L2.12 601.81L2.05 600.66L2.02 599.51L2.02 380.11L2.05 378.95L2.12 377.8L2.23 376.66L2.39 375.54L2.6 374.43L2.85 373.33L3.13 372.25L3.47 371.19L3.84 370.14L4.25 369.12L4.7 368.11L5.19 367.13L5.72 366.16L6.27 365.22L6.86 364.31L7.5 363.42L8.16 362.55L8.85 361.71L9.58 360.9L10.33 360.12L11.12 359.36L11.93 358.64L12.77 357.94L13.63 357.29L14.53 356.65L15.45 356.06L16.39 355.49L17.35 354.97L18.33 354.49L19.34 354.04L20.36 353.62L21.4 353.25L22.46 352.92L23.54 352.62L24.64 352.38L25.75 352.17L26.88 352.01L28.02 351.89L29.16 351.82L30.33 351.8L108.17 351.8L109.34 351.82L110.49 351.89ZM30.04 373.04L29.76 373.06L29.48 373.09L29.19 373.13L28.93 373.18L28.65 373.25L28.38 373.32L28.11 373.4L27.86 373.5L27.6 373.61L27.35 373.72L27.1 373.84L26.87 373.97L26.63 374.11L26.4 374.26L26.18 374.42L25.97 374.59L25.75 374.76L25.55 374.94L25.35 375.13L25.16 375.33L24.98 375.54L24.81 375.74L24.64 375.96L24.48 376.19L24.32 376.42L24.19 376.65L24.06 376.89L23.93 377.14L23.82 377.39L23.71 377.64L23.62 377.9L23.53 378.17L23.46 378.44L23.39 378.7L23.34 378.98L23.3 379.26L23.27 379.54L23.26 379.82L23.26 599.78L23.27 600.07L23.3 600.36L23.34 600.64L23.39 600.9L23.46 601.18L23.53 601.45L23.62 601.71L23.71 601.97L23.82 602.23L23.93 602.48L24.06 602.72L24.19 602.96L24.32 603.2L24.48 603.43L24.64 603.65L24.81 603.86L24.98 604.08L25.16 604.28L25.35 604.48L25.55 604.66L25.75 604.85L25.97 605.03L26.18 605.19L26.4 605.35L26.63 605.5L26.87 605.64L27.1 605.77L27.35 605.9L27.6 606.01L27.86 606.12L28.11 606.21L28.38 606.3L28.65 606.37L28.93 606.44L29.19 606.48L29.48 606.52L29.76 606.55L30.04 606.57L108.37 606.57L108.56 606.56L108.75 606.53L108.93 606.5L109.12 606.46L109.31 606.42L109.5 606.37L109.69 606.3L109.87 606.22L110.05 606.14L110.24 606.04L110.42 605.94L110.61 605.83L110.78 605.71L110.97 605.58L111.15 605.45L111.33 605.3L111.51 605.15L111.69 604.98L111.86 604.81L112.04 604.62L112.21 604.44L112.39 604.24L112.57 604.03L112.73 603.81L112.91 603.59L113.08 603.36L113.25 603.11L113.43 602.86L113.6 602.6L113.76 602.33L113.93 602.05L114.1 601.76L114.27 601.47L114.44 601.16L114.6 600.84L114.76 600.53L114.92 600.19L115.09 599.85L115.25 599.5L115.25 379.82L115.23 379.54L115.2 379.26L115.16 378.98L115.11 378.7L115.04 378.44L114.97 378.17L114.88 377.9L114.79 377.64L114.68 377.39L114.58 377.14L114.45 376.89L114.32 376.65L114.17 376.42L114.02 376.19L113.86 375.96L113.69 375.74L113.53 375.54L113.34 375.33L113.15 375.13L112.95 374.94L112.75 374.76L112.54 374.59L112.32 374.42L112.1 374.26L111.87 374.11L111.64 373.97L111.4 373.84L111.15 373.72L110.9 373.61L110.65 373.5L110.39 373.4L110.12 373.32L109.85 373.25L109.58 373.18L109.31 373.13L109.02 373.09L108.75 373.06L108.46 373.04L108.17 373.03L30.33 373.03L30.04 373.04ZM452.48 389.14L452.19 389.16L451.88 389.18L451.58 389.2L451.28 389.22L450.99 389.25L450.69 389.29L450.39 389.32L450.1 389.36L449.8 389.41L449.51 389.46L449.22 389.51L448.93 389.56L448.63 389.62L448.35 389.68L448.05 389.75L447.76 389.82L447.47 389.89L447.18 389.97L446.89 390.04L446.6 390.12L446.32 390.21L445.46 390.48L445.18 390.58L444.89 390.69L444.6 390.79L444.32 390.9L444.04 391.01L443.75 391.12L443.48 391.24L443.19 391.36L442.91 391.49L442.62 391.62L442.35 391.75L442.06 391.89L441.78 392.02L384.17 427.31L384.7 427.48L385.22 427.63L385.75 427.78L386.27 427.94L386.78 428.1L387.3 428.26L387.8 428.41L388.32 428.55L388.81 428.71L389.32 428.86L389.81 429.01L390.3 429.16L390.79 429.31L391.27 429.46L391.75 429.59L392.23 429.74L392.7 429.88L393.17 430.03L393.63 430.17L394.09 430.31L394.54 430.44L395 430.58L395.45 430.71L395.89 430.85L396.34 430.98L396.77 431.12L397.2 431.25L397.62 431.38L398.05 431.5L398.46 431.63L398.88 431.75L399.29 431.88L399.69 432L400.88 432.36L401.26 432.47L402.02 432.7L402.39 432.82L403.06 433.02L403.72 433.23L404.37 433.44L405.04 433.66L405.7 433.88L406.35 434.1L407.01 434.32L408.32 434.8L408.97 435.04L410.28 435.53L410.92 435.78L411.58 436.05L412.22 436.3L412.86 436.57L413.51 436.84L414.14 437.12L414.78 437.4L415.42 437.69L416.05 437.98L417.32 438.57L418.56 439.18L419.81 439.82L420.43 440.14L421.04 440.47L421.65 440.81L422.26 441.15L422.86 441.49L423.46 441.85L424.07 442.2L424.66 442.56L425.26 442.92L425.84 443.3L426.42 443.68L427.01 444.06L427.59 444.45L428.16 444.85L428.73 445.25L429.29 445.66L429.86 446.06L430.41 446.49L430.97 446.9L431.52 447.34L432.06 447.77L432.6 448.22L433.13 448.68L433.67 449.13L434.72 450.06L435.23 450.54L435.74 451.02L436.24 451.52L436.75 452.01L437.23 452.52L437.72 453.02L438.2 453.54L438.68 454.06L439.14 454.59L439.6 455.13L440.05 455.67L440.5 456.23L440.93 456.78L441.37 457.35L441.79 457.92L442.21 458.49L442.62 459.09L443.02 459.68L443.41 460.27L443.79 460.89L444.17 461.5L444.53 462.13L444.89 462.75L445.24 463.39L445.57 464.04L445.91 464.69L446.23 465.34L446.43 465.79L446.63 466.23L446.84 466.68L447.03 467.13L447.22 467.58L447.4 468.04L447.58 468.5L447.75 468.96L447.93 469.43L448.09 469.89L448.25 470.37L448.4 470.84L448.55 471.32L448.7 471.8L448.84 472.28L448.98 472.77L449.11 473.25L449.23 473.73L449.35 474.23L449.46 474.72L449.57 475.22L449.67 475.71L449.77 476.22L449.86 476.72L450.04 477.73L450.11 478.24L450.18 478.75L450.25 479.27L450.3 479.78L450.35 480.3L450.4 480.82L450.45 481.34L450.48 481.86L450.52 482.38L450.54 482.92L450.56 483.44L450.58 483.98L450.58 484.5L450.59 485.04L450.54 487.16L450.41 489.24L450.21 491.31L449.91 493.36L449.54 495.38L449.09 497.36L448.56 499.32L447.97 501.25L447.3 503.14L446.55 505L445.73 506.82L444.85 508.6L443.91 510.35L442.89 512.06L441.82 513.71L440.68 515.32L439.49 516.9L438.23 518.41L436.92 519.89L435.56 521.3L434.14 522.67L432.67 523.97L431.15 525.23L429.58 526.43L427.97 527.57L426.31 528.63L424.61 529.64L422.87 530.59L421.08 531.47L419.26 532.29L417.41 533.03L415.51 533.7L413.59 534.3L411.63 534.83L409.64 535.27L407.62 535.65L405.58 535.94L403.51 536.16L401.42 536.28L399.3 536.32L398.78 536.32L369.75 533.47L275.95 521.44L275.52 521.38L274.67 521.2L274.26 521.08L273.86 520.95L273.46 520.81L273.08 520.65L272.69 520.48L272.33 520.29L271.96 520.08L271.61 519.88L271.27 519.65L270.93 519.4L270.61 519.15L270.3 518.89L270 518.61L269.7 518.32L269.43 518.02L269.16 517.72L268.9 517.4L268.66 517.07L268.43 516.74L268.21 516.39L268.01 516.04L267.81 515.68L267.63 515.31L267.48 514.94L267.33 514.55L267.19 514.15L267.07 513.77L266.97 513.36L266.88 512.96L266.81 512.54L266.75 512.13L266.71 511.71L266.69 511.28L266.68 510.86L266.69 510.42L266.72 510L266.77 509.56L266.84 509.13L266.92 508.7L267.02 508.28L267.13 507.87L267.26 507.46L267.41 507.07L267.56 506.68L267.74 506.3L267.93 505.93L268.13 505.56L268.35 505.22L268.57 504.87L268.81 504.54L269.07 504.22L269.33 503.9L269.6 503.6L269.89 503.31L270.19 503.03L270.5 502.76L270.82 502.51L271.15 502.27L271.48 502.04L271.83 501.82L272.18 501.61L272.54 501.43L272.91 501.25L273.29 501.08L273.67 500.93L274.06 500.8L274.45 500.68L274.86 500.58L275.26 500.49L275.68 500.42L276.1 500.36L276.51 500.32L276.94 500.3L277.36 500.29L277.8 500.31L278.22 500.33L278.66 500.38L372.16 512.38L399.55 515.06L400.18 515.06L400.78 515.03L401.39 515L402 514.95L402.59 514.89L403.19 514.82L403.79 514.74L404.37 514.64L404.96 514.54L405.54 514.42L406.11 514.29L406.69 514.15L407.26 514.01L407.83 513.85L408.38 513.68L408.94 513.49L409.49 513.3L410.03 513.11L411.1 512.67L411.64 512.44L412.15 512.2L412.68 511.95L413.19 511.69L413.7 511.41L414.2 511.14L414.69 510.85L415.18 510.55L415.67 510.24L416.14 509.92L416.62 509.6L417.08 509.27L417.99 508.57L418.44 508.21L418.87 507.84L419.31 507.46L419.72 507.08L420.15 506.68L420.55 506.29L420.96 505.87L421.36 505.45L421.74 505.02L422.13 504.58L422.5 504.14L422.86 503.69L423.22 503.24L423.56 502.77L423.9 502.3L424.23 501.82L424.55 501.35L424.86 500.85L425.17 500.36L425.45 499.86L425.74 499.35L426.01 498.84L426.27 498.32L426.52 497.8L426.77 497.27L427 496.74L427.22 496.19L427.43 495.65L427.64 495.09L427.83 494.54L428.01 493.97L428.17 493.41L428.33 492.84L428.48 492.26L428.62 491.69L428.75 491.1L428.97 489.92L429.06 489.32L429.14 488.72L429.2 488.12L429.25 487.51L429.3 486.9L429.33 486.28L429.35 485.66L429.36 485.04L429.35 484.73L429.35 484.42L429.34 484.13L429.33 483.83L429.29 483.24L429.27 482.95L429.25 482.65L429.22 482.36L429.19 482.09L429.16 481.8L429.13 481.52L429.1 481.25L429.06 480.97L429.01 480.7L428.96 480.44L428.91 480.17L428.86 479.9L428.81 479.63L428.75 479.37L428.69 479.11L428.62 478.85L428.56 478.59L428.49 478.34L428.42 478.09L428.34 477.83L428.27 477.59L428.19 477.34L428.12 477.09L427.94 476.6L427.85 476.36L427.76 476.11L427.67 475.87L427.57 475.63L427.47 475.4L427.37 475.16L427.26 474.92L427.16 474.69L427.05 474.46L426.94 474.23L426.83 473.99L426.59 473.54L426.47 473.31L426.21 472.85L426.09 472.63L425.96 472.41L425.82 472.18L425.68 471.95L425.54 471.74L425.39 471.52L425.25 471.29L425.1 471.07L424.95 470.86L424.8 470.64L424.64 470.42L424.48 470.2L424.32 469.98L424.15 469.78L423.99 469.56L423.81 469.34L423.64 469.13L423.46 468.92L423.29 468.71L423.11 468.5L422.73 468.08L422.54 467.88L422.36 467.67L421.76 467.04L421.55 466.85L421.36 466.64L421.15 466.43L420.93 466.23L420.72 466.04L420.5 465.83L420.07 465.43L419.61 465.04L419.16 464.64L418.68 464.25L418.2 463.87L417.7 463.48L417.21 463.11L416.69 462.73L416.17 462.36L415.64 462L415.1 461.63L414.55 461.27L413.99 460.93L413.42 460.57L412.84 460.23L412.26 459.89L411.67 459.55L411.06 459.22L410.46 458.89L409.84 458.56L409.21 458.25L408.58 457.94L407.94 457.62L407.3 457.32L406.65 457.02L405.99 456.72L404.66 456.15L403.98 455.87L403.29 455.59L402.61 455.33L401.92 455.06L401.22 454.8L400.52 454.54L399.81 454.3L399.1 454.05L398.38 453.81L397.66 453.57L396.94 453.35L396.22 453.13L394.03 452.47L391.7 451.75L389.23 451.01L386.62 450.22L383.88 449.4L381 448.54L378.03 447.64L374.93 446.71L371.73 445.75L368.43 444.77L365.04 443.76L361.56 442.72L358 441.66L354.37 440.58L350.67 439.49L346.91 438.37L343.09 437.25L339.23 436.12L335.32 434.97L331.37 433.82L327.4 432.66L323.4 431.49L319.39 430.34L315.37 429.17L311.33 428.01L307.3 426.85L303.28 425.7L299.28 424.56L295.29 423.43L291.32 422.31L287.4 421.21L283.5 420.12L279.66 419.05L275.87 418L272.13 416.98L268.46 415.99L264.85 415.01L261.33 414.07L257.89 413.16L254.54 412.27L253.44 411.99L252.36 411.7L251.29 411.42L250.23 411.16L249.18 410.88L248.15 410.62L247.12 410.35L246.1 410.11L245.1 409.85L244.11 409.6L243.14 409.36L242.18 409.13L241.23 408.89L240.29 408.66L239.37 408.44L238.47 408.23L237.58 408.01L236.71 407.8L235.84 407.6L235 407.4L234.17 407.22L233.36 407.03L232.57 406.85L231.8 406.67L231.04 406.5L230.3 406.35L229.58 406.19L228.88 406.04L228.19 405.9L227.53 405.76L226.89 405.63L226.26 405.5L225.66 405.39L225.08 405.28L224.52 405.17L223.98 405.08L223.46 404.98L222.97 404.9L222.49 404.82L222.04 404.75L221.93 404.73L221.81 404.72L221.7 404.7L221.6 404.69L221.49 404.67L221.38 404.66L221.29 404.64L221.09 404.62L220.99 404.6L220.9 404.59L220.8 404.58L220.62 404.56L220.54 404.55L220.45 404.54L220.38 404.53L220.31 404.52L220.23 404.52L220.09 404.51L220.02 404.51L219.96 404.5L219.89 404.5L219.84 404.49L219.78 404.49L219.73 404.48L219.68 404.48L219.63 404.47L219.52 404.47L219.49 404.46L219.21 404.46L219.16 404.47L219.11 404.47L219.06 404.48L218.94 404.48L218.87 404.49L218.8 404.5L218.73 404.5L218.65 404.51L218.57 404.52L218.4 404.53L218.31 404.54L218.11 404.56L218.01 404.57L217.9 404.59L217.79 404.6L217.68 404.61L217.57 404.63L217.46 404.64L217.34 404.66L217.21 404.68L217.09 404.69L216.96 404.71L216.83 404.73L216.7 404.75L216.56 404.77L216.44 404.79L216.3 404.81L216.16 404.83L216.02 404.86L215.87 404.88L215.72 404.91L215.58 404.93L215.43 404.96L215.27 404.98L215.12 405.01L214.96 405.04L214.8 405.06L214.64 405.09L214.48 405.12L214.31 405.15L214.14 405.18L213.97 405.21L213.8 405.24L213.63 405.27L213.45 405.31L213.27 405.34L213.09 405.37L212.91 405.41L212.74 405.44L212.55 405.48L212.36 405.5L211.98 405.58L211.8 405.61L211.6 405.65L211.41 405.69L211.21 405.73L211.01 405.77L210.81 405.81L210.62 405.85L210.41 405.89L210.21 405.93L210 405.97L209.8 406.02L209.38 406.1L209.17 406.15L208.95 406.19L208.75 406.24L208.31 406.33L207.87 406.42L207.43 406.51L206.97 406.6L206.52 406.7L206.06 406.8L205.6 406.9L205.12 407.01L204.65 407.11L204.17 407.22L203.69 407.33L203.2 407.43L202.21 407.65L201.71 407.77L201.2 407.88L200.7 408L200.19 408.12L199.67 408.24L199.15 408.35L198.62 408.48L198.1 408.6L197.57 408.73L197.04 408.85L196.49 408.98L195.96 409.11L195.41 409.24L194.87 409.36L194.32 409.49L193.77 409.63L193.22 409.76L192.65 409.9L192.1 410.03L191.54 410.17L190.97 410.3L190.41 410.44L189.84 410.58L189.27 410.72L188.69 410.86L188.12 411.01L186.97 411.28L185.82 411.57L184.66 411.87L183.49 412.16L182.31 412.45L181.14 412.75L179.97 413.05L178.79 413.34L177.61 413.64L176.43 413.94L175.25 414.24L174.08 414.54L172.9 414.85L171.72 415.15L170.55 415.45L169.4 415.76L168.23 416.05L167.08 416.36L164.78 416.95L163.65 417.25L162.53 417.55L161.42 417.85L160.31 418.13L159.21 418.43L158.13 418.72L157.05 419L155.99 419.28L154.96 419.56L153.92 419.84L152.91 420.11L151.91 420.38L150.92 420.64L149.95 420.9L149 421.15L148.07 421.41L147.16 421.66L146.27 421.89L145.39 422.13L144.54 422.36L144.3 422.43L144.06 422.49L143.82 422.56L143.58 422.63L143.35 422.69L143.11 422.74L142.88 422.81L142.65 422.87L142.43 422.93L142.2 422.99L141.98 423.06L141.75 423.12L141.54 423.18L141.33 423.24L141.11 423.3L140.9 423.35L140.68 423.41L140.48 423.47L140.28 423.53L140.07 423.58L139.87 423.64L139.67 423.68L139.48 423.74L139.28 423.79L139.09 423.84L138.9 423.9L138.71 423.95L138.53 424L138.35 424.05L138.16 424.1L137.98 424.15L137.81 424.2L137.64 424.25L137.47 424.29L137.3 424.34L137.13 424.39L136.96 424.43L136.8 424.48L136.65 424.52L136.49 424.57L136.49 560.74L136.81 560.81L137.14 560.88L137.48 560.96L137.83 561.03L138.19 561.11L138.56 561.19L138.93 561.26L139.32 561.35L139.71 561.44L140.12 561.53L140.54 561.62L141.39 561.8L142.28 562L142.74 562.1L143.21 562.2L143.68 562.3L144.17 562.4L145.16 562.62L145.67 562.73L146.19 562.85L146.72 562.96L147.26 563.08L148.34 563.31L148.91 563.43L149.47 563.56L150.05 563.68L150.63 563.81L151.22 563.94L151.83 564.07L152.43 564.19L153.05 564.33L153.67 564.46L154.3 564.6L155.59 564.88L156.24 565.02L157.39 565.26L158.55 565.52L159.74 565.77L160.93 566.04L162.16 566.29L163.4 566.56L164.66 566.84L165.94 567.1L167.24 567.39L168.55 567.67L169.89 567.95L171.25 568.24L172.61 568.54L174 568.84L175.39 569.13L176.81 569.43L178.24 569.74L179.69 570.04L181.14 570.36L182.62 570.67L184.11 570.98L185.61 571.31L187.12 571.63L188.66 571.95L190.19 572.28L191.74 572.61L193.31 572.94L194.89 573.27L196.47 573.61L198.07 573.94L199.68 574.28L201.29 574.63L202.92 574.96L204.56 575.31L206.2 575.66L207.86 576L209.52 576.35L211.18 576.69L212.86 577.05L214.55 577.4L217.93 578.1L221.34 578.81L224.77 579.52L228.21 580.24L231.68 580.95L235.15 581.66L238.64 582.38L242.13 583.09L249.12 584.51L252.61 585.22L256.09 585.92L259.58 586.62L263.04 587.31L266.5 588L269.94 588.68L273.35 589.35L276.75 590.03L280.11 590.68L283.45 591.32L286.76 591.97L290.03 592.59L293.26 593.21L296.45 593.82L299.6 594.4L302.71 594.98L305.76 595.55L308.76 596.09L311.7 596.63L314.59 597.15L317.41 597.65L320.17 598.13L322.86 598.6L325.48 599.04L328.03 599.47L330.5 599.87L332.9 600.26L335.2 600.63L337.43 600.96L339.57 601.29L340.15 601.37L340.73 601.46L341.31 601.54L341.87 601.63L342.44 601.7L343.53 601.85L344.06 601.92L344.59 601.99L345.11 602.06L345.62 602.12L346.13 602.19L346.62 602.25L347.11 602.31L347.58 602.37L348.05 602.42L348.5 602.47L348.95 602.53L349.38 602.57L349.81 602.62L350.23 602.65L350.63 602.7L351.03 602.73L351.4 602.77L351.78 602.81L352.14 602.84L352.49 602.87L352.83 602.9L353.15 602.92L353.46 602.94L353.77 602.97L354.06 602.98L354.33 603L354.59 603.01L354.84 603.03L355.07 603.03L355.3 603.04L355.51 603.05L356.06 603.05L356.13 603.04L356.28 603.04L356.55 603.01L356.85 602.98L356.96 602.97L357.06 602.96L357.3 602.92L357.43 602.9L357.55 602.88L357.69 602.86L357.82 602.84L357.96 602.82L358.09 602.79L358.24 602.76L358.39 602.74L358.54 602.71L358.7 602.68L358.86 602.65L359.01 602.62L359.18 602.58L359.35 602.54L359.52 602.5L359.69 602.46L359.86 602.42L360.04 602.38L360.23 602.33L360.41 602.28L360.6 602.23L360.79 602.18L360.98 602.13L361.38 602.01L361.58 601.96L361.77 601.9L361.98 601.84L362.19 601.77L362.41 601.71L362.62 601.65L362.83 601.58L363.05 601.52L363.27 601.44L363.5 601.37L363.73 601.3L363.95 601.22L364.18 601.14L364.41 601.06L364.65 600.98L364.88 600.9L365.12 600.81L365.36 600.73L365.61 600.65L365.85 600.56L366.1 600.47L366.35 600.38L366.59 600.28L366.85 600.19L367.11 600.09L367.37 599.99L367.62 599.89L367.89 599.79L368.16 599.7L368.42 599.59L368.69 599.49L368.96 599.38L369.23 599.27L369.51 599.16L369.78 599.05L370.06 598.93L370.34 598.82L370.62 598.71L370.9 598.59L371.47 598.35L372.05 598.1L372.64 597.85L373.24 597.6L373.83 597.34L374.44 597.07L375.06 596.8L375.67 596.52L376.29 596.23L376.93 595.94L378.21 595.35L378.87 595.04L379.53 594.73L380.19 594.41L380.87 594.09L381.54 593.77L382.22 593.43L382.92 593.09L383.61 592.76L384.3 592.4L385.01 592.05L385.73 591.7L386.44 591.33L387.16 590.97L387.88 590.6L388.62 590.22L389.36 589.84L390.1 589.45L390.85 589.07L391.61 588.67L392.36 588.26L393.12 587.86L393.89 587.45L394.66 587.04L395.45 586.62L396.23 586.21L397.01 585.78L397.8 585.34L398.59 584.91L400.2 584.03L401.82 583.13L403.46 582.22L405.11 581.29L406.79 580.34L408.47 579.38L410.17 578.41L411.89 577.42L413.63 576.42L415.37 575.4L417.12 574.37L418.89 573.32L420.68 572.27L422.47 571.2L424.29 570.11L426.11 569.02L427.94 567.92L429.78 566.8L431.63 565.68L433.49 564.54L435.36 563.39L437.24 562.24L439.13 561.07L441.03 559.89L442.94 558.7L444.85 557.51L446.77 556.31L448.7 555.1L450.63 553.87L452.57 552.65L454.52 551.42L456.47 550.18L458.43 548.93L460.39 547.68L462.35 546.42L466.29 543.89L468.27 542.61L470.24 541.33L472.22 540.05L476.19 537.46L480.15 534.87L484.12 532.27L488.08 529.65L492.05 527.03L496 524.41L499.94 521.79L503.87 519.16L507.78 516.54L511.67 513.93L515.53 511.32L519.37 508.73L523.18 506.15L526.96 503.59L530.7 501.03L534.4 498.51L538.06 496L541.68 493.53L545.26 491.08L548.77 488.66L552.24 486.27L555.65 483.92L559 481.6L562.29 479.34L565.52 477.1L568.67 474.91L571.75 472.78L574.77 470.69L577.7 468.66L580.55 466.67L583.32 464.75L586 462.88L588.6 461.08L591.1 459.34L593.51 457.67L595.81 456.07L598.02 454.53L600.12 453.08L602.12 451.7L604.01 450.4L604.46 450.08L604.91 449.75L605.34 449.41L605.78 449.04L606.19 448.68L606.61 448.29L607.02 447.89L607.41 447.49L607.8 447.07L608.17 446.64L608.54 446.2L608.91 445.75L609.25 445.28L609.59 444.82L609.92 444.33L610.23 443.84L610.54 443.33L610.84 442.82L611.12 442.29L611.4 441.76L611.66 441.22L611.9 440.67L612.15 440.11L612.38 439.55L612.59 438.98L612.8 438.39L612.98 437.81L613.16 437.2L613.33 436.6L613.48 436L613.62 435.37L613.85 434.13L613.94 433.49L614.03 432.85L614.1 432.21L614.15 431.55L614.19 430.9L614.22 430.24L614.23 429.57L614.22 429.02L614.21 428.49L614.18 427.94L614.14 427.41L614.09 426.87L614.03 426.34L613.96 425.81L613.88 425.29L613.8 424.77L613.7 424.25L613.59 423.74L613.46 423.23L613.33 422.73L613.19 422.23L613.04 421.73L612.88 421.24L612.72 420.75L612.54 420.27L612.35 419.79L612.16 419.31L611.95 418.85L611.75 418.38L611.52 417.92L611.29 417.46L611.05 417.01L610.81 416.57L610.55 416.13L610.28 415.7L610.01 415.26L609.73 414.85L609.44 414.42L609.14 414.02L608.85 413.61L608.53 413.2L608.21 412.81L607.89 412.42L607.55 412.04L607.21 411.66L606.87 411.29L606.51 410.93L606.14 410.57L605.78 410.22L605.4 409.89L605.02 409.55L604.63 409.23L604.23 408.91L603.83 408.59L603.42 408.29L603.02 408L602.59 407.7L602.18 407.42L601.74 407.16L601.3 406.89L600.87 406.63L600.42 406.39L599.98 406.15L599.52 405.92L599.06 405.69L598.59 405.49L598.13 405.28L597.65 405.08L597.18 404.9L596.69 404.72L596.21 404.55L595.71 404.4L595.22 404.25L594.71 404.11L594.21 403.97L593.7 403.85L593.19 403.74L592.67 403.64L592.16 403.55L591.63 403.48L591.11 403.41L590.58 403.35L590.04 403.3L589.51 403.26L588.97 403.23L587.88 403.21L587.58 403.21L587.27 403.22L586.97 403.23L586.67 403.24L586.37 403.26L586.06 403.28L585.77 403.31L585.47 403.33L585.17 403.37L584.88 403.4L584.58 403.44L584.28 403.49L583.98 403.53L583.69 403.58L583.39 403.63L583.1 403.69L582.81 403.75L582.52 403.82L582.22 403.89L581.94 403.96L581.65 404.04L581.35 404.12L581.07 404.2L580.78 404.29L580.49 404.38L580.2 404.48L579.92 404.56L579.63 404.66L579.34 404.77L578.77 404.99L578.48 405.1L578.19 405.22L577.92 405.34L577.63 405.46L577.34 405.58L577.07 405.71L576.78 405.84L576.5 405.98L576.22 406.12L573.62 407.66L573.54 407.76L573.45 407.86L573.38 407.96L573.29 408.06L573.21 408.16L573.12 408.26L573.03 408.35L572.94 408.44L572.85 408.54L572.76 408.63L572.57 408.82L572.47 408.91L572.39 409L572.19 409.18L572.09 409.27L571.99 409.34L571.88 409.43L571.78 409.51L571.67 409.59L571.57 409.67L571.25 409.91L571.14 409.98L571.02 410.06L570.91 410.13L570.79 410.2L570.68 410.26L570.56 410.33L570.45 410.4L570.33 410.47L570.21 410.53L570.09 410.59L569.96 410.66L569.84 410.72L569.71 410.78L569.58 410.83L569.46 410.89L569.4 410.91L569.34 410.94L569.28 410.96L569.22 410.99L569.16 411.01L569.1 411.03L569.04 411.06L568.98 411.08L568.92 411.1L568.8 411.14L568.74 411.16L568.68 411.18L568.62 411.2L568.57 411.22L568.5 411.24L568.44 411.25L568.38 411.27L568.32 411.28L568.26 411.3L568.2 411.31L568.14 411.33L568.08 411.34L568.02 411.36L567.95 411.37L567.89 411.39L567.83 411.4L567.77 411.42L567.71 411.43L567.65 411.44L567.6 411.46L567.54 411.47L567.47 411.48L567.41 411.49L567.35 411.5L567.29 411.52L567.23 411.53L567.11 411.55L567.05 411.56L483.86 460.9L483.47 461.12L483.08 461.31L482.7 461.49L482.3 461.66L481.91 461.81L481.5 461.94L481.1 462.06L480.69 462.15L480.28 462.23L479.88 462.29L479.46 462.34L479.06 462.37L478.64 462.39L478.23 462.39L477.82 462.37L477.41 462.34L477.01 462.29L476.61 462.23L476.21 462.16L475.81 462.06L475.41 461.95L475.03 461.83L474.64 461.69L474.27 461.54L473.89 461.37L473.52 461.19L473.17 461L472.81 460.78L472.46 460.56L472.13 460.32L471.8 460.07L471.48 459.8L471.17 459.52L470.87 459.23L470.58 458.92L470.31 458.6L470.04 458.27L469.78 457.92L469.54 457.56L469.31 457.2L469.09 456.81L468.89 456.42L468.7 456.04L468.55 455.64L468.4 455.25L468.27 454.84L468.15 454.44L468.06 454.03L467.97 453.62L467.91 453.21L467.86 452.8L467.83 452.39L467.81 451.98L467.81 451.57L467.83 451.16L467.86 450.75L467.91 450.35L467.97 449.94L468.05 449.55L468.14 449.15L468.25 448.75L468.38 448.37L468.52 447.98L468.66 447.61L468.83 447.23L469.01 446.86L469.21 446.51L469.42 446.15L469.64 445.81L469.88 445.47L470.14 445.14L470.41 444.82L470.68 444.51L470.97 444.21L471.28 443.93L471.6 443.64L471.93 443.37L472.28 443.11L472.64 442.88L473.01 442.65L549.95 397.01L549.58 396.66L549.22 396.3L548.84 395.95L548.46 395.62L548.07 395.29L547.68 394.96L547.28 394.65L546.87 394.34L546.46 394.03L546.04 393.75L545.61 393.46L545.19 393.18L544.75 392.91L544.31 392.65L543.86 392.39L543.42 392.15L542.96 391.92L542.5 391.69L542.03 391.47L541.56 391.25L541.08 391.05L540.6 390.87L540.11 390.68L539.63 390.51L539.13 390.35L538.63 390.19L538.13 390.05L537.62 389.92L537.11 389.8L536.6 389.68L536.07 389.58L535.56 389.48L535.02 389.4L534.5 389.33L533.97 389.27L533.43 389.22L532.9 389.18L532.35 389.15L531.81 389.13L530.96 389.13L530.34 389.15L530.05 389.16L529.74 389.18L529.44 389.2L529.15 389.22L528.85 389.25L528.54 389.29L528.24 389.32L527.95 389.36L527.65 389.41L527.36 389.46L527.07 389.51L526.77 389.56L526.47 389.62L526.19 389.68L525.89 389.75L525.6 389.82L525.3 389.89L524.73 390.04L524.44 390.12L524.15 390.21L523.57 390.39L523.29 390.49L523 390.59L522.71 390.7L522.43 390.8L522.15 390.91L521.57 391.14L521.29 391.26L521.01 391.38L520.72 391.51L520.44 391.64L520.16 391.77L519.87 391.91L519.59 392.04L453.52 431.23L453.13 431.45L452.75 431.64L452.36 431.82L451.97 431.99L451.57 432.14L451.17 432.27L450.76 432.38L450.35 432.47L449.95 432.55L449.54 432.62L449.13 432.66L448.72 432.7L448.31 432.71L447.9 432.71L447.48 432.69L447.08 432.66L446.67 432.61L446.28 432.55L445.87 432.47L445.47 432.39L445.08 432.28L444.69 432.15L444.31 432.01L443.93 431.86L443.56 431.69L443.19 431.5L442.83 431.32L442.48 431.1L442.13 430.88L441.79 430.64L441.47 430.39L441.15 430.12L440.83 429.84L440.54 429.54L440.25 429.24L439.97 428.92L439.7 428.58L439.45 428.24L439.2 427.88L438.97 427.52L438.75 427.13L438.56 426.74L438.37 426.36L438.21 425.96L438.06 425.57L437.93 425.16L437.81 424.75L437.64 423.94L437.58 423.54L437.53 423.12L437.5 422.72L437.48 422.3L437.48 421.89L437.5 421.48L437.53 421.07L437.58 420.67L437.64 420.27L437.72 419.87L437.81 419.47L437.92 419.07L438.04 418.69L438.18 418.3L438.33 417.93L438.5 417.55L438.69 417.18L438.87 416.83L439.09 416.47L439.31 416.12L439.55 415.79L439.8 415.46L440.07 415.14L440.35 414.84L440.64 414.53L440.95 414.24L441.27 413.97L441.61 413.7L441.95 413.44L442.31 413.19L442.67 412.97L471.14 396.09L470.79 395.77L470.43 395.46L470.06 395.15L469.69 394.85L469.32 394.55L468.93 394.26L468.16 393.71L467.75 393.44L467.36 393.18L466.95 392.94L466.54 392.69L466.12 392.45L465.7 392.21L465.28 392L464.84 391.78L464.41 391.57L463.97 391.37L463.53 391.17L463.08 390.99L462.64 390.82L462.18 390.65L461.72 390.49L461.25 390.33L460.79 390.19L460.32 390.05L459.85 389.94L459.37 389.82L458.89 389.71L458.4 389.61L457.92 389.52L457.42 389.44L456.93 389.36L456.43 389.3L455.94 389.25L455.43 389.2L454.93 389.17L454.41 389.14L453.91 389.13L452.79 389.13L452.48 389.14Z" id="dCZ8bIzae"></path><path d="M110.49 351.89L111.63 352.01L112.75 352.17L113.86 352.38L114.96 352.62L116.04 352.92L117.1 353.25L118.14 353.62L119.17 354.03L120.17 354.49L121.16 354.97L122.12 355.49L123.06 356.06L123.98 356.65L124.87 357.28L125.73 357.94L126.57 358.63L127.38 359.36L128.16 360.12L128.93 360.9L129.65 361.71L130.34 362.55L131 363.42L131.63 364.31L132.23 365.22L132.79 366.16L133.31 367.12L133.8 368.11L134.25 369.11L134.67 370.14L135.03 371.18L135.37 372.25L135.66 373.33L135.9 374.42L136.11 375.54L136.27 376.65L136.39 377.79L136.46 378.95L136.49 380.11L136.49 402.54L137.5 402.27L138.55 401.98L139.65 401.68L140.76 401.38L141.93 401.07L143.12 400.74L144.35 400.42L145.6 400.08L146.88 399.73L148.19 399.39L149.52 399.03L150.88 398.67L152.26 398.3L153.67 397.92L155.08 397.55L156.52 397.17L157.98 396.78L159.45 396.4L160.93 396.01L162.43 395.62L163.93 395.23L165.45 394.84L166.97 394.44L168.49 394.05L170.03 393.66L171.56 393.26L173.1 392.87L174.64 392.48L176.17 392.09L177.71 391.71L179.23 391.32L180.76 390.95L182.27 390.57L183.78 390.2L185.27 389.84L186.75 389.47L188.22 389.11L189.67 388.77L191.11 388.43L192.53 388.1L193.22 387.94L193.9 387.77L194.57 387.62L195.25 387.46L195.91 387.3L196.57 387.16L197.23 387.01L197.87 386.86L198.51 386.72L199.15 386.57L199.78 386.43L201.03 386.16L201.63 386.03L202.24 385.9L202.84 385.77L203.43 385.64L204.02 385.52L204.59 385.39L205.16 385.29L205.73 385.17L206.28 385.06L206.84 384.94L207.38 384.84L207.91 384.73L208.96 384.53L209.48 384.43L209.98 384.34L210.48 384.25L210.97 384.17L211.45 384.09L211.92 384.01L212.39 383.93L212.85 383.86L213.3 383.79L213.74 383.72L214.6 383.6L215.01 383.54L215.13 383.53L215.24 383.51L215.35 383.5L215.46 383.49L215.57 383.47L215.68 383.46L215.79 383.45L215.9 383.44L216.01 383.42L216.11 383.41L216.22 383.4L216.65 383.36L216.75 383.35L217.19 383.31L217.29 383.3L217.4 383.3L217.5 383.29L217.61 383.29L217.71 383.28L217.82 383.27L217.93 383.27L218.04 383.26L218.15 383.26L218.26 383.25L218.37 383.25L218.48 383.24L218.58 383.24L218.69 383.23L219.03 383.23L219.15 383.22L219.66 383.22L219.81 383.23L220.11 383.23L220.25 383.24L220.4 383.24L220.53 383.25L220.68 383.26L220.82 383.27L220.97 383.27L221.11 383.28L221.26 383.29L221.39 383.3L221.53 383.3L221.68 383.32L221.82 383.33L221.96 383.34L222.11 383.35L222.25 383.37L222.38 383.38L222.53 383.4L222.67 383.41L222.82 383.43L222.96 383.45L223.11 383.46L223.26 383.48L223.39 383.5L223.54 383.52L223.69 383.54L223.99 383.58L224.14 383.6L224.28 383.62L224.43 383.64L224.59 383.66L224.74 383.69L224.9 383.71L225.06 383.73L225.22 383.76L225.36 383.78L225.52 383.8L225.68 383.83L225.84 383.86L226 383.88L226.17 383.91L226.32 383.93L226.48 383.96L226.65 383.99L226.82 384.02L226.98 384.05L227.15 384.08L227.31 384.1L227.48 384.13L227.66 384.17L228 384.23L228.17 384.25L228.34 384.28L228.52 384.31L228.7 384.35L229.05 384.41L229.23 384.45L229.41 384.48L229.6 384.52L229.78 384.55L229.97 384.59L230.14 384.62L230.33 384.66L230.52 384.7L230.71 384.74L230.9 384.77L231.08 384.81L231.28 384.85L231.47 384.89L231.67 384.93L231.86 384.97L232.05 385.01L232.25 385.05L232.65 385.14L233.04 385.22L233.45 385.3L233.87 385.38L234.7 385.56L235.11 385.66L235.54 385.75L235.97 385.85L236.41 385.94L236.84 386.04L237.29 386.14L237.74 386.24L238.19 386.34L238.65 386.45L239.1 386.55L239.57 386.66L240.03 386.77L240.51 386.88L240.98 386.99L241.46 387.11L241.94 387.21L242.43 387.33L242.92 387.45L243.91 387.69L244.42 387.81L244.92 387.94L245.43 388.06L245.94 388.18L246.46 388.31L246.98 388.44L247.5 388.57L248.03 388.7L248.56 388.83L249.1 388.97L249.64 389.09L250.18 389.23L250.73 389.37L251.27 389.51L252.38 389.79L253.5 390.07L254.64 390.36L255.79 390.66L256.94 390.96L258.11 391.26L259.29 391.57L260.49 391.88L261.7 392.19L262.91 392.52L264.14 392.85L265.38 393.17L266.63 393.5L267.89 393.84L269.16 394.18L270.43 394.52L271.72 394.87L273.02 395.22L274.32 395.58L275.64 395.93L276.97 396.29L278.29 396.66L279.63 397.02L280.98 397.39L283.69 398.14L285.05 398.52L286.43 398.89L287.8 399.28L289.19 399.67L290.58 400.05L291.97 400.44L293.37 400.83L294.77 401.23L296.18 401.62L297.59 402.02L299.01 402.42L300.43 402.82L301.85 403.23L303.28 403.62L304.63 404.01L305.99 404.4L307.35 404.78L308.71 405.17L310.07 405.56L311.43 405.95L312.79 406.35L314.16 406.73L315.53 407.13L316.89 407.51L318.26 407.91L319.61 408.31L320.98 408.69L322.34 409.09L323.71 409.48L325.07 409.88L326.43 410.27L327.79 410.66L329.14 411.06L331.86 411.85L333.2 412.23L334.55 412.63L335.89 413.03L337.23 413.41L338.58 413.81L339.9 414.19L341.24 414.58L342.56 414.98L343.88 415.36L345.2 415.75L346.51 416.13L347.82 416.51L349.12 416.9L350.41 417.28L351.71 417.66L352.99 418.03L354.26 418.41L355.54 418.79L356.81 419.16L431.26 373.56L432.04 373.12L432.51 372.88L432.98 372.66L433.46 372.43L433.93 372.21L434.42 371.99L434.91 371.79L435.4 371.58L435.89 371.38L436.39 371.18L436.89 370.98L437.4 370.79L437.9 370.62L438.42 370.44L438.93 370.26L439.45 370.09L439.97 369.93L440.5 369.78L441.02 369.63L441.56 369.48L442.09 369.34L442.62 369.2L443.17 369.07L444.26 368.84L444.8 368.73L445.36 368.63L445.91 368.53L446.46 368.44L447.03 368.35L447.59 368.28L448.16 368.21L448.73 368.14L449.3 368.08L449.87 368.04L450.45 367.99L451.03 367.96L451.61 367.94L452.19 367.92L452.78 367.91L453.37 367.91L454.47 367.92L455.56 367.95L456.64 368.01L457.72 368.1L458.79 368.21L459.85 368.35L460.9 368.5L461.95 368.69L462.98 368.89L464.02 369.11L465.04 369.36L466.05 369.63L467.06 369.92L468.05 370.24L469.04 370.57L470.01 370.92L470.98 371.3L471.93 371.7L472.88 372.11L473.81 372.56L474.73 373.01L475.64 373.49L476.54 373.97L477.43 374.49L478.3 375.02L479.16 375.58L480.02 376.14L480.86 376.72L481.68 377.33L482.49 377.94L483.28 378.58L484.07 379.24L484.84 379.9L485.59 380.58L486.33 381.29L487.05 382L487.77 382.73L488.46 383.48L489.14 384.25L489.79 385.02L509.24 373.48L509.9 373.12L510.37 372.88L510.84 372.66L511.31 372.43L511.8 372.21L512.28 371.99L512.76 371.79L513.25 371.58L513.75 371.38L514.25 371.18L514.75 370.98L515.25 370.79L515.76 370.62L516.27 370.44L516.78 370.26L517.31 370.09L517.82 369.93L518.35 369.78L518.88 369.63L519.41 369.48L519.94 369.34L520.49 369.2L521.02 369.07L522.11 368.84L522.66 368.73L523.77 368.53L524.32 368.44L524.89 368.35L525.45 368.28L526.02 368.21L526.58 368.14L527.16 368.08L527.73 368.04L528.3 367.99L528.89 367.96L529.47 367.94L530.06 367.92L530.64 367.91L531.22 367.91L532.37 367.92L533.5 367.95L534.63 368.02L535.75 368.12L536.85 368.24L537.95 368.38L539.05 368.55L540.13 368.75L541.21 368.96L542.28 369.21L543.34 369.48L544.39 369.77L545.43 370.08L546.46 370.42L547.47 370.78L548.48 371.16L549.47 371.57L550.46 371.99L551.43 372.44L552.39 372.91L553.34 373.4L554.28 373.91L555.2 374.44L556.11 374.99L557.02 375.56L557.9 376.15L558.77 376.75L559.63 377.39L560.47 378.03L561.29 378.69L562.1 379.38L562.89 380.07L563.68 380.79L564.44 381.52L565.19 382.27L565.92 383.04L566.64 383.82L567.33 384.61L568.01 385.42L568.67 386.25L569.1 386.07L569.54 385.88L569.97 385.69L570.42 385.51L570.85 385.33L571.3 385.16L571.74 384.99L572.2 384.82L572.64 384.66L573.1 384.5L573.56 384.34L574.02 384.2L574.48 384.05L574.95 383.91L575.41 383.77L575.88 383.64L576.35 383.51L576.83 383.38L577.3 383.27L577.79 383.16L578.26 383.05L578.75 382.94L579.23 382.84L579.73 382.74L580.21 382.65L580.71 382.57L581.2 382.49L581.7 382.41L582.2 382.35L582.71 382.29L583.21 382.23L583.72 382.18L584.22 382.13L584.74 382.09L585.25 382.06L585.77 382.03L586.28 382.01L586.81 381.99L587.32 381.98L587.84 381.98L589.8 382.02L591.74 382.14L593.66 382.34L595.56 382.6L597.43 382.95L599.29 383.36L601.1 383.86L602.89 384.41L604.64 385.04L606.36 385.73L608.05 386.48L609.71 387.3L611.33 388.17L612.9 389.11L614.45 390.11L615.94 391.17L617.4 392.28L618.81 393.44L620.17 394.66L621.49 395.92L622.75 397.24L623.97 398.61L625.14 400.02L626.25 401.48L627.29 402.97L628.29 404.52L629.23 406.09L630.11 407.71L630.93 409.36L631.69 411.06L632.37 412.78L633 414.53L633.56 416.32L634.04 418.14L634.46 419.98L634.81 421.85L635.07 423.75L635.27 425.68L635.39 427.61L635.43 429.57L635.42 430.72L635.38 431.86L635.32 433L635.22 434.14L635.11 435.26L634.96 436.38L634.8 437.5L634.61 438.61L634.39 439.72L634.15 440.82L633.89 441.91L633.59 442.98L633.27 444.05L632.94 445.11L632.57 446.16L632.18 447.21L631.77 448.24L631.33 449.26L630.88 450.27L630.39 451.26L629.89 452.25L629.35 453.22L628.81 454.17L628.22 455.12L627.63 456.04L627.01 456.95L626.36 457.85L625.7 458.73L625.02 459.6L624.31 460.44L623.57 461.27L622.82 462.09L622.05 462.89L621.26 463.66L620.44 464.41L619.6 465.15L618.74 465.87L617.86 466.56L616.96 467.24L616.04 467.89L614.52 468.94L612.91 470.05L611.24 471.21L609.49 472.42L607.67 473.69L605.79 474.99L603.83 476.35L601.81 477.75L599.72 479.2L597.57 480.69L595.37 482.23L593.1 483.8L590.77 485.42L588.4 487.08L585.96 488.76L583.48 490.49L580.94 492.24L578.35 494.03L575.72 495.85L573.05 497.72L570.32 499.6L567.56 501.51L564.75 503.44L561.9 505.4L559.02 507.38L556.1 509.38L553.16 511.4L550.18 513.44L547.16 515.51L544.12 517.59L541.04 519.68L537.95 521.79L534.83 523.9L531.69 526.03L528.53 528.17L525.34 530.32L522.15 532.46L518.93 534.62L515.7 536.79L512.47 538.95L509.21 541.12L502.68 545.46L499.4 547.63L496.12 549.78L492.84 551.94L489.56 554.09L486.28 556.23L483 558.36L479.73 560.48L476.46 562.59L473.2 564.68L469.94 566.77L466.7 568.83L463.48 570.88L460.26 572.9L457.05 574.91L453.88 576.9L450.71 578.87L447.56 580.81L444.44 582.73L441.34 584.62L438.26 586.49L435.2 588.32L432.18 590.13L429.18 591.9L426.22 593.64L423.29 595.35L420.39 597.02L417.53 598.66L414.69 600.25L411.91 601.8L409.16 603.33L406.45 604.79L403.79 606.23L401.18 607.61L398.6 608.96L396.07 610.25L393.59 611.49L391.17 612.69L390.49 613.02L389.8 613.35L389.12 613.68L388.45 614L387.77 614.31L387.11 614.62L386.45 614.93L385.8 615.23L384.49 615.83L383.85 616.12L383.2 616.4L382.57 616.69L381.94 616.97L381.31 617.23L380.69 617.51L380.06 617.77L379.45 618.02L378.84 618.28L378.23 618.53L377.63 618.78L377.03 619.01L376.43 619.25L375.84 619.49L375.24 619.71L374.66 619.93L374.09 620.15L373.51 620.36L372.94 620.57L372.37 620.78L371.8 620.97L371.25 621.16L370.68 621.35L370.13 621.53L369.58 621.71L369.04 621.89L368.49 622.05L367.95 622.21L367.42 622.37L366.89 622.52L366.6 622.6L366.33 622.68L366.04 622.75L365.76 622.83L365.48 622.89L365.2 622.96L364.92 623.03L364.37 623.17L364.09 623.23L363.81 623.3L363.54 623.36L363.26 623.42L362.99 623.48L362.72 623.54L362.44 623.59L362.17 623.64L361.89 623.7L361.63 623.75L361.35 623.79L361.08 623.83L360.81 623.87L360.54 623.91L360.26 623.95L359.99 623.99L359.72 624.03L359.45 624.06L359.17 624.09L358.91 624.12L358.63 624.15L358.36 624.17L358.08 624.19L357.81 624.21L357.54 624.23L357.26 624.25L356.99 624.26L356.71 624.27L356.43 624.28L355.52 624.28L355.15 624.27L354.78 624.26L354.4 624.25L354.03 624.24L353.63 624.22L353.23 624.2L352.84 624.18L352.43 624.16L352.02 624.13L351.6 624.1L351.18 624.07L350.74 624.03L350.3 624L349.86 623.96L349.4 623.91L348.95 623.87L348.48 623.82L348.02 623.79L347.53 623.74L347.06 623.68L346.56 623.63L346.07 623.57L345.56 623.51L345.05 623.45L344.52 623.38L344 623.32L343.47 623.25L342.93 623.18L342.38 623.11L341.82 623.03L341.26 622.96L340.69 622.88L340.11 622.81L339.53 622.73L338.93 622.65L338.33 622.56L337.73 622.47L335.85 622.2L335.22 622.1L334.58 622.01L333.93 621.91L333.27 621.82L332.62 621.72L331.27 621.5L330.59 621.4L329.91 621.29L329.21 621.18L328.51 621.06L327.81 620.95L327.1 620.84L326.38 620.72L325.66 620.6L324.2 620.36L323.45 620.23L322.7 620.11L321.95 619.98L321.2 619.86L320.43 619.73L319.66 619.6L318.89 619.46L318.11 619.33L317.33 619.19L316.54 619.05L315.73 618.92L314.93 618.78L314.13 618.63L313.32 618.49L312.5 618.34L311.69 618.2L310.86 618.05L310.02 617.91L309.19 617.76L308.35 617.6L307.51 617.45L306.66 617.29L304.95 616.99L303.21 616.67L301.47 616.34L299.71 616.03L297.93 615.69L296.14 615.35L294.33 615.02L292.51 614.67L290.67 614.32L288.82 613.98L286.96 613.62L285.09 613.26L283.2 612.9L281.31 612.53L279.4 612.17L277.49 611.8L275.56 611.42L273.63 611.04L271.68 610.66L269.73 610.28L267.77 609.89L265.81 609.5L263.84 609.12L261.86 608.72L259.88 608.33L257.9 607.93L255.91 607.53L253.91 607.14L249.91 606.33L247.91 605.93L245.91 605.52L241.89 604.71L239.89 604.3L237.88 603.89L235.88 603.49L233.88 603.08L231.89 602.66L229.89 602.26L226.95 601.66L224.01 601.05L221.09 600.45L218.18 599.84L215.28 599.24L212.4 598.64L209.54 598.04L206.69 597.45L203.87 596.86L201.08 596.27L198.3 595.69L195.55 595.11L192.83 594.54L190.15 593.97L187.49 593.41L184.86 592.86L182.28 592.31L179.73 591.77L177.21 591.23L174.75 590.71L172.32 590.19L169.93 589.68L167.59 589.19L165.3 588.69L163.06 588.2L160.86 587.74L158.73 587.28L156.64 586.83L154.61 586.39L152.64 585.97L150.73 585.56L148.88 585.16L147.09 584.77L145.36 584.39L143.71 584.04L142.12 583.69L140.61 583.37L139.16 583.05L137.78 582.75L136.49 582.47L136.49 599.51L136.46 600.66L136.39 601.81L136.27 602.95L136.11 604.08L135.9 605.19L135.66 606.29L135.37 607.37L135.03 608.43L134.67 609.47L134.25 610.49L133.81 611.5L133.31 612.48L132.79 613.45L132.23 614.39L131.63 615.3L131 616.19L130.34 617.06L129.65 617.91L128.93 618.72L128.16 619.5L127.38 620.25L126.57 620.97L125.73 621.67L124.87 622.33L123.98 622.96L123.06 623.56L122.12 624.12L121.16 624.65L120.18 625.13L119.17 625.58L118.14 625.99L117.1 626.37L116.04 626.69L114.96 626.99L113.86 627.24L112.75 627.44L111.63 627.61L110.49 627.72L109.34 627.79L108.17 627.81L30.33 627.81L29.16 627.79L28.02 627.72L26.88 627.61L25.75 627.44L24.64 627.24L23.54 626.99L22.46 626.69L21.4 626.37L20.36 625.99L19.34 625.58L18.33 625.13L17.35 624.65L16.39 624.12L15.45 623.56L14.53 622.96L13.63 622.33L12.77 621.67L11.93 620.97L11.12 620.25L10.33 619.5L9.58 618.72L8.85 617.91L8.16 617.06L7.5 616.19L6.86 615.3L6.27 614.39L5.72 613.45L5.19 612.48L4.7 611.5L4.25 610.49L3.84 609.47L3.47 608.43L3.13 607.37L2.85 606.29L2.6 605.19L2.39 604.08L2.23 602.95L2.12 601.81L2.05 600.66L2.02 599.51L2.02 380.11L2.05 378.95L2.12 377.8L2.23 376.66L2.39 375.54L2.6 374.43L2.85 373.33L3.13 372.25L3.47 371.19L3.84 370.14L4.25 369.12L4.7 368.11L5.19 367.13L5.72 366.16L6.27 365.22L6.86 364.31L7.5 363.42L8.16 362.55L8.85 361.71L9.58 360.9L10.33 360.12L11.12 359.36L11.93 358.64L12.77 357.94L13.63 357.29L14.53 356.65L15.45 356.06L16.39 355.49L17.35 354.97L18.33 354.49L19.34 354.04L20.36 353.62L21.4 353.25L22.46 352.92L23.54 352.62L24.64 352.38L25.75 352.17L26.88 352.01L28.02 351.89L29.16 351.82L30.33 351.8L108.17 351.8L109.34 351.82L110.49 351.89ZM30.04 373.04L29.76 373.06L29.48 373.09L29.19 373.13L28.93 373.18L28.65 373.25L28.38 373.32L28.11 373.4L27.86 373.5L27.6 373.61L27.35 373.72L27.1 373.84L26.87 373.97L26.63 374.11L26.4 374.26L26.18 374.42L25.97 374.59L25.75 374.76L25.55 374.94L25.35 375.13L25.16 375.33L24.98 375.54L24.81 375.74L24.64 375.96L24.48 376.19L24.32 376.42L24.19 376.65L24.06 376.89L23.93 377.14L23.82 377.39L23.71 377.64L23.62 377.9L23.53 378.17L23.46 378.44L23.39 378.7L23.34 378.98L23.3 379.26L23.27 379.54L23.26 379.82L23.26 599.78L23.27 600.07L23.3 600.36L23.34 600.64L23.39 600.9L23.46 601.18L23.53 601.45L23.62 601.71L23.71 601.97L23.82 602.23L23.93 602.48L24.06 602.72L24.19 602.96L24.32 603.2L24.48 603.43L24.64 603.65L24.81 603.86L24.98 604.08L25.16 604.28L25.35 604.48L25.55 604.66L25.75 604.85L25.97 605.03L26.18 605.19L26.4 605.35L26.63 605.5L26.87 605.64L27.1 605.77L27.35 605.9L27.6 606.01L27.86 606.12L28.11 606.21L28.38 606.3L28.65 606.37L28.93 606.44L29.19 606.48L29.48 606.52L29.76 606.55L30.04 606.57L108.37 606.57L108.56 606.56L108.75 606.53L108.93 606.5L109.12 606.46L109.31 606.42L109.5 606.37L109.69 606.3L109.87 606.22L110.05 606.14L110.24 606.04L110.42 605.94L110.61 605.83L110.78 605.71L110.97 605.58L111.15 605.45L111.33 605.3L111.51 605.15L111.69 604.98L111.86 604.81L112.04 604.62L112.21 604.44L112.39 604.24L112.57 604.03L112.73 603.81L112.91 603.59L113.08 603.36L113.25 603.11L113.43 602.86L113.6 602.6L113.76 602.33L113.93 602.05L114.1 601.76L114.27 601.47L114.44 601.16L114.6 600.84L114.76 600.53L114.92 600.19L115.09 599.85L115.25 599.5L115.25 379.82L115.23 379.54L115.2 379.26L115.16 378.98L115.11 378.7L115.04 378.44L114.97 378.17L114.88 377.9L114.79 377.64L114.68 377.39L114.58 377.14L114.45 376.89L114.32 376.65L114.17 376.42L114.02 376.19L113.86 375.96L113.69 375.74L113.53 375.54L113.34 375.33L113.15 375.13L112.95 374.94L112.75 374.76L112.54 374.59L112.32 374.42L112.1 374.26L111.87 374.11L111.64 373.97L111.4 373.84L111.15 373.72L110.9 373.61L110.65 373.5L110.39 373.4L110.12 373.32L109.85 373.25L109.58 373.18L109.31 373.13L109.02 373.09L108.75 373.06L108.46 373.04L108.17 373.03L30.33 373.03L30.04 373.04ZM452.48 389.14L452.19 389.16L451.88 389.18L451.58 389.2L451.28 389.22L450.99 389.25L450.69 389.29L450.39 389.32L450.1 389.36L449.8 389.41L449.51 389.46L449.22 389.51L448.93 389.56L448.63 389.62L448.35 389.68L448.05 389.75L447.76 389.82L447.47 389.89L447.18 389.97L446.89 390.04L446.6 390.12L446.32 390.21L445.46 390.48L445.18 390.58L444.89 390.69L444.6 390.79L444.32 390.9L444.04 391.01L443.75 391.12L443.48 391.24L443.19 391.36L442.91 391.49L442.62 391.62L442.35 391.75L442.06 391.89L441.78 392.02L384.17 427.31L384.7 427.48L385.22 427.63L385.75 427.78L386.27 427.94L386.78 428.1L387.3 428.26L387.8 428.41L388.32 428.55L388.81 428.71L389.32 428.86L389.81 429.01L390.3 429.16L390.79 429.31L391.27 429.46L391.75 429.59L392.23 429.74L392.7 429.88L393.17 430.03L393.63 430.17L394.09 430.31L394.54 430.44L395 430.58L395.45 430.71L395.89 430.85L396.34 430.98L396.77 431.12L397.2 431.25L397.62 431.38L398.05 431.5L398.46 431.63L398.88 431.75L399.29 431.88L399.69 432L400.88 432.36L401.26 432.47L402.02 432.7L402.39 432.82L403.06 433.02L403.72 433.23L404.37 433.44L405.04 433.66L405.7 433.88L406.35 434.1L407.01 434.32L408.32 434.8L408.97 435.04L410.28 435.53L410.92 435.78L411.58 436.05L412.22 436.3L412.86 436.57L413.51 436.84L414.14 437.12L414.78 437.4L415.42 437.69L416.05 437.98L417.32 438.57L418.56 439.18L419.81 439.82L420.43 440.14L421.04 440.47L421.65 440.81L422.26 441.15L422.86 441.49L423.46 441.85L424.07 442.2L424.66 442.56L425.26 442.92L425.84 443.3L426.42 443.68L427.01 444.06L427.59 444.45L428.16 444.85L428.73 445.25L429.29 445.66L429.86 446.06L430.41 446.49L430.97 446.9L431.52 447.34L432.06 447.77L432.6 448.22L433.13 448.68L433.67 449.13L434.72 450.06L435.23 450.54L435.74 451.02L436.24 451.52L436.75 452.01L437.23 452.52L437.72 453.02L438.2 453.54L438.68 454.06L439.14 454.59L439.6 455.13L440.05 455.67L440.5 456.23L440.93 456.78L441.37 457.35L441.79 457.92L442.21 458.49L442.62 459.09L443.02 459.68L443.41 460.27L443.79 460.89L444.17 461.5L444.53 462.13L444.89 462.75L445.24 463.39L445.57 464.04L445.91 464.69L446.23 465.34L446.43 465.79L446.63 466.23L446.84 466.68L447.03 467.13L447.22 467.58L447.4 468.04L447.58 468.5L447.75 468.96L447.93 469.43L448.09 469.89L448.25 470.37L448.4 470.84L448.55 471.32L448.7 471.8L448.84 472.28L448.98 472.77L449.11 473.25L449.23 473.73L449.35 474.23L449.46 474.72L449.57 475.22L449.67 475.71L449.77 476.22L449.86 476.72L450.04 477.73L450.11 478.24L450.18 478.75L450.25 479.27L450.3 479.78L450.35 480.3L450.4 480.82L450.45 481.34L450.48 481.86L450.52 482.38L450.54 482.92L450.56 483.44L450.58 483.98L450.58 484.5L450.59 485.04L450.54 487.16L450.41 489.24L450.21 491.31L449.91 493.36L449.54 495.38L449.09 497.36L448.56 499.32L447.97 501.25L447.3 503.14L446.55 505L445.73 506.82L444.85 508.6L443.91 510.35L442.89 512.06L441.82 513.71L440.68 515.32L439.49 516.9L438.23 518.41L436.92 519.89L435.56 521.3L434.14 522.67L432.67 523.97L431.15 525.23L429.58 526.43L427.97 527.57L426.31 528.63L424.61 529.64L422.87 530.59L421.08 531.47L419.26 532.29L417.41 533.03L415.51 533.7L413.59 534.3L411.63 534.83L409.64 535.27L407.62 535.65L405.58 535.94L403.51 536.16L401.42 536.28L399.3 536.32L398.78 536.32L369.75 533.47L275.95 521.44L275.52 521.38L274.67 521.2L274.26 521.08L273.86 520.95L273.46 520.81L273.08 520.65L272.69 520.48L272.33 520.29L271.96 520.08L271.61 519.88L271.27 519.65L270.93 519.4L270.61 519.15L270.3 518.89L270 518.61L269.7 518.32L269.43 518.02L269.16 517.72L268.9 517.4L268.66 517.07L268.43 516.74L268.21 516.39L268.01 516.04L267.81 515.68L267.63 515.31L267.48 514.94L267.33 514.55L267.19 514.15L267.07 513.77L266.97 513.36L266.88 512.96L266.81 512.54L266.75 512.13L266.71 511.71L266.69 511.28L266.68 510.86L266.69 510.42L266.72 510L266.77 509.56L266.84 509.13L266.92 508.7L267.02 508.28L267.13 507.87L267.26 507.46L267.41 507.07L267.56 506.68L267.74 506.3L267.93 505.93L268.13 505.56L268.35 505.22L268.57 504.87L268.81 504.54L269.07 504.22L269.33 503.9L269.6 503.6L269.89 503.31L270.19 503.03L270.5 502.76L270.82 502.51L271.15 502.27L271.48 502.04L271.83 501.82L272.18 501.61L272.54 501.43L272.91 501.25L273.29 501.08L273.67 500.93L274.06 500.8L274.45 500.68L274.86 500.58L275.26 500.49L275.68 500.42L276.1 500.36L276.51 500.32L276.94 500.3L277.36 500.29L277.8 500.31L278.22 500.33L278.66 500.38L372.16 512.38L399.55 515.06L400.18 515.06L400.78 515.03L401.39 515L402 514.95L402.59 514.89L403.19 514.82L403.79 514.74L404.37 514.64L404.96 514.54L405.54 514.42L406.11 514.29L406.69 514.15L407.26 514.01L407.83 513.85L408.38 513.68L408.94 513.49L409.49 513.3L410.03 513.11L411.1 512.67L411.64 512.44L412.15 512.2L412.68 511.95L413.19 511.69L413.7 511.41L414.2 511.14L414.69 510.85L415.18 510.55L415.67 510.24L416.14 509.92L416.62 509.6L417.08 509.27L417.99 508.57L418.44 508.21L418.87 507.84L419.31 507.46L419.72 507.08L420.15 506.68L420.55 506.29L420.96 505.87L421.36 505.45L421.74 505.02L422.13 504.58L422.5 504.14L422.86 503.69L423.22 503.24L423.56 502.77L423.9 502.3L424.23 501.82L424.55 501.35L424.86 500.85L425.17 500.36L425.45 499.86L425.74 499.35L426.01 498.84L426.27 498.32L426.52 497.8L426.77 497.27L427 496.74L427.22 496.19L427.43 495.65L427.64 495.09L427.83 494.54L428.01 493.97L428.17 493.41L428.33 492.84L428.48 492.26L428.62 491.69L428.75 491.1L428.97 489.92L429.06 489.32L429.14 488.72L429.2 488.12L429.25 487.51L429.3 486.9L429.33 486.28L429.35 485.66L429.36 485.04L429.35 484.73L429.35 484.42L429.34 484.13L429.33 483.83L429.29 483.24L429.27 482.95L429.25 482.65L429.22 482.36L429.19 482.09L429.16 481.8L429.13 481.52L429.1 481.25L429.06 480.97L429.01 480.7L428.96 480.44L428.91 480.17L428.86 479.9L428.81 479.63L428.75 479.37L428.69 479.11L428.62 478.85L428.56 478.59L428.49 478.34L428.42 478.09L428.34 477.83L428.27 477.59L428.19 477.34L428.12 477.09L427.94 476.6L427.85 476.36L427.76 476.11L427.67 475.87L427.57 475.63L427.47 475.4L427.37 475.16L427.26 474.92L427.16 474.69L427.05 474.46L426.94 474.23L426.83 473.99L426.59 473.54L426.47 473.31L426.21 472.85L426.09 472.63L425.96 472.41L425.82 472.18L425.68 471.95L425.54 471.74L425.39 471.52L425.25 471.29L425.1 471.07L424.95 470.86L424.8 470.64L424.64 470.42L424.48 470.2L424.32 469.98L424.15 469.78L423.99 469.56L423.81 469.34L423.64 469.13L423.46 468.92L423.29 468.71L423.11 468.5L422.73 468.08L422.54 467.88L422.36 467.67L421.76 467.04L421.55 466.85L421.36 466.64L421.15 466.43L420.93 466.23L420.72 466.04L420.5 465.83L420.07 465.43L419.61 465.04L419.16 464.64L418.68 464.25L418.2 463.87L417.7 463.48L417.21 463.11L416.69 462.73L416.17 462.36L415.64 462L415.1 461.63L414.55 461.27L413.99 460.93L413.42 460.57L412.84 460.23L412.26 459.89L411.67 459.55L411.06 459.22L410.46 458.89L409.84 458.56L409.21 458.25L408.58 457.94L407.94 457.62L407.3 457.32L406.65 457.02L405.99 456.72L404.66 456.15L403.98 455.87L403.29 455.59L402.61 455.33L401.92 455.06L401.22 454.8L400.52 454.54L399.81 454.3L399.1 454.05L398.38 453.81L397.66 453.57L396.94 453.35L396.22 453.13L394.03 452.47L391.7 451.75L389.23 451.01L386.62 450.22L383.88 449.4L381 448.54L378.03 447.64L374.93 446.71L371.73 445.75L368.43 444.77L365.04 443.76L361.56 442.72L358 441.66L354.37 440.58L350.67 439.49L346.91 438.37L343.09 437.25L339.23 436.12L335.32 434.97L331.37 433.82L327.4 432.66L323.4 431.49L319.39 430.34L315.37 429.17L311.33 428.01L307.3 426.85L303.28 425.7L299.28 424.56L295.29 423.43L291.32 422.31L287.4 421.21L283.5 420.12L279.66 419.05L275.87 418L272.13 416.98L268.46 415.99L264.85 415.01L261.33 414.07L257.89 413.16L254.54 412.27L253.44 411.99L252.36 411.7L251.29 411.42L250.23 411.16L249.18 410.88L248.15 410.62L247.12 410.35L246.1 410.11L245.1 409.85L244.11 409.6L243.14 409.36L242.18 409.13L241.23 408.89L240.29 408.66L239.37 408.44L238.47 408.23L237.58 408.01L236.71 407.8L235.84 407.6L235 407.4L234.17 407.22L233.36 407.03L232.57 406.85L231.8 406.67L231.04 406.5L230.3 406.35L229.58 406.19L228.88 406.04L228.19 405.9L227.53 405.76L226.89 405.63L226.26 405.5L225.66 405.39L225.08 405.28L224.52 405.17L223.98 405.08L223.46 404.98L222.97 404.9L222.49 404.82L222.04 404.75L221.93 404.73L221.81 404.72L221.7 404.7L221.6 404.69L221.49 404.67L221.38 404.66L221.29 404.64L221.09 404.62L220.99 404.6L220.9 404.59L220.8 404.58L220.62 404.56L220.54 404.55L220.45 404.54L220.38 404.53L220.31 404.52L220.23 404.52L220.09 404.51L220.02 404.51L219.96 404.5L219.89 404.5L219.84 404.49L219.78 404.49L219.73 404.48L219.68 404.48L219.63 404.47L219.52 404.47L219.49 404.46L219.21 404.46L219.16 404.47L219.11 404.47L219.06 404.48L218.94 404.48L218.87 404.49L218.8 404.5L218.73 404.5L218.65 404.51L218.57 404.52L218.4 404.53L218.31 404.54L218.11 404.56L218.01 404.57L217.9 404.59L217.79 404.6L217.68 404.61L217.57 404.63L217.46 404.64L217.34 404.66L217.21 404.68L217.09 404.69L216.96 404.71L216.83 404.73L216.7 404.75L216.56 404.77L216.44 404.79L216.3 404.81L216.16 404.83L216.02 404.86L215.87 404.88L215.72 404.91L215.58 404.93L215.43 404.96L215.27 404.98L215.12 405.01L214.96 405.04L214.8 405.06L214.64 405.09L214.48 405.12L214.31 405.15L214.14 405.18L213.97 405.21L213.8 405.24L213.63 405.27L213.45 405.31L213.27 405.34L213.09 405.37L212.91 405.41L212.74 405.44L212.55 405.48L212.36 405.5L211.98 405.58L211.8 405.61L211.6 405.65L211.41 405.69L211.21 405.73L211.01 405.77L210.81 405.81L210.62 405.85L210.41 405.89L210.21 405.93L210 405.97L209.8 406.02L209.38 406.1L209.17 406.15L208.95 406.19L208.75 406.24L208.31 406.33L207.87 406.42L207.43 406.51L206.97 406.6L206.52 406.7L206.06 406.8L205.6 406.9L205.12 407.01L204.65 407.11L204.17 407.22L203.69 407.33L203.2 407.43L202.21 407.65L201.71 407.77L201.2 407.88L200.7 408L200.19 408.12L199.67 408.24L199.15 408.35L198.62 408.48L198.1 408.6L197.57 408.73L197.04 408.85L196.49 408.98L195.96 409.11L195.41 409.24L194.87 409.36L194.32 409.49L193.77 409.63L193.22 409.76L192.65 409.9L192.1 410.03L191.54 410.17L190.97 410.3L190.41 410.44L189.84 410.58L189.27 410.72L188.69 410.86L188.12 411.01L186.97 411.28L185.82 411.57L184.66 411.87L183.49 412.16L182.31 412.45L181.14 412.75L179.97 413.05L178.79 413.34L177.61 413.64L176.43 413.94L175.25 414.24L174.08 414.54L172.9 414.85L171.72 415.15L170.55 415.45L169.4 415.76L168.23 416.05L167.08 416.36L164.78 416.95L163.65 417.25L162.53 417.55L161.42 417.85L160.31 418.13L159.21 418.43L158.13 418.72L157.05 419L155.99 419.28L154.96 419.56L153.92 419.84L152.91 420.11L151.91 420.38L150.92 420.64L149.95 420.9L149 421.15L148.07 421.41L147.16 421.66L146.27 421.89L145.39 422.13L144.54 422.36L144.3 422.43L144.06 422.49L143.82 422.56L143.58 422.63L143.35 422.69L143.11 422.74L142.88 422.81L142.65 422.87L142.43 422.93L142.2 422.99L141.98 423.06L141.75 423.12L141.54 423.18L141.33 423.24L141.11 423.3L140.9 423.35L140.68 423.41L140.48 423.47L140.28 423.53L140.07 423.58L139.87 423.64L139.67 423.68L139.48 423.74L139.28 423.79L139.09 423.84L138.9 423.9L138.71 423.95L138.53 424L138.35 424.05L138.16 424.1L137.98 424.15L137.81 424.2L137.64 424.25L137.47 424.29L137.3 424.34L137.13 424.39L136.96 424.43L136.8 424.48L136.65 424.52L136.49 424.57L136.49 560.74L136.81 560.81L137.14 560.88L137.48 560.96L137.83 561.03L138.19 561.11L138.56 561.19L138.93 561.26L139.32 561.35L139.71 561.44L140.12 561.53L140.54 561.62L141.39 561.8L142.28 562L142.74 562.1L143.21 562.2L143.68 562.3L144.17 562.4L145.16 562.62L145.67 562.73L146.19 562.85L146.72 562.96L147.26 563.08L148.34 563.31L148.91 563.43L149.47 563.56L150.05 563.68L150.63 563.81L151.22 563.94L151.83 564.07L152.43 564.19L153.05 564.33L153.67 564.46L154.3 564.6L155.59 564.88L156.24 565.02L157.39 565.26L158.55 565.52L159.74 565.77L160.93 566.04L162.16 566.29L163.4 566.56L164.66 566.84L165.94 567.1L167.24 567.39L168.55 567.67L169.89 567.95L171.25 568.24L172.61 568.54L174 568.84L175.39 569.13L176.81 569.43L178.24 569.74L179.69 570.04L181.14 570.36L182.62 570.67L184.11 570.98L185.61 571.31L187.12 571.63L188.66 571.95L190.19 572.28L191.74 572.61L193.31 572.94L194.89 573.27L196.47 573.61L198.07 573.94L199.68 574.28L201.29 574.63L202.92 574.96L204.56 575.31L206.2 575.66L207.86 576L209.52 576.35L211.18 576.69L212.86 577.05L214.55 577.4L217.93 578.1L221.34 578.81L224.77 579.52L228.21 580.24L231.68 580.95L235.15 581.66L238.64 582.38L242.13 583.09L249.12 584.51L252.61 585.22L256.09 585.92L259.58 586.62L263.04 587.31L266.5 588L269.94 588.68L273.35 589.35L276.75 590.03L280.11 590.68L283.45 591.32L286.76 591.97L290.03 592.59L293.26 593.21L296.45 593.82L299.6 594.4L302.71 594.98L305.76 595.55L308.76 596.09L311.7 596.63L314.59 597.15L317.41 597.65L320.17 598.13L322.86 598.6L325.48 599.04L328.03 599.47L330.5 599.87L332.9 600.26L335.2 600.63L337.43 600.96L339.57 601.29L340.15 601.37L340.73 601.46L341.31 601.54L341.87 601.63L342.44 601.7L343.53 601.85L344.06 601.92L344.59 601.99L345.11 602.06L345.62 602.12L346.13 602.19L346.62 602.25L347.11 602.31L347.58 602.37L348.05 602.42L348.5 602.47L348.95 602.53L349.38 602.57L349.81 602.62L350.23 602.65L350.63 602.7L351.03 602.73L351.4 602.77L351.78 602.81L352.14 602.84L352.49 602.87L352.83 602.9L353.15 602.92L353.46 602.94L353.77 602.97L354.06 602.98L354.33 603L354.59 603.01L354.84 603.03L355.07 603.03L355.3 603.04L355.51 603.05L356.06 603.05L356.13 603.04L356.28 603.04L356.55 603.01L356.85 602.98L356.96 602.97L357.06 602.96L357.3 602.92L357.43 602.9L357.55 602.88L357.69 602.86L357.82 602.84L357.96 602.82L358.09 602.79L358.24 602.76L358.39 602.74L358.54 602.71L358.7 602.68L358.86 602.65L359.01 602.62L359.18 602.58L359.35 602.54L359.52 602.5L359.69 602.46L359.86 602.42L360.04 602.38L360.23 602.33L360.41 602.28L360.6 602.23L360.79 602.18L360.98 602.13L361.38 602.01L361.58 601.96L361.77 601.9L361.98 601.84L362.19 601.77L362.41 601.71L362.62 601.65L362.83 601.58L363.05 601.52L363.27 601.44L363.5 601.37L363.73 601.3L363.95 601.22L364.18 601.14L364.41 601.06L364.65 600.98L364.88 600.9L365.12 600.81L365.36 600.73L365.61 600.65L365.85 600.56L366.1 600.47L366.35 600.38L366.59 600.28L366.85 600.19L367.11 600.09L367.37 599.99L367.62 599.89L367.89 599.79L368.16 599.7L368.42 599.59L368.69 599.49L368.96 599.38L369.23 599.27L369.51 599.16L369.78 599.05L370.06 598.93L370.34 598.82L370.62 598.71L370.9 598.59L371.47 598.35L372.05 598.1L372.64 597.85L373.24 597.6L373.83 597.34L374.44 597.07L375.06 596.8L375.67 596.52L376.29 596.23L376.93 595.94L378.21 595.35L378.87 595.04L379.53 594.73L380.19 594.41L380.87 594.09L381.54 593.77L382.22 593.43L382.92 593.09L383.61 592.76L384.3 592.4L385.01 592.05L385.73 591.7L386.44 591.33L387.16 590.97L387.88 590.6L388.62 590.22L389.36 589.84L390.1 589.45L390.85 589.07L391.61 588.67L392.36 588.26L393.12 587.86L393.89 587.45L394.66 587.04L395.45 586.62L396.23 586.21L397.01 585.78L397.8 585.34L398.59 584.91L400.2 584.03L401.82 583.13L403.46 582.22L405.11 581.29L406.79 580.34L408.47 579.38L410.17 578.41L411.89 577.42L413.63 576.42L415.37 575.4L417.12 574.37L418.89 573.32L420.68 572.27L422.47 571.2L424.29 570.11L426.11 569.02L427.94 567.92L429.78 566.8L431.63 565.68L433.49 564.54L435.36 563.39L437.24 562.24L439.13 561.07L441.03 559.89L442.94 558.7L444.85 557.51L446.77 556.31L448.7 555.1L450.63 553.87L452.57 552.65L454.52 551.42L456.47 550.18L458.43 548.93L460.39 547.68L462.35 546.42L466.29 543.89L468.27 542.61L470.24 541.33L472.22 540.05L476.19 537.46L480.15 534.87L484.12 532.27L488.08 529.65L492.05 527.03L496 524.41L499.94 521.79L503.87 519.16L507.78 516.54L511.67 513.93L515.53 511.32L519.37 508.73L523.18 506.15L526.96 503.59L530.7 501.03L534.4 498.51L538.06 496L541.68 493.53L545.26 491.08L548.77 488.66L552.24 486.27L555.65 483.92L559 481.6L562.29 479.34L565.52 477.1L568.67 474.91L571.75 472.78L574.77 470.69L577.7 468.66L580.55 466.67L583.32 464.75L586 462.88L588.6 461.08L591.1 459.34L593.51 457.67L595.81 456.07L598.02 454.53L600.12 453.08L602.12 451.7L604.01 450.4L604.46 450.08L604.91 449.75L605.34 449.41L605.78 449.04L606.19 448.68L606.61 448.29L607.02 447.89L607.41 447.49L607.8 447.07L608.17 446.64L608.54 446.2L608.91 445.75L609.25 445.28L609.59 444.82L609.92 444.33L610.23 443.84L610.54 443.33L610.84 442.82L611.12 442.29L611.4 441.76L611.66 441.22L611.9 440.67L612.15 440.11L612.38 439.55L612.59 438.98L612.8 438.39L612.98 437.81L613.16 437.2L613.33 436.6L613.48 436L613.62 435.37L613.85 434.13L613.94 433.49L614.03 432.85L614.1 432.21L614.15 431.55L614.19 430.9L614.22 430.24L614.23 429.57L614.22 429.02L614.21 428.49L614.18 427.94L614.14 427.41L614.09 426.87L614.03 426.34L613.96 425.81L613.88 425.29L613.8 424.77L613.7 424.25L613.59 423.74L613.46 423.23L613.33 422.73L613.19 422.23L613.04 421.73L612.88 421.24L612.72 420.75L612.54 420.27L612.35 419.79L612.16 419.31L611.95 418.85L611.75 418.38L611.52 417.92L611.29 417.46L611.05 417.01L610.81 416.57L610.55 416.13L610.28 415.7L610.01 415.26L609.73 414.85L609.44 414.42L609.14 414.02L608.85 413.61L608.53 413.2L608.21 412.81L607.89 412.42L607.55 412.04L607.21 411.66L606.87 411.29L606.51 410.93L606.14 410.57L605.78 410.22L605.4 409.89L605.02 409.55L604.63 409.23L604.23 408.91L603.83 408.59L603.42 408.29L603.02 408L602.59 407.7L602.18 407.42L601.74 407.16L601.3 406.89L600.87 406.63L600.42 406.39L599.98 406.15L599.52 405.92L599.06 405.69L598.59 405.49L598.13 405.28L597.65 405.08L597.18 404.9L596.69 404.72L596.21 404.55L595.71 404.4L595.22 404.25L594.71 404.11L594.21 403.97L593.7 403.85L593.19 403.74L592.67 403.64L592.16 403.55L591.63 403.48L591.11 403.41L590.58 403.35L590.04 403.3L589.51 403.26L588.97 403.23L587.88 403.21L587.58 403.21L587.27 403.22L586.97 403.23L586.67 403.24L586.37 403.26L586.06 403.28L585.77 403.31L585.47 403.33L585.17 403.37L584.88 403.4L584.58 403.44L584.28 403.49L583.98 403.53L583.69 403.58L583.39 403.63L583.1 403.69L582.81 403.75L582.52 403.82L582.22 403.89L581.94 403.96L581.65 404.04L581.35 404.12L581.07 404.2L580.78 404.29L580.49 404.38L580.2 404.48L579.92 404.56L579.63 404.66L579.34 404.77L578.77 404.99L578.48 405.1L578.19 405.22L577.92 405.34L577.63 405.46L577.34 405.58L577.07 405.71L576.78 405.84L576.5 405.98L576.22 406.12L573.62 407.66L573.54 407.76L573.45 407.86L573.38 407.96L573.29 408.06L573.21 408.16L573.12 408.26L573.03 408.35L572.94 408.44L572.85 408.54L572.76 408.63L572.57 408.82L572.47 408.91L572.39 409L572.19 409.18L572.09 409.27L571.99 409.34L571.88 409.43L571.78 409.51L571.67 409.59L571.57 409.67L571.25 409.91L571.14 409.98L571.02 410.06L570.91 410.13L570.79 410.2L570.68 410.26L570.56 410.33L570.45 410.4L570.33 410.47L570.21 410.53L570.09 410.59L569.96 410.66L569.84 410.72L569.71 410.78L569.58 410.83L569.46 410.89L569.4 410.91L569.34 410.94L569.28 410.96L569.22 410.99L569.16 411.01L569.1 411.03L569.04 411.06L568.98 411.08L568.92 411.1L568.8 411.14L568.74 411.16L568.68 411.18L568.62 411.2L568.57 411.22L568.5 411.24L568.44 411.25L568.38 411.27L568.32 411.28L568.26 411.3L568.2 411.31L568.14 411.33L568.08 411.34L568.02 411.36L567.95 411.37L567.89 411.39L567.83 411.4L567.77 411.42L567.71 411.43L567.65 411.44L567.6 411.46L567.54 411.47L567.47 411.48L567.41 411.49L567.35 411.5L567.29 411.52L567.23 411.53L567.11 411.55L567.05 411.56L483.86 460.9L483.47 461.12L483.08 461.31L482.7 461.49L482.3 461.66L481.91 461.81L481.5 461.94L481.1 462.06L480.69 462.15L480.28 462.23L479.88 462.29L479.46 462.34L479.06 462.37L478.64 462.39L478.23 462.39L477.82 462.37L477.41 462.34L477.01 462.29L476.61 462.23L476.21 462.16L475.81 462.06L475.41 461.95L475.03 461.83L474.64 461.69L474.27 461.54L473.89 461.37L473.52 461.19L473.17 461L472.81 460.78L472.46 460.56L472.13 460.32L471.8 460.07L471.48 459.8L471.17 459.52L470.87 459.23L470.58 458.92L470.31 458.6L470.04 458.27L469.78 457.92L469.54 457.56L469.31 457.2L469.09 456.81L468.89 456.42L468.7 456.04L468.55 455.64L468.4 455.25L468.27 454.84L468.15 454.44L468.06 454.03L467.97 453.62L467.91 453.21L467.86 452.8L467.83 452.39L467.81 451.98L467.81 451.57L467.83 451.16L467.86 450.75L467.91 450.35L467.97 449.94L468.05 449.55L468.14 449.15L468.25 448.75L468.38 448.37L468.52 447.98L468.66 447.61L468.83 447.23L469.01 446.86L469.21 446.51L469.42 446.15L469.64 445.81L469.88 445.47L470.14 445.14L470.41 444.82L470.68 444.51L470.97 444.21L471.28 443.93L471.6 443.64L471.93 443.37L472.28 443.11L472.64 442.88L473.01 442.65L549.95 397.01L549.58 396.66L549.22 396.3L548.84 395.95L548.46 395.62L548.07 395.29L547.68 394.96L547.28 394.65L546.87 394.34L546.46 394.03L546.04 393.75L545.61 393.46L545.19 393.18L544.75 392.91L544.31 392.65L543.86 392.39L543.42 392.15L542.96 391.92L542.5 391.69L542.03 391.47L541.56 391.25L541.08 391.05L540.6 390.87L540.11 390.68L539.63 390.51L539.13 390.35L538.63 390.19L538.13 390.05L537.62 389.92L537.11 389.8L536.6 389.68L536.07 389.58L535.56 389.48L535.02 389.4L534.5 389.33L533.97 389.27L533.43 389.22L532.9 389.18L532.35 389.15L531.81 389.13L530.96 389.13L530.34 389.15L530.05 389.16L529.74 389.18L529.44 389.2L529.15 389.22L528.85 389.25L528.54 389.29L528.24 389.32L527.95 389.36L527.65 389.41L527.36 389.46L527.07 389.51L526.77 389.56L526.47 389.62L526.19 389.68L525.89 389.75L525.6 389.82L525.3 389.89L524.73 390.04L524.44 390.12L524.15 390.21L523.57 390.39L523.29 390.49L523 390.59L522.71 390.7L522.43 390.8L522.15 390.91L521.57 391.14L521.29 391.26L521.01 391.38L520.72 391.51L520.44 391.64L520.16 391.77L519.87 391.91L519.59 392.04L453.52 431.23L453.13 431.45L452.75 431.64L452.36 431.82L451.97 431.99L451.57 432.14L451.17 432.27L450.76 432.38L450.35 432.47L449.95 432.55L449.54 432.62L449.13 432.66L448.72 432.7L448.31 432.71L447.9 432.71L447.48 432.69L447.08 432.66L446.67 432.61L446.28 432.55L445.87 432.47L445.47 432.39L445.08 432.28L444.69 432.15L444.31 432.01L443.93 431.86L443.56 431.69L443.19 431.5L442.83 431.32L442.48 431.1L442.13 430.88L441.79 430.64L441.47 430.39L441.15 430.12L440.83 429.84L440.54 429.54L440.25 429.24L439.97 428.92L439.7 428.58L439.45 428.24L439.2 427.88L438.97 427.52L438.75 427.13L438.56 426.74L438.37 426.36L438.21 425.96L438.06 425.57L437.93 425.16L437.81 424.75L437.64 423.94L437.58 423.54L437.53 423.12L437.5 422.72L437.48 422.3L437.48 421.89L437.5 421.48L437.53 421.07L437.58 420.67L437.64 420.27L437.72 419.87L437.81 419.47L437.92 419.07L438.04 418.69L438.18 418.3L438.33 417.93L438.5 417.55L438.69 417.18L438.87 416.83L439.09 416.47L439.31 416.12L439.55 415.79L439.8 415.46L440.07 415.14L440.35 414.84L440.64 414.53L440.95 414.24L441.27 413.97L441.61 413.7L441.95 413.44L442.31 413.19L442.67 412.97L471.14 396.09L470.79 395.77L470.43 395.46L470.06 395.15L469.69 394.85L469.32 394.55L468.93 394.26L468.16 393.71L467.75 393.44L467.36 393.18L466.95 392.94L466.54 392.69L466.12 392.45L465.7 392.21L465.28 392L464.84 391.78L464.41 391.57L463.97 391.37L463.53 391.17L463.08 390.99L462.64 390.82L462.18 390.65L461.72 390.49L461.25 390.33L460.79 390.19L460.32 390.05L459.85 389.94L459.37 389.82L458.89 389.71L458.4 389.61L457.92 389.52L457.42 389.44L456.93 389.36L456.43 389.3L455.94 389.25L455.43 389.2L454.93 389.17L454.41 389.14L453.91 389.13L452.79 389.13L452.48 389.14Z" id="ac8KdotYM"></path><path d="M341.8 149.83C368.46 149.83 381.79 164.92 381.79 195.1L381.79 195.1L381.79 254.84C381.79 254.84 381.79 254.84 381.79 254.84C381.79 258.22 380.71 260.9 378.57 262.89L378.57 262.89C378.57 262.89 378.57 262.89 378.57 262.89C376.42 264.88 373.59 265.88 370.07 265.88L370.07 265.88C370.07 265.88 370.07 265.88 370.07 265.88C366.54 265.88 363.75 264.88 361.68 262.89L361.68 262.89C361.68 262.89 361.68 262.89 361.68 262.89C359.61 260.9 358.58 258.22 358.58 254.84L358.58 254.84L358.58 195.33C358.58 195.33 358.58 195.33 358.58 195.33C358.58 186.14 356.7 179.4 352.95 175.11L352.95 175.11C352.95 175.11 352.95 175.11 352.95 175.11C349.19 170.82 343.33 168.67 335.37 168.67L335.37 168.67C335.37 168.67 335.37 168.67 335.37 168.67C326.02 168.67 318.51 171.58 312.85 177.4L312.85 177.4C312.85 177.4 312.85 177.4 312.85 177.4C307.18 183.23 304.34 191.04 304.34 200.84L304.34 200.84L304.34 254.84C304.34 254.84 304.34 254.84 304.34 254.84C304.34 258.22 303.31 260.9 301.24 262.89L301.24 262.89C301.24 262.89 301.24 262.89 301.24 262.89C299.17 264.88 296.38 265.88 292.85 265.88L292.85 265.88C292.85 265.88 292.85 265.88 292.85 265.88C289.33 265.88 286.5 264.88 284.35 262.89L284.35 262.89C284.35 262.89 284.35 262.89 284.35 262.89C282.21 260.9 281.13 258.22 281.13 254.84L281.13 254.84L281.13 112.6C281.13 112.6 281.13 112.6 281.13 112.6C281.13 109.23 282.25 106.55 284.47 104.56L284.47 104.56C284.47 104.56 284.47 104.56 284.47 104.56C286.69 102.57 289.56 101.57 293.08 101.57L293.08 101.57C293.08 101.57 293.08 101.57 293.08 101.57C296.45 101.57 299.17 102.53 301.24 104.44L301.24 104.44C301.24 104.44 301.24 104.44 301.24 104.44C303.31 106.36 304.34 108.92 304.34 112.14L304.34 112.14L304.34 169.59C304.34 169.59 304.34 169.59 304.34 169.59C308.17 163.16 313.31 158.25 319.74 154.88L319.74 154.88C319.74 154.88 319.74 154.88 319.74 154.88C326.17 151.51 333.53 149.83 341.8 149.83L341.8 149.83L341.8 149.83C341.8 149.83 341.8 149.83 341.8 149.83Z" id="b18YtGG1EX"></path></defs><g><g><use xlink:href="#ac4xyh7wr" opacity="1" fill="#0552b1" fill-opacity="1"></use><g><use xlink:href="#ac4xyh7wr" opacity="1" fill-opacity="0" stroke="#000000" stroke-width="1" stroke-opacity="0"></use></g></g><g><use xlink:href="#akiIyuFUd" opacity="1" fill="#000000" fill-opacity="0"></use><g><use xlink:href="#akiIyuFUd" opacity="1" fill-opacity="0" stroke="#0552b1" stroke-width="6" stroke-opacity="1"></use></g></g><g><use xlink:href="#b1bepOKvfz" opacity="1" fill="#0552b1" fill-opacity="1"></use><g><use xlink:href="#b1bepOKvfz" opacity="1" fill-opacity="0" stroke="#000000" stroke-width="1" stroke-opacity="0"></use></g></g><g><use xlink:href="#bMdgXbbe6" opacity="1" fill="#000000" fill-opacity="0"></use><g><use xlink:href="#bMdgXbbe6" opacity="1" fill-opacity="0" stroke="#0552b1" stroke-width="6" stroke-opacity="1"></use></g></g><g><use xlink:href="#dCZ8bIzae" opacity="1" fill="#0552b1" fill-opacity="1"></use><g><use xlink:href="#dCZ8bIzae" opacity="1" fill-opacity="0" stroke="#000000" stroke-width="1" stroke-opacity="0"></use></g></g><g><use xlink:href="#ac8KdotYM" opacity="1" fill="#000000" fill-opacity="0"></use><g><use xlink:href="#ac8KdotYM" opacity="1" fill-opacity="0" stroke="#000000" stroke-width="1" stroke-opacity="0"></use></g></g><g><use xlink:href="#b18YtGG1EX" opacity="1" fill="#0552b1" fill-opacity="1"></use><g><use xlink:href="#b18YtGG1EX" opacity="1" fill-opacity="0" stroke="#000000" stroke-width="1" stroke-opacity="0"></use></g></g></g></svg>