<?xml version="1.0" standalone="no"?><!-- Generator: Gravit.io --><svg xmlns="http://www.w3.org/2000/svg" xmlns:xlink="http://www.w3.org/1999/xlink" style="isolation:isolate" viewBox="0 0 511 511" width="511" height="511"><defs><clipPath id="_clipPath_v4czEXLgNvLANcdK0ZJGPLQWn6bNpZXP"><rect width="511" height="511"/></clipPath></defs><g clip-path="url(#_clipPath_v4czEXLgNvLANcdK0ZJGPLQWn6bNpZXP)"><g><path d=" M 433 251 C 433 370.847 335.847 468 216 468 C 96.153 468 -1 370.847 -1 251 C -1 131.153 96.153 34 216 34 C 335.847 34 433 131.153 433 251 Z " fill="rgb(245,226,119)"/><path d=" M 386.286 251 C 386.286 345.047 310.047 421.286 216 421.286 C 121.953 421.286 45.714 345.047 45.714 251 C 45.714 156.953 121.953 80.714 216 80.714 C 310.047 80.714 386.286 156.953 386.286 251 Z " fill="rgb(250,182,89)"/><path d=" M 71.912 251 C 71.912 161.36 141.171 87.899 229.099 81.21 C 224.775 80.879 220.407 80.714 216 80.714 C 121.953 80.714 45.714 156.953 45.714 251 C 45.714 345.047 121.953 421.286 216 421.286 C 220.407 421.286 224.775 421.117 229.099 420.79 C 141.174 414.101 71.912 340.64 71.912 251 Z " fill="rgb(255,156,32)"/><path d=" M 253.37 244.013 C 268.435 237.477 277.528 222.13 277.528 198.829 C 277.528 167.463 260.873 154.645 239.579 150.487 L 239.579 129.239 C 239.579 126.358 237.244 124.024 234.364 124.024 L 218.596 124.024 C 215.715 124.024 213.381 126.358 213.381 129.239 L 213.381 148.811 L 200.487 148.811 L 200.487 129.239 C 200.487 126.358 198.153 124.024 195.272 124.024 L 179.504 124.024 C 176.624 124.024 174.289 126.358 174.289 129.239 L 174.289 148.811 L 165.558 148.811 C 157.316 148.811 149.356 152.788 149.356 160.463 L 149.356 345.186 C 149.356 351.156 155.608 356.553 165.558 356.553 L 174.289 356.553 L 174.289 372.761 C 174.289 375.642 176.624 377.976 179.504 377.976 L 195.272 377.976 C 198.153 377.976 200.487 375.642 200.487 372.761 L 200.487 356.553 L 213.381 356.553 L 213.381 372.761 C 213.381 375.642 215.715 377.976 218.596 377.976 L 234.364 377.976 C 237.244 377.976 239.579 375.642 239.579 372.761 L 239.579 355.447 C 264.72 351.186 282.644 334.05 282.644 296.307 L 282.644 290.337 C 282.644 261.92 270.707 250.834 253.37 244.013 L 253.37 244.013 Z  M 186.017 181.207 L 217.563 181.207 C 232.056 181.207 240.582 190.3 240.582 205.078 C 240.582 219.574 233.192 229.521 217.848 229.521 L 186.017 229.521 L 186.017 181.207 Z  M 245.698 293.178 C 245.698 314.78 235.466 324.157 218.132 324.157 L 186.017 324.157 L 186.017 258.51 L 218.132 258.51 C 235.466 258.51 245.698 266.466 245.698 288.631 L 245.698 293.178 Z " fill="rgb(255,255,255)"/></g><clipPath id="_clipPath_EKv6pSjBUGVn3F9fG1gjQx1jMeAZ7InU"><rect x="0" y="0" width="511" height="511" transform="matrix(1,0,0,1,0,0)" fill="rgb(255,255,255)"/></clipPath><g clip-path="url(#_clipPath_EKv6pSjBUGVn3F9fG1gjQx1jMeAZ7InU)"><path d=" M 294.011 366.54 L 370.183 484.465 C 376.966 494.968 388.615 501.311 401.118 501.311 C 413.621 501.311 425.274 494.968 432.058 484.465 L 508.229 366.54 C 515.597 355.132 507.406 340.091 493.824 340.091 L 455.028 340.091 L 455.028 27.933 C 455.028 19.683 448.342 12.997 440.093 12.997 L 362.144 12.997 C 353.894 12.997 347.208 19.683 347.208 27.933 L 347.208 340.091 L 308.413 340.091 C 294.83 340.091 286.643 355.132 294.011 366.54 L 294.011 366.54 Z " fill="rgb(118,230,213)"/></g></g></svg>