<svg height="511pt" viewBox="-13 0 511 511.99975" width="511pt" xmlns="http://www.w3.org/2000/svg"><path d="m242.679688 316.707031-115.136719 20.300781 12.992187 62.664063 105.25-43.386719zm0 0" fill="#7397da"/><path d="m301.78125 485.671875-275.28125-275.28125c-9.078125-9.078125-6.074219-24.460937 5.753906-29.457031l424.167969-179.210938c16.808594-7.097656 34.136719 8.929688 28.367187 26.238282l-149.96875 449.910156c-4.691406 14.074218-22.550781 18.289062-33.039062 7.800781zm0 0" fill="#80bbe6"/><path d="m99.300781 283.195312 32.667969 112.445313c1.644531 5.65625 9.460938 6.160156 11.816406.765625l20.890625-47.839844 313.390625-343.746094zm0 0" fill="#eeeeed"/><path d="m112.929688 330.105469 19.039062 65.535156c1.644531 5.65625 9.457031 6.160156 11.816406.765625l20.890625-47.839844 168.285157-184.4375c-83.03125 81.738282-166.183594 148.234375-220.03125 165.976563zm0 0" fill="#dfdfdd"/><g fill="#bebfc0"><path d="m145.289062 512c-1.917968 0-3.839843-.730469-5.304687-2.195312-2.929687-2.929688-2.929687-7.679688 0-10.609376l58.042969-58.039062c2.925781-2.929688 7.675781-2.929688 10.605468 0 2.929688 2.929688 2.929688 7.679688 0 10.605469l-58.039062 58.042969c-1.464844 1.464843-3.386719 2.195312-5.304688 2.195312zm0 0"/><path d="m8 334.605469c-1.921875 0-3.839844-.730469-5.304688-2.195313-2.925781-2.929687-2.925781-7.679687 0-10.609375l40.324219-40.320312c2.929688-2.929688 7.675781-2.929688 10.605469 0 2.929688 2.929687 2.929688 7.675781 0 10.605469l-40.320312 40.320312c-1.464844 1.464844-3.386719 2.199219-5.304688 2.199219zm0 0"/><path d="m56.308594 456.121094c-1.921875 0-3.839844-.730469-5.304688-2.195313-2.929687-2.929687-2.929687-7.679687 0-10.605469l34.6875-34.6875c2.929688-2.929687 7.679688-2.929687 10.605469 0 2.929687 2.929688 2.929687 7.675782 0 10.605469l-34.6875 34.6875c-1.460937 1.464844-3.382813 2.195313-5.300781 2.195313zm0 0"/></g></svg>