<?xml version="1.0" standalone="no"?><!-- Generator: Gravit.io --><svg xmlns="http://www.w3.org/2000/svg" xmlns:xlink="http://www.w3.org/1999/xlink" style="isolation:isolate" viewBox="0 0 512 512" width="512" height="512"><path d=" M 102.4 273.078 C 100.802 273.078 99.216 272.636 97.818 271.746 L 3.953 212.017 C 1.246 210.29 -0.262 207.204 0.043 204.013 C 0.352 200.822 2.418 198.072 5.394 196.888 L 500.315 0.624 C 504.42 -0.997 509.061 0.761 511.057 4.679 C 513.064 8.596 511.768 13.389 508.053 15.752 L 106.997 271.746 C 105.591 272.636 103.993 273.078 102.4 273.078 L 102.4 273.078 Z  M 27.214 206.599 L 102.392 254.434 L 423.61 49.4 L 27.214 206.599 Z " fill="rgb(135,187,251)"/><path d=" M 170.663 435.206 C 167.269 435.206 164.144 433.175 162.804 429.984 L 94.54 267.855 C 92.927 264.035 94.31 259.586 97.818 257.359 L 498.873 1.366 C 502.561 -0.978 507.44 -0.169 510.154 3.261 C 512.877 6.69 512.553 11.624 509.42 14.678 L 195.745 319.881 L 179.112 427.988 C 178.53 431.761 175.519 434.687 171.722 435.155 C 171.363 435.191 171.007 435.206 170.663 435.206 Z  M 113.056 267.875 L 166.816 395.555 L 179.292 314.448 C 179.573 312.612 180.444 310.924 181.773 309.635 L 437.633 60.697 L 113.056 267.875 Z " fill="rgb(135,187,251)"/><path d=" M 341.327 409.609 C 339.893 409.609 338.468 409.25 337.179 408.535 L 183.585 323.201 C 181.23 321.897 179.624 319.541 179.273 316.869 C 178.917 314.202 179.847 311.51 181.784 309.627 L 497.506 2.433 C 500.401 -0.392 504.881 -0.79 508.244 1.487 C 511.596 3.765 512.885 8.065 511.342 11.811 L 349.209 404.336 C 348.28 406.586 346.436 408.328 344.135 409.129 C 343.229 409.453 342.272 409.609 341.327 409.609 L 341.327 409.609 Z  M 201.905 313.866 L 337.093 388.977 L 479.8 43.478 L 201.905 313.866 Z " fill="rgb(135,187,251)"/><path d=" M 8.535 375.477 C 6.351 375.477 4.168 374.641 2.504 372.977 C -0.836 369.638 -0.836 364.247 2.504 360.911 L 62.233 301.178 C 65.572 297.843 70.963 297.843 74.299 301.178 C 77.635 304.514 77.635 309.909 74.299 313.245 L 14.57 372.977 C 12.906 374.649 10.718 375.477 8.535 375.477 L 8.535 375.477 Z " fill="rgb(135,187,251)"/><path d=" M 8.535 512.005 C 6.351 512.005 4.168 511.169 2.504 509.505 C -0.836 506.169 -0.836 500.775 2.504 497.439 L 19.57 480.373 C 22.906 477.037 28.296 477.037 31.636 480.373 C 34.972 483.709 34.972 489.103 31.636 492.439 L 14.57 509.505 C 12.906 511.177 10.718 512.005 8.535 512.005 Z " fill="rgb(135,187,251)"/><path d=" M 51.202 469.342 C 49.018 469.342 46.831 468.502 45.167 466.838 C 41.831 463.502 41.831 458.112 45.167 454.776 L 96.365 403.574 C 99.704 400.238 105.095 400.238 108.431 403.574 C 111.77 406.91 111.77 412.304 108.431 415.64 L 57.233 466.838 C 55.569 468.514 53.385 469.342 51.202 469.342 Z " fill="rgb(135,187,251)"/><path d=" M 179.198 512.005 C 177.015 512.005 174.827 511.169 173.163 509.505 C 169.828 506.169 169.828 500.775 173.163 497.439 L 181.698 488.908 C 185.034 485.568 190.429 485.568 193.764 488.908 C 197.1 492.244 197.1 497.634 193.764 500.974 L 185.229 509.505 C 183.565 511.177 181.382 512.005 179.198 512.005 Z " fill="rgb(135,187,251)"/><path d=" M 213.33 477.873 C 211.147 477.873 208.959 477.037 207.295 475.373 C 203.959 472.037 203.959 466.643 207.295 463.307 L 249.962 420.64 C 253.298 417.304 258.692 417.304 262.028 420.64 C 265.364 423.98 265.364 429.37 262.028 432.706 L 219.361 475.373 C 217.697 477.045 215.514 477.873 213.33 477.873 L 213.33 477.873 Z " fill="rgb(135,187,251)"/></svg>