<svg height="512pt" viewBox="0 -35 512 511" width="512pt" xmlns="http://www.w3.org/2000/svg"><path d="m321.109375 130.15625h-26.625c-2.910156 0-5.507813-1.839844-6.453125-4.59375-1.714844-4.984375-3.722656-9.828125-6.011719-14.515625-1.28125-2.617187-.746093-5.75 1.3125-7.8125l18.828125-18.828125c4.863282-4.863281 4.863282-12.746094 0-17.609375l-34.890625-34.894531c-4.863281-4.863282-12.75-4.863282-17.613281 0l-18.828125 18.828125c-2.058594 2.058593-5.195313 2.59375-7.8125 1.316406-4.683594-2.289063-9.53125-4.300781-14.515625-6.015625-2.753906-.945312-4.59375-3.539062-4.59375-6.453125v-26.625c0-6.878906-5.574219-12.453125-12.453125-12.453125h-49.34375c-6.878906 0-12.453125 5.574219-12.453125 12.453125v26.625c0 2.910156-1.839844 5.507813-4.59375 6.453125-4.984375 1.714844-9.832031 3.726562-14.515625 6.015625-2.617187 1.277344-5.753906.742187-7.8125-1.316406l-18.828125-18.828125c-4.863281-4.863282-12.746094-4.863282-17.609375 0l-34.894531 34.894531c-4.863282 4.863281-4.863282 12.746094 0 17.609375l18.828125 18.828125c2.058593 2.058594 2.59375 5.195313 1.316406 7.8125-2.289063 4.6875-4.300781 9.53125-6.015625 14.515625-.945312 2.753906-3.539062 4.59375-6.453125 4.59375h-26.625c-6.878906 0-12.453125 5.574219-12.453125 12.453125v49.34375c0 6.878906 5.574219 12.453125 12.453125 12.453125h26.625c2.910156 0 5.507813 1.839844 6.453125 4.59375 1.714844 4.984375 3.726562 9.832031 6.015625 14.515625 1.277344 2.617187.742187 5.753906-1.316406 7.8125l-18.828125 18.828125c-4.863282 4.863281-4.863282 12.75 0 17.613281l34.894531 34.890625c4.863281 4.863282 12.746094 4.863282 17.609375 0l18.828125-18.828125c2.058594-2.058593 5.195313-2.589843 7.8125-1.3125 4.6875 2.289063 9.53125 4.296875 14.515625 6.011719 2.753906.945312 4.59375 3.542969 4.59375 6.453125v26.625c0 6.878906 5.574219 12.453125 12.453125 12.453125h49.34375c6.878906 0 12.453125-5.574219 12.453125-12.453125v-26.625c0-2.910156 1.839844-5.507813 4.59375-6.453125 4.984375-1.710938 9.832031-3.722656 14.515625-6.011719 2.617187-1.277343 5.753906-.746093 7.8125 1.316407l18.832031 18.824218c4.863282 4.863282 12.746094 4.863282 17.609375 0l34.894531-34.890625c4.863282-4.863281 4.863282-12.75 0-17.613281l-18.828124-18.828125c-2.0625-2.058594-2.59375-5.195313-1.316407-7.8125 2.289063-4.683594 4.300781-9.53125 6.011719-14.511719.945312-2.753906 3.542969-4.59375 6.453125-4.59375h26.628906c6.875 0 12.453125-5.574218 12.453125-12.453125v-49.347656c-.003906-6.878906-5.578125-12.453125-12.457031-12.453125zm-154.328125 83.894531c-25.828125 0-46.769531-20.9375-46.769531-46.769531 0-25.828125 20.941406-46.769531 46.769531-46.769531 25.832031 0 46.769531 20.941406 46.769531 46.769531 0 25.832031-20.9375 46.769531-46.769531 46.769531zm0 0" fill="#7397da"/><path d="m321.109375 130.15625h-26.625c-2.910156 0-5.507813-1.839844-6.453125-4.59375-1.714844-4.984375-3.722656-9.828125-6.011719-14.515625-1.28125-2.617187-.746093-5.75 1.3125-7.8125l18.828125-18.828125c4.863282-4.863281 4.863282-12.746094 0-17.609375l-34.890625-34.894531c-4.863281-4.863282-12.75-4.863282-17.613281 0l-18.828125 18.828125c-2.058594 2.058593-5.195313 2.59375-7.8125 1.316406-4.683594-2.289063-9.53125-4.300781-14.515625-6.015625-2.753906-.945312-4.59375-3.539062-4.59375-6.453125v-26.625c0-6.878906-5.574219-12.453125-12.453125-12.453125h-49.34375c-6.878906 0-12.453125 5.574219-12.453125 12.453125v26.625c0 2.910156-1.839844 5.507813-4.59375 6.453125-4.984375 1.714844-9.832031 3.726562-14.515625 6.015625-2.617187 1.277344-5.753906.742187-7.8125-1.316406l-18.828125-18.828125c-4.863281-4.863282-12.746094-4.863282-17.609375 0l-34.894531 34.894531c-4.863282 4.863281-4.863282 12.746094 0 17.609375l18.828125 18.828125c2.058593 2.058594 2.59375 5.195313 1.316406 7.8125-2.289063 4.6875-4.300781 9.53125-6.015625 14.515625-.945312 2.753906-3.539062 4.59375-6.453125 4.59375h-26.625c-6.878906 0-12.453125 5.574219-12.453125 12.453125v49.34375c0 6.878906 5.574219 12.453125 12.453125 12.453125h26.625c2.910156 0 5.507813 1.839844 6.453125 4.59375 1.714844 4.984375 3.726562 9.832031 6.015625 14.515625 1.277344 2.617187.742187 5.753906-1.316406 7.8125l-18.828125 18.828125c-4.863282 4.863281-4.863282 12.75 0 17.613281l34.894531 34.890625c4.863281 4.863282 12.746094 4.863282 17.609375 0l18.828125-18.828125c2.058594-2.058593 5.195313-2.589843 7.8125-1.3125 4.6875 2.289063 9.53125 4.296875 14.515625 6.011719 2.753906.945312 4.59375 3.542969 4.59375 6.453125v26.625c0 6.878906 5.574219 12.453125 12.453125 12.453125h49.34375c6.878906 0 12.453125-5.574219 12.453125-12.453125v-26.625c0-2.910156 1.839844-5.507813 4.59375-6.453125 4.984375-1.710938 9.832031-3.722656 14.515625-6.011719 2.617187-1.277343 5.753906-.746093 7.8125 1.316407l18.832031 18.824218c4.863282 4.863282 12.746094 4.863282 17.609375 0l34.894531-34.890625c4.863282-4.863281 4.863282-12.75 0-17.613281l-18.828124-18.828125c-2.0625-2.058594-2.59375-5.195313-1.316407-7.8125 2.289063-4.683594 4.300781-9.53125 6.011719-14.511719.945312-2.753906 3.542969-4.59375 6.453125-4.59375h26.628906c6.875 0 12.453125-5.574218 12.453125-12.453125v-49.347656c-.003906-6.878906-5.578125-12.453125-12.457031-12.453125zm-154.328125 83.894531c-25.828125 0-46.769531-20.9375-46.769531-46.769531 0-25.828125 20.941406-46.769531 46.769531-46.769531 25.832031 0 46.769531 20.941406 46.769531 46.769531 0 25.832031-20.9375 46.769531-46.769531 46.769531zm0 0" fill="#7397da"/><path d="m129.65625 294.984375v26.628906c0 6.875 5.574219 12.453125 12.453125 12.453125h49.34375c6.878906 0 12.453125-5.578125 12.453125-12.453125v-26.628906c0-2.910156 1.839844-5.507813 4.59375-6.453125 4.984375-1.710938 9.832031-3.722656 14.515625-6.011719 2.617187-1.277343 5.753906-.746093 7.8125 1.316407l18.832031 18.824218c4.863282 4.863282 12.746094 4.863282 17.609375 0l17.160157-17.15625c-53.796876-21.386718-93.128907-45.875-121.820313-71.648437-23.871094-2.113281-42.59375-22.152344-42.59375-46.574219 0-1.0625.046875-2.113281.117187-3.160156-28.753906-45.636719-33.367187-91.667969-32.980468-128.972656l-3.246094-3.246094c-4.863281-4.863282-12.746094-4.863282-17.609375 0l-34.894531 34.894531c-4.863282 4.863281-4.863282 12.746094 0 17.609375l18.828125 18.828125c2.058593 2.058594 2.59375 5.195313 1.316406 7.8125-2.289063 4.6875-4.300781 9.53125-6.015625 14.515625-.945312 2.753906-3.539062 4.59375-6.453125 4.59375h-26.625c-6.878906 0-12.453125 5.574219-12.453125 12.453125v49.34375c0 6.878906 5.574219 12.453125 12.453125 12.453125h26.625c2.910156 0 5.507813 1.839844 6.453125 4.59375 1.714844 4.984375 3.726562 9.832031 6.015625 14.515625 1.277344 2.617187.742187 5.753906-1.316406 7.8125l-18.828125 18.828125c-4.863282 4.863281-4.863282 12.75 0 17.613281l34.894531 34.890625c4.863281 4.863282 12.746094 4.863282 17.609375 0l18.828125-18.828125c2.058594-2.058593 5.195313-2.589843 7.8125-1.3125 4.6875 2.289063 9.53125 4.296875 14.515625 6.011719 2.753906.945312 4.59375 3.542969 4.59375 6.453125zm0 0" fill="#6988c4"/><g fill="#80bbe6"><path d="m173.949219 64.222656c0 3.957032-3.207031 7.167969-7.167969 7.167969-3.957031 0-7.167969-3.210937-7.167969-7.167969 0-3.960937 3.210938-7.167968 7.167969-7.167968 3.960938 0 7.167969 3.207031 7.167969 7.167968zm0 0"/><path d="m101.074219 94.40625c0 3.960938-3.207031 7.167969-7.167969 7.167969-3.957031 0-7.167969-3.207031-7.167969-7.167969 0-3.957031 3.210938-7.167969 7.167969-7.167969 3.960938 0 7.167969 3.210938 7.167969 7.167969zm0 0"/><path d="m70.890625 167.28125c0 3.960938-3.210937 7.167969-7.167969 7.167969-3.960937 0-7.167968-3.207031-7.167968-7.167969 0-3.957031 3.207031-7.167969 7.167968-7.167969 3.957032 0 7.167969 3.210938 7.167969 7.167969zm0 0"/><path d="m101.074219 240.15625c0 3.960938-3.207031 7.167969-7.167969 7.167969-3.957031 0-7.167969-3.207031-7.167969-7.167969 0-3.957031 3.210938-7.167969 7.167969-7.167969 3.960938 0 7.167969 3.210938 7.167969 7.167969zm0 0"/><path d="m173.949219 270.34375c0 3.957031-3.207031 7.167969-7.167969 7.167969-3.957031 0-7.167969-3.210938-7.167969-7.167969 0-3.960938 3.210938-7.167969 7.167969-7.167969 3.960938 0 7.167969 3.207031 7.167969 7.167969zm0 0"/><path d="m246.824219 240.15625c0 3.960938-3.207031 7.167969-7.167969 7.167969-3.957031 0-7.167969-3.207031-7.167969-7.167969 0-3.957031 3.210938-7.167969 7.167969-7.167969 3.960938 0 7.167969 3.210938 7.167969 7.167969zm0 0"/><path d="m277.011719 167.28125c0 3.960938-3.210938 7.167969-7.167969 7.167969-3.960938 0-7.167969-3.207031-7.167969-7.167969 0-3.957031 3.207031-7.167969 7.167969-7.167969 3.957031 0 7.167969 3.210938 7.167969 7.167969zm0 0"/><path d="m246.824219 94.40625c0 3.960938-3.207031 7.167969-7.167969 7.167969-3.957031 0-7.167969-3.207031-7.167969-7.167969 0-3.957031 3.210938-7.167969 7.167969-7.167969 3.960938 0 7.167969 3.210938 7.167969 7.167969zm0 0"/></g><path d="m166.78125 93.980469c-40.417969 0-73.300781 32.882812-73.300781 73.300781s32.882812 73.300781 73.300781 73.300781 73.300781-32.882812 73.300781-73.300781-32.882812-73.300781-73.300781-73.300781zm0 120.070312c-25.828125 0-46.769531-20.9375-46.769531-46.769531 0-25.828125 20.941406-46.769531 46.769531-46.769531 25.832031 0 46.769531 20.941406 46.769531 46.769531 0 25.832031-20.9375 46.769531-46.769531 46.769531zm0 0" fill="#eeeeed"/><path d="m166.78125 240.582031c8.515625 0 16.691406-1.472656 24.300781-4.15625-10.496093-7.378906-19.953125-14.917969-28.472656-22.570312-23.875-2.113281-42.597656-22.152344-42.597656-46.574219 0-1.0625.050781-2.113281.121093-3.160156-6.988281-11.085938-12.546874-22.199219-16.957031-33.199219-6.152343 10.722656-9.695312 23.132813-9.695312 36.359375 0 40.417969 32.882812 73.300781 73.300781 73.300781zm0 0" fill="#dfdfdd"/><path d="m488.554688 353.460938c-2.871094-2.871094-3.945313-7.128907-2.640626-10.972657 8.324219-24.515625 8.324219-51.230469 0-75.746093-1.304687-3.84375-.230468-8.097657 2.640626-10.96875l17.84375-17.847657c7.46875-7.46875 7.46875-19.574219 0-27.042969l-38-38c-7.46875-7.46875-19.574219-7.46875-27.042969 0l-17.84375 17.847657c-2.871094 2.871093-7.128907 3.941406-10.972657 2.636719-24.515624-8.324219-51.230468-8.324219-75.746093 0-3.84375 1.304687-8.101563.234374-10.972657-2.636719l-17.84375-17.847657c-7.46875-7.46875-19.574218-7.46875-27.042968 0l-38 38c-7.46875 7.46875-7.46875 19.574219 0 27.042969l17.84375 17.847657c2.871094 2.871093 3.945312 7.125 2.640625 10.96875-8.324219 24.515624-8.324219 51.230468 0 75.746093 1.304687 3.84375.234375 8.101563-2.640625 10.972657l-17.84375 17.84375c-7.46875 7.46875-7.46875 19.578124 0 27.042968l38 38c7.46875 7.46875 19.574218 7.46875 27.042968 0l17.84375-17.84375c2.871094-2.871094 7.128907-3.945312 10.972657-2.640625 24.515625 8.324219 51.230469 8.324219 75.742187 0 3.847656-1.304687 8.101563-.230469 10.972656 2.640625l17.847657 17.84375c7.46875 7.46875 19.574219 7.46875 27.042969 0l38-38c7.46875-7.464844 7.46875-19.574218 0-27.042968zm-93.691407-28.648438c-11.15625 11.15625-29.242187 11.15625-40.394531 0s-11.152344-29.238281 0-40.394531c11.15625-11.152344 29.238281-11.152344 40.394531 0 11.152344 11.15625 11.152344 29.238281 0 40.394531zm0 0" fill="#7bd0a7"/><path d="m423.511719 418.503906 17.84375 17.84375c7.46875 7.46875 19.574219 7.46875 27.042969 0l15.984374-15.984375c-174.679687-53.9375-184.171874-187.589843-181.046874-250.898437-7.214844-3.785156-16.339844-2.648438-22.402344 3.417968l-38 38c-7.46875 7.46875-7.46875 19.574219 0 27.042969l17.84375 17.847657c2.871094 2.871093 3.945312 7.125 2.636718 10.96875-8.320312 24.515624-8.320312 51.230468 0 75.746093 1.308594 3.84375.234376 8.101563-2.636718 10.972657l-17.84375 17.84375c-7.46875 7.46875-7.46875 19.578124 0 27.042968l38 38c7.464844 7.46875 19.574218 7.46875 27.042968 0l17.84375-17.84375c2.871094-2.871094 7.128907-3.945312 10.972657-2.640625 24.515625 8.324219 51.230469 8.324219 75.742187 0 3.847656-1.304687 8.101563-.230469 10.976563 2.640625zm0 0" fill="#70bd98"/><path d="m297.761719 304.617188c0 3.957031-3.207031 7.167968-7.167969 7.167968-3.957031 0-7.167969-3.210937-7.167969-7.167968 0-3.960938 3.210938-7.167969 7.167969-7.167969 3.960938 0 7.167969 3.207031 7.167969 7.167969zm0 0" fill="#eeeeed"/><path d="m381.835938 388.6875c0 3.957031-3.210938 7.167969-7.171876 7.167969-3.957031 0-7.167968-3.210938-7.167968-7.167969 0-3.960938 3.210937-7.167969 7.167968-7.167969 3.960938 0 7.171876 3.207031 7.171876 7.167969zm0 0" fill="#eeeeed"/><path d="m465.90625 304.617188c0 3.957031-3.210938 7.167968-7.167969 7.167968-3.960937 0-7.167969-3.210937-7.167969-7.167968 0-3.960938 3.207032-7.167969 7.167969-7.167969 3.957031 0 7.167969 3.207031 7.167969 7.167969zm0 0" fill="#eeeeed"/><path d="m413.621094 265.65625c-10.402344-10.402344-24.238282-16.136719-38.957032-16.136719-14.714843 0-28.550781 5.734375-38.953124 16.136719-21.484376 21.484375-21.484376 56.4375 0 77.917969 10.402343 10.40625 24.238281 16.136719 38.953124 16.136719 14.71875 0 28.554688-5.730469 38.957032-16.136719 21.484375-21.480469 21.484375-56.433594 0-77.917969zm-18.757813 59.15625c-11.15625 11.15625-29.242187 11.15625-40.394531 0-11.152344-11.152344-11.152344-29.238281 0-40.394531 11.15625-11.152344 29.242188-11.152344 40.394531 0 11.152344 11.15625 11.152344 29.238281 0 40.394531zm0 0" fill="#eeeeed"/><path d="m322.246094 287.734375c-6.097656 19.039063-1.621094 40.757813 13.460937 55.839844 10.066407 10.066406 23.34375 15.738281 37.519531 16.101562-24.238281-22.335937-40.367187-47.167969-50.980468-71.941406zm0 0" fill="#dfdfdd"/><path d="m335.808594 241.957031c0-9.992187-10.171875-18.09375-22.71875-18.09375-12.550782 0-22.722656 8.101563-22.722656 18.09375 0 9.992188 10.171874 18.09375 22.722656 18.09375 12.546875 0 22.71875-8.101562 22.71875-18.09375zm0 0" fill="#fff"/><path d="m458.964844 241.957031c0-9.992187-10.171875-18.09375-22.722656-18.09375-12.546876 0-22.71875 8.101563-22.71875 18.09375 0 9.992188 10.171874 18.09375 22.71875 18.09375 12.550781 0 22.722656-8.101562 22.722656-18.09375zm0 0" fill="#fff"/><path d="m326.328125 231.40625c-4.140625 0-7.5-3.355469-7.5-7.5v-8.023438c0-4.140624 3.359375-7.5 7.5-7.5 4.144531 0 7.5 3.359376 7.5 7.5v8.023438c0 4.144531-3.355469 7.5-7.5 7.5zm0 0" fill="#495059"/><path d="m423.003906 231.40625c-4.144531 0-7.5-3.355469-7.5-7.5v-8.023438c0-4.140624 3.355469-7.5 7.5-7.5 4.140625 0 7.5 3.359376 7.5 7.5v8.023438c0 4.144531-3.359375 7.5-7.5 7.5zm0 0" fill="#495059"/><path d="m374.664062 237.566406c-7.050781 0-13.753906-3.050781-18.394531-8.375-2.722656-3.125-2.398437-7.859375.726563-10.582031 3.121094-2.722656 7.859375-2.398437 10.582031.726563 1.789063 2.054687 4.375 3.230468 7.089844 3.230468 2.714843 0 5.296875-1.175781 7.089843-3.230468 2.71875-3.125 7.457032-3.449219 10.582032-.726563 3.121094 2.722656 3.445312 7.457031.726562 10.582031-4.644531 5.324219-11.347656 8.375-18.402344 8.375zm0 0" fill="#495059"/></svg>